<svg width="353" height="188" viewBox="0 0 353 188" fill="none" xmlns="http://www.w3.org/2000/svg">
<g filter="url(#filter0_d_2009_782)">
<rect x="4" width="345" height="180" rx="8" fill="#FFF6F6"/>
</g>
<path fill-rule="evenodd" clip-rule="evenodd" d="M317.625 140.9C317.802 140.9 317.978 140.935 318.142 141.003C318.305 141.071 318.454 141.17 318.579 141.296L325.329 148.046C325.454 148.171 325.554 148.32 325.622 148.484C325.69 148.648 325.725 148.823 325.725 149.001C325.725 149.178 325.69 149.354 325.622 149.517C325.554 149.681 325.454 149.83 325.329 149.956L318.579 156.706C318.455 156.835 318.306 156.939 318.141 157.01C317.976 157.082 317.798 157.119 317.619 157.121C317.439 157.123 317.261 157.089 317.094 157.021C316.928 156.953 316.777 156.853 316.65 156.725C316.523 156.598 316.422 156.447 316.354 156.281C316.287 156.114 316.253 155.936 316.255 155.756C316.257 155.577 316.295 155.399 316.366 155.234C316.438 155.069 316.541 154.92 316.671 154.796L322.466 149L316.671 143.206C316.482 143.017 316.353 142.776 316.301 142.514C316.249 142.252 316.275 141.981 316.377 141.734C316.479 141.487 316.653 141.276 316.875 141.128C317.097 140.979 317.358 140.9 317.625 140.9Z" fill="#FE5858"/>
<path d="M60.3352 85.2216C59.3996 85.2216 58.5966 84.9848 57.9261 84.5114C57.2595 84.0341 56.7462 83.3466 56.3864 82.4489C56.0303 81.5473 55.8523 80.4621 55.8523 79.1932C55.8561 77.9242 56.036 76.8447 56.392 75.9545C56.7519 75.0606 57.2652 74.3788 57.9318 73.9091C58.6023 73.4394 59.4034 73.2045 60.3352 73.2045C61.267 73.2045 62.0682 73.4394 62.7386 73.9091C63.4091 74.3788 63.9223 75.0606 64.2784 75.9545C64.6383 76.8485 64.8182 77.928 64.8182 79.1932C64.8182 80.4659 64.6383 81.553 64.2784 82.4545C63.9223 83.3523 63.4091 84.0379 62.7386 84.5114C62.072 84.9848 61.2708 85.2216 60.3352 85.2216ZM60.3352 83.4432C61.0625 83.4432 61.6364 83.0852 62.0568 82.3693C62.4811 81.6496 62.6932 80.5909 62.6932 79.1932C62.6932 78.2689 62.5966 77.4924 62.4034 76.8636C62.2102 76.2348 61.9375 75.7614 61.5852 75.4432C61.233 75.1212 60.8163 74.9602 60.3352 74.9602C59.6117 74.9602 59.0398 75.3201 58.6193 76.0398C58.1989 76.7557 57.9867 77.8068 57.983 79.1932C57.9792 80.1212 58.072 80.9015 58.2614 81.5341C58.4545 82.1667 58.7273 82.6439 59.0795 82.9659C59.4318 83.2841 59.8504 83.4432 60.3352 83.4432ZM70.5621 85.1591C69.7439 85.1591 69.0166 85.0189 68.3803 84.7386C67.7477 84.4583 67.2477 84.0682 66.8803 83.5682C66.5129 83.0682 66.3178 82.4905 66.2951 81.8352H68.4314C68.4504 82.1496 68.5545 82.4242 68.7439 82.6591C68.9333 82.8902 69.1852 83.0701 69.4996 83.1989C69.814 83.3277 70.1663 83.392 70.5564 83.392C70.9731 83.392 71.3424 83.3201 71.6644 83.1761C71.9863 83.0284 72.2382 82.8239 72.4201 82.5625C72.6019 82.3011 72.6909 82 72.6871 81.6591C72.6909 81.3068 72.6 80.9962 72.4144 80.7273C72.2288 80.4583 71.9598 80.2481 71.6076 80.0966C71.2591 79.9451 70.8386 79.8693 70.3462 79.8693H69.3178V78.2443H70.3462C70.7515 78.2443 71.1057 78.1742 71.4087 78.0341C71.7155 77.8939 71.956 77.697 72.1303 77.4432C72.3045 77.1856 72.3898 76.8883 72.386 76.5511C72.3898 76.2216 72.3159 75.9356 72.1644 75.6932C72.0166 75.447 71.8064 75.2557 71.5337 75.1193C71.2648 74.983 70.9485 74.9148 70.5848 74.9148C70.2288 74.9148 69.8992 74.9792 69.5962 75.108C69.2932 75.2367 69.0488 75.4205 68.8632 75.6591C68.6776 75.8939 68.5791 76.1742 68.5678 76.5H66.5394C66.5545 75.8485 66.742 75.2765 67.1019 74.7841C67.4655 74.2879 67.9504 73.9015 68.5564 73.625C69.1625 73.3447 69.8424 73.2045 70.5962 73.2045C71.3727 73.2045 72.047 73.3504 72.6189 73.642C73.1947 73.9299 73.6398 74.3182 73.9541 74.8068C74.2685 75.2955 74.4257 75.8352 74.4257 76.4261C74.4295 77.0814 74.2363 77.6307 73.8462 78.0739C73.4598 78.517 72.9523 78.8068 72.3235 78.9432V79.0341C73.1416 79.1477 73.7685 79.4508 74.2041 79.9432C74.6435 80.4318 74.8613 81.0398 74.8576 81.767C74.8576 82.4186 74.672 83.0019 74.3007 83.517C73.9333 84.0284 73.4257 84.4299 72.778 84.7216C72.1341 85.0133 71.3954 85.1591 70.5621 85.1591ZM83.8218 78.456H86.4298V71.64H88.5418V80.168H86.4298V79.736H83.8218V78.456ZM80.8298 73.24C79.7738 73.24 79.1018 73.512 79.1018 74.072C79.1018 74.616 79.7738 74.888 80.8298 74.888C81.8858 74.888 82.5418 74.616 82.5418 74.072C82.5418 73.512 81.8858 73.24 80.8298 73.24ZM80.8298 76.248C78.6218 76.248 77.1498 75.4 77.1498 74.072C77.1498 72.712 78.6218 71.864 80.8298 71.864C83.0218 71.864 84.5098 72.712 84.5098 74.072C84.5098 75.4 83.0218 76.248 80.8298 76.248ZM79.7098 80.184V78.264C78.5418 78.28 77.4058 78.28 76.3658 78.28L76.1578 76.84C78.9738 76.84 82.4778 76.84 85.5658 76.504L85.6938 77.816C84.4138 77.992 83.1178 78.104 81.8218 78.168V80.184H79.7098ZM80.3498 84.824H88.8778V86.264H78.2698V82.744H86.4618V82.04H78.2538V80.616H88.5418V84.072H80.3498V84.824ZM94.5353 85V83.4773L98.5751 79.517C98.9615 79.1269 99.2834 78.7803 99.541 78.4773C99.7986 78.1742 99.9918 77.8807 100.121 77.5966C100.249 77.3125 100.314 77.0095 100.314 76.6875C100.314 76.3201 100.23 76.0057 100.064 75.7443C99.8971 75.4792 99.6679 75.2746 99.3763 75.1307C99.0846 74.9867 98.7531 74.9148 98.3819 74.9148C97.9994 74.9148 97.6641 74.9943 97.3763 75.1534C97.0884 75.3087 96.8649 75.5303 96.7058 75.8182C96.5505 76.1061 96.4728 76.4489 96.4728 76.8466H94.4672C94.4672 76.108 94.6357 75.4659 94.9728 74.9205C95.31 74.375 95.774 73.9527 96.3649 73.6534C96.9596 73.3542 97.6414 73.2045 98.4103 73.2045C99.1906 73.2045 99.8763 73.3504 100.467 73.642C101.058 73.9337 101.516 74.3333 101.842 74.8409C102.172 75.3485 102.336 75.928 102.336 76.5795C102.336 77.0152 102.253 77.4432 102.086 77.8636C101.92 78.2841 101.626 78.75 101.206 79.2614C100.789 79.7727 100.204 80.392 99.4501 81.1193L97.4444 83.1591V83.2386H102.513V85H94.5353ZM108.329 85.1591C107.511 85.1591 106.784 85.0189 106.147 84.7386C105.515 84.4583 105.015 84.0682 104.647 83.5682C104.28 83.0682 104.085 82.4905 104.062 81.8352H106.198C106.217 82.1496 106.321 82.4242 106.511 82.6591C106.7 82.8902 106.952 83.0701 107.266 83.1989C107.581 83.3277 107.933 83.392 108.323 83.392C108.74 83.392 109.109 83.3201 109.431 83.1761C109.753 83.0284 110.005 82.8239 110.187 82.5625C110.369 82.3011 110.458 82 110.454 81.6591C110.458 81.3068 110.367 80.9962 110.181 80.7273C109.996 80.4583 109.727 80.2481 109.374 80.0966C109.026 79.9451 108.605 79.8693 108.113 79.8693H107.085V78.2443H108.113C108.518 78.2443 108.873 78.1742 109.176 78.0341C109.482 77.8939 109.723 77.697 109.897 77.4432C110.071 77.1856 110.157 76.8883 110.153 76.5511C110.157 76.2216 110.083 75.9356 109.931 75.6932C109.784 75.447 109.573 75.2557 109.301 75.1193C109.032 74.983 108.715 74.9148 108.352 74.9148C107.996 74.9148 107.666 74.9792 107.363 75.108C107.06 75.2367 106.816 75.4205 106.63 75.6591C106.445 75.8939 106.346 76.1742 106.335 76.5H104.306C104.321 75.8485 104.509 75.2765 104.869 74.7841C105.232 74.2879 105.717 73.9015 106.323 73.625C106.929 73.3447 107.609 73.2045 108.363 73.2045C109.14 73.2045 109.814 73.3504 110.386 73.642C110.962 73.9299 111.407 74.3182 111.721 74.8068C112.035 75.2955 112.193 75.8352 112.193 76.4261C112.196 77.0814 112.003 77.6307 111.613 78.0739C111.227 78.517 110.719 78.8068 110.09 78.9432V79.0341C110.909 79.1477 111.535 79.4508 111.971 79.9432C112.41 80.4318 112.628 81.0398 112.624 81.767C112.624 82.4186 112.439 83.0019 112.068 83.517C111.7 84.0284 111.193 84.4299 110.545 84.7216C109.901 85.0133 109.162 85.1591 108.329 85.1591ZM126.149 71.64V79.016H124.021V71.64H126.149ZM116.165 75.432C116.165 76.488 116.981 77.096 118.069 77.096C119.157 77.096 119.941 76.488 119.941 75.432C119.941 74.392 119.157 73.768 118.069 73.768C116.981 73.768 116.165 74.392 116.165 75.432ZM121.989 75.432C121.989 77.4 120.309 78.808 118.069 78.808C115.813 78.808 114.117 77.4 114.117 75.432C114.117 73.48 115.813 72.072 118.069 72.072C120.309 72.072 121.989 73.48 121.989 75.432ZM118.437 84.568H126.517V86.216H116.341V82.136H124.053V81.24H116.325V79.624H126.149V83.64H118.437V84.568ZM137.035 73.3636V85H134.927V75.4148H134.859L132.137 77.1534V75.2216L135.029 73.3636H137.035ZM139.459 82.8409V81.1648L144.397 73.3636H145.795V75.75H144.942L141.619 81.017V81.108H148.511V82.8409H139.459ZM145.011 85V82.3295L145.033 81.5795V73.3636H147.022V85H145.011ZM151.296 83.6023C150.951 83.6023 150.656 83.4811 150.409 83.2386C150.163 82.9924 150.042 82.697 150.046 82.3523C150.042 82.0114 150.163 81.7197 150.409 81.4773C150.656 81.2348 150.951 81.1136 151.296 81.1136C151.629 81.1136 151.919 81.2348 152.165 81.4773C152.415 81.7197 152.542 82.0114 152.546 82.3523C152.542 82.5833 152.481 82.7936 152.364 82.983C152.25 83.1723 152.099 83.3239 151.909 83.4375C151.724 83.5473 151.519 83.6023 151.296 83.6023ZM151.296 77.8352C150.951 77.8352 150.656 77.714 150.409 77.4716C150.163 77.2254 150.042 76.9299 150.046 76.5852C150.042 76.2443 150.163 75.9527 150.409 75.7102C150.656 75.464 150.951 75.3409 151.296 75.3409C151.629 75.3409 151.919 75.464 152.165 75.7102C152.415 75.9527 152.542 76.2443 152.546 76.5852C152.542 76.8125 152.481 77.0208 152.364 77.2102C152.25 77.3996 152.099 77.5511 151.909 77.6648C151.724 77.7784 151.519 77.8352 151.296 77.8352ZM158.628 85.2216C157.692 85.2216 156.889 84.9848 156.219 84.5114C155.552 84.0341 155.039 83.3466 154.679 82.4489C154.323 81.5473 154.145 80.4621 154.145 79.1932C154.149 77.9242 154.328 76.8447 154.685 75.9545C155.044 75.0606 155.558 74.3788 156.224 73.9091C156.895 73.4394 157.696 73.2045 158.628 73.2045C159.56 73.2045 160.361 73.4394 161.031 73.9091C161.702 74.3788 162.215 75.0606 162.571 75.9545C162.931 76.8485 163.111 77.928 163.111 79.1932C163.111 80.4659 162.931 81.553 162.571 82.4545C162.215 83.3523 161.702 84.0379 161.031 84.5114C160.364 84.9848 159.563 85.2216 158.628 85.2216ZM158.628 83.4432C159.355 83.4432 159.929 83.0852 160.349 82.3693C160.774 81.6496 160.986 80.5909 160.986 79.1932C160.986 78.2689 160.889 77.4924 160.696 76.8636C160.503 76.2348 160.23 75.7614 159.878 75.4432C159.525 75.1212 159.109 74.9602 158.628 74.9602C157.904 74.9602 157.332 75.3201 156.912 76.0398C156.491 76.7557 156.279 77.8068 156.275 79.1932C156.272 80.1212 156.364 80.9015 156.554 81.5341C156.747 82.1667 157.02 82.6439 157.372 82.9659C157.724 83.2841 158.143 83.4432 158.628 83.4432ZM168.98 85.2216C168.044 85.2216 167.241 84.9848 166.571 84.5114C165.904 84.0341 165.391 83.3466 165.031 82.4489C164.675 81.5473 164.497 80.4621 164.497 79.1932C164.5 77.9242 164.68 76.8447 165.036 75.9545C165.396 75.0606 165.91 74.3788 166.576 73.9091C167.247 73.4394 168.048 73.2045 168.98 73.2045C169.911 73.2045 170.713 73.4394 171.383 73.9091C172.053 74.3788 172.567 75.0606 172.923 75.9545C173.283 76.8485 173.463 77.928 173.463 79.1932C173.463 80.4659 173.283 81.553 172.923 82.4545C172.567 83.3523 172.053 84.0379 171.383 84.5114C170.716 84.9848 169.915 85.2216 168.98 85.2216ZM168.98 83.4432C169.707 83.4432 170.281 83.0852 170.701 82.3693C171.125 81.6496 171.338 80.5909 171.338 79.1932C171.338 78.2689 171.241 77.4924 171.048 76.8636C170.855 76.2348 170.582 75.7614 170.23 75.4432C169.877 75.1212 169.461 74.9602 168.98 74.9602C168.256 74.9602 167.684 75.3201 167.264 76.0398C166.843 76.7557 166.631 77.8068 166.627 79.1932C166.624 80.1212 166.716 80.9015 166.906 81.5341C167.099 82.1667 167.372 82.6439 167.724 82.9659C168.076 83.2841 168.495 83.4432 168.98 83.4432Z" fill="#FE5858"/>
<path d="M44.875 71.5H43V72.625C43 72.8313 42.8313 73 42.625 73H41.875C41.6687 73 41.5 72.8313 41.5 72.625V71.5H32.5V72.625C32.5 72.8313 32.3313 73 32.125 73H31.375C31.1687 73 31 72.8313 31 72.625V71.5H29.125C28.0938 71.5 27.25 72.3438 27.25 73.375V86.125C27.25 87.1562 28.0938 88 29.125 88H44.875C45.9062 88 46.75 87.1562 46.75 86.125V73.375C46.75 72.3438 45.9062 71.5 44.875 71.5ZM45.25 85.5625C45.25 86.0781 44.8281 86.5 44.3125 86.5H29.6875C29.1719 86.5 28.75 86.0781 28.75 85.5625V77.125C28.75 76.9187 28.9187 76.75 29.125 76.75H44.875C45.0813 76.75 45.25 76.9187 45.25 77.125V85.5625ZM32.5 70.375C32.5 70.1687 32.3313 70 32.125 70H31.375C31.1687 70 31 70.1687 31 70.375V71.5H32.5V70.375ZM43 70.375C43 70.1687 42.8313 70 42.625 70H41.875C41.6687 70 41.5 70.1687 41.5 70.375V71.5H43V70.375Z" fill="#FE5858"/>
<path d="M56.536 109.048H63.304C63.304 113.592 62.232 117.384 56.744 120.184L55.624 118.552C58.04 117.352 59.464 115.976 60.296 114.36L56.024 114.776L55.752 112.984L60.904 112.68C61.048 112.072 61.16 111.432 61.208 110.728H56.536V109.048ZM69.288 113.256V115H67.224V122.344H65.112V107.624H67.224V113.256H69.288ZM70.9348 109.048H77.7028C77.7028 113.592 76.6308 117.384 71.1428 120.184L70.0228 118.552C72.4388 117.352 73.8628 115.976 74.6948 114.36L70.4228 114.776L70.1508 112.984L75.3028 112.68C75.4468 112.072 75.5588 111.432 75.6068 110.728H70.9348V109.048ZM83.6868 113.256V115H81.6228V122.344H79.5108V107.624H81.6228V113.256H83.6868ZM87.7335 112.456C87.7335 113.96 89.1255 114.84 91.1415 114.84C93.1735 114.84 94.5655 113.96 94.5655 112.456C94.5655 110.952 93.1735 110.072 91.1415 110.072C89.1255 110.072 87.7335 110.952 87.7335 112.456ZM92.1975 118.952H97.8295V120.664H84.4855V118.952H90.0855V116.456C87.4935 116.136 85.6535 114.648 85.6535 112.456C85.6535 109.992 88.0055 108.392 91.1415 108.392C94.2935 108.392 96.6455 109.992 96.6455 112.456C96.6455 114.648 94.8055 116.152 92.1975 116.456V118.952ZM104.487 121H102.237L106.334 109.364H108.936L113.038 121H110.788L107.68 111.75H107.589L104.487 121ZM104.561 116.438H110.697V118.131H104.561V116.438ZM116.359 109.364V121H114.251V109.364H116.359ZM122.199 108.568H127.991C127.991 112.392 126.455 115.048 122.423 116.712L121.431 115.208C123.063 114.552 124.167 113.768 124.887 112.824L121.847 113.144L121.575 111.48L125.655 111.272C125.767 110.936 125.831 110.616 125.879 110.248H122.199V108.568ZM126.167 118.504V120.552H132.007V118.504H126.167ZM124.087 122.2V116.84H134.071V122.2H124.087ZM132.071 107.64H134.071V116.264H132.071V112.776H130.807V116.152H128.839V107.896H130.807V111.08H132.071V107.64ZM139.509 110.616V117.288C139.989 117.272 140.469 117.256 140.965 117.224V110.616H139.509ZM142.997 110.616V117.096C143.589 117.064 144.181 117 144.741 116.936L144.869 118.472C141.925 118.984 138.581 119.048 136.069 119.048L135.845 117.336C136.357 117.336 136.901 117.336 137.461 117.336V110.616H136.245V108.936H144.373V110.616H142.997ZM146.165 107.64H148.277V122.392H146.165V114.696H143.973V112.984H146.165V107.64ZM163.188 114.568L162.292 116.344C159.732 115.832 157.844 114.408 156.9 112.536C155.956 114.408 154.084 115.848 151.524 116.344L150.628 114.568C153.94 114.008 155.78 111.672 155.78 109.56V108.504H158.036V109.56C158.036 111.72 159.86 114.008 163.188 114.568ZM150.308 118.872H163.652V120.584H150.308V118.872Z" fill="#FE5858"/>
<path d="M35.5714 103C30.8569 103 27 106.78 27 111.4C27 117.7 35.5714 127 35.5714 127C35.5714 127 44.1429 117.7 44.1429 111.4C44.1429 106.78 40.2859 103 35.5714 103ZM35.5714 114.4C33.8574 114.4 32.5101 113.08 32.5101 111.4C32.5101 109.72 33.8573 108.4 35.5714 108.4C37.2856 108.4 38.6327 109.72 38.6327 111.4C38.6327 113.08 37.2855 114.4 35.5714 114.4Z" fill="#FE5858"/>
<path d="M60.616 141.488H67.432C67.432 145.408 64.952 148.064 60.568 149.184L59.768 147.536C63.032 146.72 64.872 145.104 65.176 143.152H60.616V141.488ZM64.264 151.136V153.552H69.848V151.136H64.264ZM62.184 155.2V149.472H71.928V155.2H62.184ZM69.8 140.656H71.928V148.848H69.8V140.656ZM84.2948 144.656H81.2388C80.3268 146.976 78.2628 148.56 75.0148 149.472L74.1988 147.808C77.5588 146.912 79.1748 145.328 79.4468 143.328H74.9988V141.632H81.7508C81.7508 142.096 81.7188 142.544 81.6548 142.976H84.2948V140.64H86.4068V149.12H84.2948V147.712H81.0468V146.016H84.2948V144.656ZM81.5428 153.664C83.3508 153.664 84.4228 153.2 84.4228 152.304C84.4228 151.408 83.3508 150.944 81.5428 150.944C79.7188 150.944 78.6468 151.408 78.6468 152.304C78.6468 153.2 79.7188 153.664 81.5428 153.664ZM81.5428 149.312C84.5348 149.312 86.5028 150.464 86.5028 152.304C86.5028 154.144 84.5348 155.296 81.5428 155.296C78.5348 155.296 76.5668 154.144 76.5668 152.304C76.5668 150.464 78.5348 149.312 81.5428 149.312ZM99.2375 140.624H101.238V155.36H99.2375V148H98.0375V154.704H96.0695V150.432L94.8855 152.016C93.5735 151.312 92.7255 150.128 92.1975 148.656C91.7175 150.352 90.8535 151.744 89.4775 152.56L88.2135 150.96C90.4055 149.68 91.1095 147.072 91.1095 144.24V143.84H88.6935V142.128H95.3655V143.84H93.1575V144.24C93.1575 146.816 93.8935 149.264 96.0695 150.4V140.864H98.0375V146.272H99.2375V140.624Z" fill="#FE5858"/>
<path d="M43.3636 147.436C45.1636 147.436 46.6364 145.988 46.6364 144.218C46.6364 142.448 45.1636 141 43.3636 141C41.5637 141 40.0909 142.448 40.0909 144.218C40.0909 145.988 41.5637 147.436 43.3636 147.436ZM34.6364 147.436C36.4363 147.436 37.9091 145.988 37.9091 144.218C37.9091 142.448 36.4363 141 34.6364 141C32.8364 141 31.3636 142.448 31.3636 144.218C31.3636 145.988 32.8364 147.436 34.6364 147.436ZM34.6364 149.796C32.0726 149.796 27 151.03 27 153.551V156.447H42.4286V153.551C42.4286 151.03 37.2001 149.796 34.6364 149.796ZM43.3636 150.386C43.0366 150.386 42.8105 150.386 42.4286 150.44C43.6835 151.352 44.1429 151.941 44.1429 153.551V156.447H51V153.551C51 151.03 45.9274 150.386 43.3636 150.386Z" fill="#FE5858"/>
<path d="M110.01 145.18H114.27C114.27 147.63 112.72 149.29 109.98 149.99L109.48 148.96C111.52 148.45 112.67 147.44 112.86 146.22H110.01V145.18ZM112.29 151.21V152.72H115.78V151.21H112.29ZM110.99 153.75V150.17H117.08V153.75H110.99ZM115.75 144.66H117.08V149.78H115.75V144.66ZM123.639 147.93L123.789 148.99C122.289 149.29 120.879 149.38 119.579 149.38H118.799V145.08H120.119V148.28C121.219 148.26 122.399 148.17 123.639 147.93ZM120.979 151.29V152.72H124.389V151.29H120.979ZM119.679 153.75V150.26H125.679V153.75H119.679ZM126.899 146.59V147.67H125.679V149.83H124.359V144.65H125.679V146.59H126.899ZM127.938 145.6H132.358C132.358 148.42 131.408 150.72 128.138 152.3L127.448 151.26C129.798 150.13 130.818 148.69 131.008 146.65H127.938V145.6ZM133.768 144.64H135.098V153.85H133.768V144.64ZM139.288 145.18H143.548C143.548 147.63 141.998 149.29 139.258 149.99L138.758 148.96C140.798 148.45 141.948 147.44 142.138 146.22H139.288V145.18ZM141.568 151.21V152.72H145.058V151.21H141.568ZM140.268 153.75V150.17H146.358V153.75H140.268ZM145.028 144.66H146.358V149.78H145.028V144.66ZM154.087 151.67V149.96H152.887V148.91H154.087V147.99H152.887V146.94H154.087V144.65H155.407V151.67H154.087ZM152.787 145.62V146.65H147.737V145.62H149.667V144.62H150.987V145.62H152.787ZM149.407 148.78C149.407 149.3 149.787 149.58 150.327 149.58C150.857 149.58 151.237 149.3 151.237 148.78C151.237 148.28 150.857 147.99 150.327 147.99C149.787 147.99 149.407 148.28 149.407 148.78ZM152.477 148.78C152.477 149.85 151.577 150.6 150.327 150.6C149.067 150.6 148.167 149.85 148.167 148.78C148.167 147.72 149.067 146.98 150.327 146.98C151.577 146.98 152.477 147.72 152.477 148.78ZM150.647 152.65H155.607V153.7H149.327V151.1H150.647V152.65ZM159.177 150.67C159.857 150.67 160.327 149.94 160.327 148.57C160.327 147.21 159.857 146.48 159.177 146.48C158.487 146.48 158.027 147.21 158.027 148.57C158.027 149.94 158.487 150.67 159.177 150.67ZM159.177 145.29C160.567 145.29 161.597 146.55 161.597 148.57C161.597 150.6 160.567 151.87 159.177 151.87C157.777 151.87 156.757 150.6 156.757 148.57C156.757 146.55 157.777 145.29 159.177 145.29ZM165.257 148.12V149.21H163.917V153.86H162.597V144.65H163.917V148.12H165.257ZM173.956 147.43V146.07H170.306V147.43H173.956ZM175.256 145.04V148.47H169.006V145.04H175.256ZM170.266 151.03V152.65H175.396V153.7H168.946V151.03H170.266ZM167.976 149.2H176.316V150.24H172.926V151.81H171.606V150.24H167.976V149.2ZM183.365 150.05V147.4H181.685V146.33H183.365V144.65H184.685V150.05H183.365ZM182.525 148.72L181.835 149.76C180.865 149.43 180.215 148.8 179.825 147.98C179.415 148.92 178.685 149.66 177.595 150.03L176.905 148.97C178.475 148.47 179.125 147.22 179.125 145.95V145.13H180.465V145.89C180.465 147.13 181.065 148.25 182.525 148.72ZM181.575 152.85C182.775 152.85 183.405 152.6 183.405 152.08C183.405 151.55 182.775 151.3 181.575 151.3C180.365 151.3 179.735 151.55 179.735 152.08C179.735 152.6 180.365 152.85 181.575 152.85ZM181.575 150.28C183.525 150.28 184.725 150.94 184.725 152.08C184.725 153.2 183.525 153.86 181.575 153.86C179.615 153.86 178.415 153.2 178.415 152.08C178.415 150.94 179.615 150.28 181.575 150.28ZM190.145 145.86C188.895 145.86 188.175 146.13 188.175 146.66C188.175 147.2 188.895 147.46 190.145 147.46C191.405 147.46 192.125 147.2 192.125 146.66C192.125 146.13 191.405 145.86 190.145 145.86ZM190.145 148.48C188.125 148.48 186.815 147.79 186.815 146.66C186.815 145.53 188.125 144.84 190.145 144.84C192.175 144.84 193.485 145.53 193.485 146.66C193.485 147.79 192.175 148.48 190.145 148.48ZM194.305 150.02H190.795V150.83H193.305V153.87H191.985V151.86H186.905V150.83H189.475V150.02H185.985V148.98H194.305V150.02ZM200.644 148.67V147.46H198.834V148.67H200.644ZM201.944 145.24V149.71H197.534V145.24H198.834V146.45H200.644V145.24H201.944ZM198.364 151.63V150.58H204.514V153.87H203.194V151.63H198.364ZM205.734 146.89V147.97H204.514V150.17H203.194V144.65H204.514V146.89H205.734ZM209.824 146.62V147.13C209.824 148.63 210.564 150.22 212.104 150.86L211.384 151.9C210.314 151.44 209.584 150.54 209.174 149.43C208.764 150.63 208.024 151.64 206.944 152.13L206.194 151.08C207.734 150.39 208.484 148.7 208.484 147.13V146.62H206.564V145.53H211.724V146.62H209.824ZM212.574 144.65H213.894V153.86H212.574V144.65ZM220.613 145.4V146.34H215.383V145.4H217.343V144.61H218.663V145.4H220.613ZM217.003 148.01C217.003 148.36 217.383 148.55 218.003 148.55C218.623 148.55 218.993 148.36 218.993 148.01C218.993 147.65 218.623 147.46 218.003 147.46C217.383 147.46 217.003 147.65 217.003 148.01ZM220.843 149.64L220.943 150.54C219.033 150.9 216.863 150.94 215.293 150.95L215.153 149.94C215.803 149.94 216.553 149.94 217.343 149.91V149.38C216.363 149.23 215.753 148.73 215.753 148.01C215.753 147.12 216.643 146.58 218.003 146.58C219.353 146.58 220.243 147.12 220.243 148.01C220.243 148.73 219.633 149.23 218.663 149.38V149.85C219.413 149.8 220.143 149.74 220.843 149.64ZM217.753 151.39V152.65H222.873V153.7H216.433V151.39H217.753ZM222.563 147.66H223.723V148.74H222.563V151.84H221.243V144.64H222.563V147.66ZM230.693 146.01C229.483 146.01 228.713 146.37 228.713 147.02C228.713 147.68 229.483 148.03 230.693 148.03C231.893 148.03 232.663 147.68 232.663 147.02C232.663 146.37 231.893 146.01 230.693 146.01ZM230.693 149.08C228.723 149.08 227.363 148.28 227.363 147.02C227.363 145.77 228.723 144.96 230.693 144.96C232.653 144.96 234.023 145.77 234.023 147.02C234.023 148.28 232.653 149.08 230.693 149.08ZM234.883 149.77V150.84H232.953V153.85H231.613V150.84H229.763V153.85H228.433V150.84H226.543V149.77H234.883ZM239.102 146.62V147.13C239.102 148.63 239.842 150.22 241.382 150.86L240.662 151.9C239.592 151.44 238.862 150.54 238.452 149.43C238.042 150.63 237.302 151.64 236.222 152.13L235.472 151.08C237.012 150.39 237.762 148.7 237.762 147.13V146.62H235.842V145.53H241.002V146.62H239.102ZM241.852 144.65H243.172V153.86H241.852V144.65ZM250.301 145.77V146.8H244.781V145.77H246.871V144.76H248.191V145.77H250.301ZM248.561 148.91C248.561 148.42 248.151 148.16 247.551 148.16C246.941 148.16 246.531 148.42 246.531 148.91C246.531 149.39 246.941 149.65 247.551 149.65C248.151 149.65 248.561 149.39 248.561 148.91ZM245.281 148.91C245.281 147.86 246.221 147.16 247.551 147.16C248.871 147.16 249.811 147.86 249.811 148.91C249.811 149.94 248.871 150.65 247.551 150.65C246.221 150.65 245.281 149.94 245.281 148.91ZM244.751 152.28L244.591 151.21C246.271 151.21 248.491 151.22 250.431 150.96L250.521 151.92C248.481 152.3 246.381 152.29 244.751 152.28ZM250.901 144.65H252.221V153.86H250.901V144.65Z" fill="#FF7D7D"/>
<path d="M116.176 23.936H119.344V46.112H116.176V23.936ZM107.464 25.496C110.8 25.496 113.272 28.52 113.272 33.368C113.272 38.24 110.8 41.288 107.464 41.288C104.128 41.288 101.656 38.24 101.656 33.368C101.656 28.52 104.128 25.496 107.464 25.496ZM107.464 28.352C105.832 28.352 104.704 30.104 104.704 33.368C104.704 36.656 105.832 38.408 107.464 38.408C109.096 38.408 110.224 36.656 110.224 33.368C110.224 30.104 109.096 28.352 107.464 28.352ZM124.478 38.096L123.302 35.528C128.318 34.832 130.79 32.144 131.006 29.528H124.358V27.008H131.054V24.296H134.222V27.008H140.918V29.528H134.27C134.486 32.144 136.958 34.832 141.95 35.528L140.798 38.096C136.886 37.52 134.102 35.744 132.638 33.368C131.174 35.744 128.39 37.52 124.478 38.096ZM122.63 40.952H142.646V43.52H122.63V40.952ZM148.26 34.424V38.528C151.38 38.504 153.924 38.384 156.804 37.952L157.092 40.472C153.732 40.976 150.756 41.072 146.964 41.072H145.092V25.784H155.484V28.352H148.26V31.952H155.172V34.424H148.26ZM164.748 32.336V34.952H161.532V46.088H158.364V23.96H161.532V32.336H164.748ZM180.994 23.96H184.186V36.488H180.994V23.96ZM169.474 37.472H184.186V45.8H169.474V37.472ZM181.09 39.944H172.594V43.328H181.09V39.944ZM172.162 24.968C175.594 24.968 178.162 27.176 178.162 30.296C178.162 33.392 175.594 35.6 172.162 35.6C168.73 35.6 166.138 33.392 166.138 30.296C166.138 27.176 168.73 24.968 172.162 24.968ZM172.162 27.608C170.482 27.608 169.234 28.616 169.234 30.296C169.234 31.952 170.482 32.96 172.162 32.96C173.818 32.96 175.066 31.952 175.066 30.296C175.066 28.616 173.818 27.608 172.162 27.608ZM206.722 26.408V28.88H193.45V26.408H198.514V24.032H201.682V26.408H206.722ZM197.626 33.92C197.626 35.048 198.634 35.672 200.098 35.672C201.586 35.672 202.57 35.048 202.57 33.92C202.57 32.768 201.586 32.144 200.098 32.144C198.634 32.144 197.626 32.768 197.626 33.92ZM201.682 37.904V39.656C203.482 39.56 205.282 39.44 207.01 39.2L207.25 41.48C202.426 42.368 197.314 42.392 193.402 42.392L193.018 39.824C194.674 39.824 196.546 39.824 198.514 39.776V37.904C196.138 37.448 194.602 35.96 194.602 33.92C194.602 31.424 196.858 29.744 200.098 29.744C203.314 29.744 205.57 31.424 205.57 33.92C205.57 35.96 204.034 37.448 201.682 37.904ZM208.162 23.96H211.33V46.064H208.162V23.96ZM228.032 33.584L226.496 36.08C224.024 35.288 222.32 33.728 221.336 31.736C220.328 33.872 218.552 35.6 215.96 36.44L214.4 33.944C218.096 32.768 219.68 29.888 219.68 27.08V24.968H222.896V27.08C222.896 29.84 224.456 32.48 228.032 33.584ZM217.784 40.64V38.096H232.856V46.088H229.664V40.64H217.784ZM229.664 23.96H232.856V37.136H229.664V23.96Z" fill="#FE5858"/>
<rect x="27" y="23" width="62" height="24" rx="8" fill="#FE5858"/>
<path d="M40.0909 41H36.1477V29.3636H40.1705C41.3258 29.3636 42.3182 29.5966 43.1477 30.0625C43.9811 30.5246 44.6212 31.1894 45.0682 32.0568C45.5152 32.9242 45.7386 33.9621 45.7386 35.1705C45.7386 36.3826 45.5133 37.4242 45.0625 38.2955C44.6155 39.1667 43.9697 39.8352 43.125 40.3011C42.2841 40.767 41.2727 41 40.0909 41ZM38.2557 39.1761H39.9886C40.7992 39.1761 41.4754 39.0284 42.017 38.733C42.5587 38.4337 42.9659 37.9886 43.2386 37.3977C43.5114 36.803 43.6477 36.0606 43.6477 35.1705C43.6477 34.2803 43.5114 33.5417 43.2386 32.9545C42.9659 32.3636 42.5625 31.9223 42.0284 31.6307C41.4981 31.3352 40.839 31.1875 40.0511 31.1875H38.2557V39.1761ZM56.2691 34.3352V36.0284H51.0305V34.3352H56.2691ZM66.0396 41.2216C65.104 41.2216 64.301 40.9848 63.6305 40.5114C62.9638 40.0341 62.4506 39.3466 62.0907 38.4489C61.7347 37.5473 61.5566 36.4621 61.5566 35.1932C61.5604 33.9242 61.7404 32.8447 62.0964 31.9545C62.4563 31.0606 62.9695 30.3788 63.6362 29.9091C64.3066 29.4394 65.1078 29.2045 66.0396 29.2045C66.9714 29.2045 67.7726 29.4394 68.443 29.9091C69.1135 30.3788 69.6267 31.0606 69.9828 31.9545C70.3426 32.8485 70.5226 33.928 70.5226 35.1932C70.5226 36.4659 70.3426 37.553 69.9828 38.4545C69.6267 39.3523 69.1135 40.0379 68.443 40.5114C67.7763 40.9848 66.9752 41.2216 66.0396 41.2216ZM66.0396 39.4432C66.7669 39.4432 67.3407 39.0852 67.7612 38.3693C68.1854 37.6496 68.3976 36.5909 68.3976 35.1932C68.3976 34.2689 68.301 33.4924 68.1078 32.8636C67.9146 32.2348 67.6419 31.7614 67.2896 31.4432C66.9373 31.1212 66.5207 30.9602 66.0396 30.9602C65.3161 30.9602 64.7441 31.3201 64.3237 32.0398C63.9032 32.7557 63.6911 33.8068 63.6873 35.1932C63.6835 36.1212 63.7763 36.9015 63.9657 37.5341C64.1589 38.1667 64.4316 38.6439 64.7839 38.9659C65.1362 39.2841 65.5548 39.4432 66.0396 39.4432ZM76.3915 41.2216C75.4559 41.2216 74.6528 40.9848 73.9824 40.5114C73.3157 40.0341 72.8025 39.3466 72.4426 38.4489C72.0866 37.5473 71.9085 36.4621 71.9085 35.1932C71.9123 33.9242 72.0922 32.8447 72.4483 31.9545C72.8081 31.0606 73.3214 30.3788 73.9881 29.9091C74.6585 29.4394 75.4597 29.2045 76.3915 29.2045C77.3233 29.2045 78.1244 29.4394 78.7949 29.9091C79.4653 30.3788 79.9786 31.0606 80.3347 31.9545C80.6945 32.8485 80.8744 33.928 80.8744 35.1932C80.8744 36.4659 80.6945 37.553 80.3347 38.4545C79.9786 39.3523 79.4653 40.0379 78.7949 40.5114C78.1282 40.9848 77.3271 41.2216 76.3915 41.2216ZM76.3915 39.4432C77.1188 39.4432 77.6926 39.0852 78.1131 38.3693C78.5373 37.6496 78.7494 36.5909 78.7494 35.1932C78.7494 34.2689 78.6528 33.4924 78.4597 32.8636C78.2665 32.2348 77.9938 31.7614 77.6415 31.4432C77.2892 31.1212 76.8725 30.9602 76.3915 30.9602C75.668 30.9602 75.096 31.3201 74.6756 32.0398C74.2551 32.7557 74.043 33.8068 74.0392 35.1932C74.0354 36.1212 74.1282 36.9015 74.3176 37.5341C74.5108 38.1667 74.7835 38.6439 75.1358 38.9659C75.4881 39.2841 75.9066 39.4432 76.3915 39.4432Z" fill="#FFF6F6"/>
<path fill-rule="evenodd" clip-rule="evenodd" d="M308 46.25V26C308 25.2044 308.316 24.4413 308.879 23.8787C309.441 23.3161 310.204 23 311 23H323C323.796 23 324.559 23.3161 325.121 23.8787C325.684 24.4413 326 25.2044 326 26V46.25C326 46.3802 325.966 46.5083 325.902 46.6215C325.837 46.7347 325.745 46.8291 325.633 46.8956C325.521 46.962 325.393 46.9982 325.263 47.0004C325.133 47.0027 325.004 46.971 324.89 46.9085L317 42.6035L309.11 46.9085C308.996 46.971 308.867 47.0027 308.737 47.0004C308.607 46.9982 308.479 46.962 308.367 46.8956C308.255 46.8291 308.163 46.7347 308.098 46.6215C308.034 46.5083 308 46.3802 308 46.25ZM317.24 29.15C317.218 29.105 317.184 29.0671 317.142 29.0406C317.099 29.0141 317.05 29 317 29C316.95 29 316.901 29.0141 316.858 29.0406C316.816 29.0671 316.782 29.105 316.76 29.15L315.809 31.0775C315.79 31.1165 315.762 31.1503 315.727 31.1759C315.692 31.2015 315.651 31.2182 315.608 31.2245L313.478 31.5335C313.429 31.5409 313.383 31.5619 313.345 31.594C313.307 31.6261 313.279 31.6681 313.264 31.7153C313.249 31.7625 313.247 31.813 313.259 31.8612C313.271 31.9093 313.296 31.9533 313.331 31.988L314.87 33.4895C314.933 33.551 314.962 33.6395 314.947 33.7265L314.585 35.8475C314.577 35.8965 314.583 35.9468 314.601 35.9927C314.62 36.0386 314.651 36.0784 314.692 36.1075C314.732 36.1367 314.779 36.154 314.829 36.1576C314.878 36.1613 314.928 36.151 314.972 36.128L316.877 35.126C316.915 35.106 316.958 35.0956 317.001 35.0956C317.044 35.0956 317.086 35.106 317.125 35.126L319.029 36.128C319.073 36.1506 319.123 36.1605 319.172 36.1567C319.221 36.1529 319.269 36.1355 319.309 36.1064C319.349 36.0773 319.38 36.0377 319.398 35.992C319.417 35.9463 319.423 35.8963 319.415 35.8475L319.052 33.725C319.044 33.6824 319.047 33.6385 319.06 33.5972C319.073 33.556 319.096 33.5185 319.127 33.488L320.669 31.9865C320.704 31.9518 320.729 31.9078 320.741 31.8597C320.753 31.8115 320.751 31.761 320.736 31.7138C320.721 31.6666 320.693 31.6246 320.655 31.5925C320.617 31.5604 320.571 31.5394 320.522 31.532L318.392 31.223C318.349 31.2167 318.308 31.2 318.273 31.1744C318.238 31.1488 318.21 31.115 318.191 31.076L317.24 29.15Z" fill="#FE5858"/>
<defs>
<filter id="filter0_d_2009_782" x="0" y="0" width="353" height="188" filterUnits="userSpaceOnUse" color-interpolation-filters="sRGB">
<feFlood flood-opacity="0" result="BackgroundImageFix"/>
<feColorMatrix in="SourceAlpha" type="matrix" values="0 0 0 0 0 0 0 0 0 0 0 0 0 0 0 0 0 0 127 0" result="hardAlpha"/>
<feOffset dy="4"/>
<feGaussianBlur stdDeviation="2"/>
<feComposite in2="hardAlpha" operator="out"/>
<feColorMatrix type="matrix" values="0 0 0 0 0.839216 0 0 0 0 0.286275 0 0 0 0 0.286275 0 0 0 0.15 0"/>
<feBlend mode="normal" in2="BackgroundImageFix" result="effect1_dropShadow_2009_782"/>
<feBlend mode="normal" in="SourceGraphic" in2="effect1_dropShadow_2009_782" result="shape"/>
</filter>
</defs>
</svg>
