<svg width="353" height="188" viewBox="0 0 353 188" fill="none" xmlns="http://www.w3.org/2000/svg">
<g filter="url(#filter0_d_2009_742)">
<rect x="4" width="345" height="180" rx="8" fill="#FFF6F6"/>
<path d="M78.524 23.264H81.956V47.288H78.524V23.264ZM69.086 24.954C72.7 24.954 75.378 28.23 75.378 33.482C75.378 38.76 72.7 42.062 69.086 42.062C65.472 42.062 62.794 38.76 62.794 33.482C62.794 28.23 65.472 24.954 69.086 24.954ZM69.086 28.048C67.318 28.048 66.096 29.946 66.096 33.482C66.096 37.044 67.318 38.942 69.086 38.942C70.854 38.942 72.076 37.044 72.076 33.482C72.076 29.946 70.854 28.048 69.086 28.048ZM87.518 38.604L86.244 35.822C91.678 35.068 94.356 32.156 94.59 29.322H87.388V26.592H94.642V23.654H98.074V26.592H105.328V29.322H98.126C98.36 32.156 101.038 35.068 106.446 35.822L105.198 38.604C100.96 37.98 97.944 36.056 96.358 33.482C94.772 36.056 91.756 37.98 87.518 38.604ZM85.516 41.698H107.2V44.48H85.516V41.698ZM113.282 34.626V39.072C116.662 39.046 119.418 38.916 122.538 38.448L122.85 41.178C119.21 41.724 115.986 41.828 111.878 41.828H109.85V25.266H121.108V28.048H113.282V31.948H120.77V34.626H113.282ZM131.144 32.364V35.198H127.66V47.262H124.228V23.29H127.66V32.364H131.144ZM148.744 23.29H152.202V36.862H148.744V23.29ZM136.264 37.928H152.202V46.95H136.264V37.928ZM148.848 40.606H139.644V44.272H148.848V40.606ZM139.176 24.382C142.894 24.382 145.676 26.774 145.676 30.154C145.676 33.508 142.894 35.9 139.176 35.9C135.458 35.9 132.65 33.508 132.65 30.154C132.65 26.774 135.458 24.382 139.176 24.382ZM139.176 27.242C137.356 27.242 136.004 28.334 136.004 30.154C136.004 31.948 137.356 33.04 139.176 33.04C140.97 33.04 142.322 31.948 142.322 30.154C142.322 28.334 140.97 27.242 139.176 27.242ZM176.615 25.942V28.62H162.237V25.942H167.723V23.368H171.155V25.942H176.615ZM166.761 34.08C166.761 35.302 167.853 35.978 169.439 35.978C171.051 35.978 172.117 35.302 172.117 34.08C172.117 32.832 171.051 32.156 169.439 32.156C167.853 32.156 166.761 32.832 166.761 34.08ZM171.155 38.396V40.294C173.105 40.19 175.055 40.06 176.927 39.8L177.187 42.27C171.961 43.232 166.423 43.258 162.185 43.258L161.769 40.476C163.563 40.476 165.591 40.476 167.723 40.424V38.396C165.149 37.902 163.485 36.29 163.485 34.08C163.485 31.376 165.929 29.556 169.439 29.556C172.923 29.556 175.367 31.376 175.367 34.08C175.367 36.29 173.703 37.902 171.155 38.396ZM178.175 23.29H181.607V47.236H178.175V23.29ZM199.701 33.716L198.037 36.42C195.359 35.562 193.513 33.872 192.447 31.714C191.355 34.028 189.431 35.9 186.623 36.81L184.933 34.106C188.937 32.832 190.653 29.712 190.653 26.67V24.382H194.137V26.67C194.137 29.66 195.827 32.52 199.701 33.716ZM188.599 41.36V38.604H204.927V47.262H201.469V41.36H188.599ZM201.469 23.29H204.927V37.564H201.469V23.29Z" fill="#FE5858"/>
<path d="M66.3352 88.2216C65.3996 88.2216 64.5966 87.9848 63.9261 87.5114C63.2595 87.0341 62.7462 86.3466 62.3864 85.4489C62.0303 84.5473 61.8523 83.4621 61.8523 82.1932C61.8561 80.9242 62.036 79.8447 62.392 78.9545C62.7519 78.0606 63.2652 77.3788 63.9318 76.9091C64.6023 76.4394 65.4034 76.2045 66.3352 76.2045C67.267 76.2045 68.0682 76.4394 68.7386 76.9091C69.4091 77.3788 69.9223 78.0606 70.2784 78.9545C70.6383 79.8485 70.8182 80.928 70.8182 82.1932C70.8182 83.4659 70.6383 84.553 70.2784 85.4545C69.9223 86.3523 69.4091 87.0379 68.7386 87.5114C68.072 87.9848 67.2708 88.2216 66.3352 88.2216ZM66.3352 86.4432C67.0625 86.4432 67.6364 86.0852 68.0568 85.3693C68.4811 84.6496 68.6932 83.5909 68.6932 82.1932C68.6932 81.2689 68.5966 80.4924 68.4034 79.8636C68.2102 79.2348 67.9375 78.7614 67.5852 78.4432C67.233 78.1212 66.8163 77.9602 66.3352 77.9602C65.6117 77.9602 65.0398 78.3201 64.6193 79.0398C64.1989 79.7557 63.9867 80.8068 63.983 82.1932C63.9792 83.1212 64.072 83.9015 64.2614 84.5341C64.4545 85.1667 64.7273 85.6439 65.0795 85.9659C65.4318 86.2841 65.8504 86.4432 66.3352 86.4432ZM76.5621 88.1591C75.7439 88.1591 75.0166 88.0189 74.3803 87.7386C73.7477 87.4583 73.2477 87.0682 72.8803 86.5682C72.5129 86.0682 72.3178 85.4905 72.2951 84.8352H74.4314C74.4504 85.1496 74.5545 85.4242 74.7439 85.6591C74.9333 85.8902 75.1852 86.0701 75.4996 86.1989C75.814 86.3277 76.1663 86.392 76.5564 86.392C76.9731 86.392 77.3424 86.3201 77.6644 86.1761C77.9863 86.0284 78.2382 85.8239 78.4201 85.5625C78.6019 85.3011 78.6909 85 78.6871 84.6591C78.6909 84.3068 78.6 83.9962 78.4144 83.7273C78.2288 83.4583 77.9598 83.2481 77.6076 83.0966C77.2591 82.9451 76.8386 82.8693 76.3462 82.8693H75.3178V81.2443H76.3462C76.7515 81.2443 77.1057 81.1742 77.4087 81.0341C77.7155 80.8939 77.956 80.697 78.1303 80.4432C78.3045 80.1856 78.3898 79.8883 78.386 79.5511C78.3898 79.2216 78.3159 78.9356 78.1644 78.6932C78.0166 78.447 77.8064 78.2557 77.5337 78.1193C77.2648 77.983 76.9485 77.9148 76.5848 77.9148C76.2288 77.9148 75.8992 77.9792 75.5962 78.108C75.2932 78.2367 75.0488 78.4205 74.8632 78.6591C74.6776 78.8939 74.5791 79.1742 74.5678 79.5H72.5394C72.5545 78.8485 72.742 78.2765 73.1019 77.7841C73.4655 77.2879 73.9504 76.9015 74.5564 76.625C75.1625 76.3447 75.8424 76.2045 76.5962 76.2045C77.3727 76.2045 78.047 76.3504 78.6189 76.642C79.1947 76.9299 79.6398 77.3182 79.9541 77.8068C80.2685 78.2955 80.4257 78.8352 80.4257 79.4261C80.4295 80.0814 80.2363 80.6307 79.8462 81.0739C79.4598 81.517 78.9523 81.8068 78.3235 81.9432V82.0341C79.1416 82.1477 79.7685 82.4508 80.2041 82.9432C80.6435 83.4318 80.8613 84.0398 80.8576 84.767C80.8576 85.4186 80.672 86.0019 80.3007 86.517C79.9333 87.0284 79.4257 87.4299 78.778 87.7216C78.1341 88.0133 77.3954 88.1591 76.5621 88.1591ZM89.8218 81.456H92.4298V74.64H94.5418V83.168H92.4298V82.736H89.8218V81.456ZM86.8298 76.24C85.7738 76.24 85.1018 76.512 85.1018 77.072C85.1018 77.616 85.7738 77.888 86.8298 77.888C87.8858 77.888 88.5418 77.616 88.5418 77.072C88.5418 76.512 87.8858 76.24 86.8298 76.24ZM86.8298 79.248C84.6218 79.248 83.1498 78.4 83.1498 77.072C83.1498 75.712 84.6218 74.864 86.8298 74.864C89.0218 74.864 90.5098 75.712 90.5098 77.072C90.5098 78.4 89.0218 79.248 86.8298 79.248ZM85.7098 83.184V81.264C84.5418 81.28 83.4058 81.28 82.3658 81.28L82.1578 79.84C84.9738 79.84 88.4778 79.84 91.5658 79.504L91.6938 80.816C90.4138 80.992 89.1178 81.104 87.8218 81.168V83.184H85.7098ZM86.3498 87.824H94.8778V89.264H84.2698V85.744H92.4618V85.04H84.2538V83.616H94.5418V87.072H86.3498V87.824ZM100.535 88V86.4773L104.575 82.517C104.961 82.1269 105.283 81.7803 105.541 81.4773C105.799 81.1742 105.992 80.8807 106.121 80.5966C106.249 80.3125 106.314 80.0095 106.314 79.6875C106.314 79.3201 106.23 79.0057 106.064 78.7443C105.897 78.4792 105.668 78.2746 105.376 78.1307C105.085 77.9867 104.753 77.9148 104.382 77.9148C103.999 77.9148 103.664 77.9943 103.376 78.1534C103.088 78.3087 102.865 78.5303 102.706 78.8182C102.55 79.1061 102.473 79.4489 102.473 79.8466H100.467C100.467 79.108 100.636 78.4659 100.973 77.9205C101.31 77.375 101.774 76.9527 102.365 76.6534C102.96 76.3542 103.641 76.2045 104.41 76.2045C105.191 76.2045 105.876 76.3504 106.467 76.642C107.058 76.9337 107.516 77.3333 107.842 77.8409C108.172 78.3485 108.336 78.928 108.336 79.5795C108.336 80.0152 108.253 80.4432 108.086 80.8636C107.92 81.2841 107.626 81.75 107.206 82.2614C106.789 82.7727 106.204 83.392 105.45 84.1193L103.444 86.1591V86.2386H108.513V88H100.535ZM114.329 88.1591C113.511 88.1591 112.784 88.0189 112.147 87.7386C111.515 87.4583 111.015 87.0682 110.647 86.5682C110.28 86.0682 110.085 85.4905 110.062 84.8352H112.198C112.217 85.1496 112.321 85.4242 112.511 85.6591C112.7 85.8902 112.952 86.0701 113.266 86.1989C113.581 86.3277 113.933 86.392 114.323 86.392C114.74 86.392 115.109 86.3201 115.431 86.1761C115.753 86.0284 116.005 85.8239 116.187 85.5625C116.369 85.3011 116.458 85 116.454 84.6591C116.458 84.3068 116.367 83.9962 116.181 83.7273C115.996 83.4583 115.727 83.2481 115.374 83.0966C115.026 82.9451 114.605 82.8693 114.113 82.8693H113.085V81.2443H114.113C114.518 81.2443 114.873 81.1742 115.176 81.0341C115.482 80.8939 115.723 80.697 115.897 80.4432C116.071 80.1856 116.157 79.8883 116.153 79.5511C116.157 79.2216 116.083 78.9356 115.931 78.6932C115.784 78.447 115.573 78.2557 115.301 78.1193C115.032 77.983 114.715 77.9148 114.352 77.9148C113.996 77.9148 113.666 77.9792 113.363 78.108C113.06 78.2367 112.816 78.4205 112.63 78.6591C112.445 78.8939 112.346 79.1742 112.335 79.5H110.306C110.321 78.8485 110.509 78.2765 110.869 77.7841C111.232 77.2879 111.717 76.9015 112.323 76.625C112.929 76.3447 113.609 76.2045 114.363 76.2045C115.14 76.2045 115.814 76.3504 116.386 76.642C116.962 76.9299 117.407 77.3182 117.721 77.8068C118.035 78.2955 118.193 78.8352 118.193 79.4261C118.196 80.0814 118.003 80.6307 117.613 81.0739C117.227 81.517 116.719 81.8068 116.09 81.9432V82.0341C116.909 82.1477 117.535 82.4508 117.971 82.9432C118.41 83.4318 118.628 84.0398 118.624 84.767C118.624 85.4186 118.439 86.0019 118.068 86.517C117.7 87.0284 117.193 87.4299 116.545 87.7216C115.901 88.0133 115.162 88.1591 114.329 88.1591ZM132.149 74.64V82.016H130.021V74.64H132.149ZM122.165 78.432C122.165 79.488 122.981 80.096 124.069 80.096C125.157 80.096 125.941 79.488 125.941 78.432C125.941 77.392 125.157 76.768 124.069 76.768C122.981 76.768 122.165 77.392 122.165 78.432ZM127.989 78.432C127.989 80.4 126.309 81.808 124.069 81.808C121.813 81.808 120.117 80.4 120.117 78.432C120.117 76.48 121.813 75.072 124.069 75.072C126.309 75.072 127.989 76.48 127.989 78.432ZM124.437 87.568H132.517V89.216H122.341V85.136H130.053V84.24H122.325V82.624H132.149V86.64H124.437V87.568ZM143.035 76.3636V88H140.927V78.4148H140.859L138.137 80.1534V78.2216L141.029 76.3636H143.035ZM145.459 85.8409V84.1648L150.397 76.3636H151.795V78.75H150.942L147.619 84.017V84.108H154.511V85.8409H145.459ZM151.011 88V85.3295L151.033 84.5795V76.3636H153.022V88H151.011ZM157.296 86.6023C156.951 86.6023 156.656 86.4811 156.409 86.2386C156.163 85.9924 156.042 85.697 156.046 85.3523C156.042 85.0114 156.163 84.7197 156.409 84.4773C156.656 84.2348 156.951 84.1136 157.296 84.1136C157.629 84.1136 157.919 84.2348 158.165 84.4773C158.415 84.7197 158.542 85.0114 158.546 85.3523C158.542 85.5833 158.481 85.7936 158.364 85.983C158.25 86.1723 158.099 86.3239 157.909 86.4375C157.724 86.5473 157.519 86.6023 157.296 86.6023ZM157.296 80.8352C156.951 80.8352 156.656 80.714 156.409 80.4716C156.163 80.2254 156.042 79.9299 156.046 79.5852C156.042 79.2443 156.163 78.9527 156.409 78.7102C156.656 78.464 156.951 78.3409 157.296 78.3409C157.629 78.3409 157.919 78.464 158.165 78.7102C158.415 78.9527 158.542 79.2443 158.546 79.5852C158.542 79.8125 158.481 80.0208 158.364 80.2102C158.25 80.3996 158.099 80.5511 157.909 80.6648C157.724 80.7784 157.519 80.8352 157.296 80.8352ZM164.628 88.2216C163.692 88.2216 162.889 87.9848 162.219 87.5114C161.552 87.0341 161.039 86.3466 160.679 85.4489C160.323 84.5473 160.145 83.4621 160.145 82.1932C160.149 80.9242 160.328 79.8447 160.685 78.9545C161.044 78.0606 161.558 77.3788 162.224 76.9091C162.895 76.4394 163.696 76.2045 164.628 76.2045C165.56 76.2045 166.361 76.4394 167.031 76.9091C167.702 77.3788 168.215 78.0606 168.571 78.9545C168.931 79.8485 169.111 80.928 169.111 82.1932C169.111 83.4659 168.931 84.553 168.571 85.4545C168.215 86.3523 167.702 87.0379 167.031 87.5114C166.364 87.9848 165.563 88.2216 164.628 88.2216ZM164.628 86.4432C165.355 86.4432 165.929 86.0852 166.349 85.3693C166.774 84.6496 166.986 83.5909 166.986 82.1932C166.986 81.2689 166.889 80.4924 166.696 79.8636C166.503 79.2348 166.23 78.7614 165.878 78.4432C165.525 78.1212 165.109 77.9602 164.628 77.9602C163.904 77.9602 163.332 78.3201 162.912 79.0398C162.491 79.7557 162.279 80.8068 162.275 82.1932C162.272 83.1212 162.364 83.9015 162.554 84.5341C162.747 85.1667 163.02 85.6439 163.372 85.9659C163.724 86.2841 164.143 86.4432 164.628 86.4432ZM174.98 88.2216C174.044 88.2216 173.241 87.9848 172.571 87.5114C171.904 87.0341 171.391 86.3466 171.031 85.4489C170.675 84.5473 170.497 83.4621 170.497 82.1932C170.5 80.9242 170.68 79.8447 171.036 78.9545C171.396 78.0606 171.91 77.3788 172.576 76.9091C173.247 76.4394 174.048 76.2045 174.98 76.2045C175.911 76.2045 176.713 76.4394 177.383 76.9091C178.053 77.3788 178.567 78.0606 178.923 78.9545C179.283 79.8485 179.463 80.928 179.463 82.1932C179.463 83.4659 179.283 84.553 178.923 85.4545C178.567 86.3523 178.053 87.0379 177.383 87.5114C176.716 87.9848 175.915 88.2216 174.98 88.2216ZM174.98 86.4432C175.707 86.4432 176.281 86.0852 176.701 85.3693C177.125 84.6496 177.338 83.5909 177.338 82.1932C177.338 81.2689 177.241 80.4924 177.048 79.8636C176.855 79.2348 176.582 78.7614 176.23 78.4432C175.877 78.1212 175.461 77.9602 174.98 77.9602C174.256 77.9602 173.684 78.3201 173.264 79.0398C172.843 79.7557 172.631 80.8068 172.627 82.1932C172.624 83.1212 172.716 83.9015 172.906 84.5341C173.099 85.1667 173.372 85.6439 173.724 85.9659C174.076 86.2841 174.495 86.4432 174.98 86.4432Z" fill="#FE5858"/>
<path d="M62.536 109.048H69.304C69.304 113.592 68.232 117.384 62.744 120.184L61.624 118.552C64.04 117.352 65.464 115.976 66.296 114.36L62.024 114.776L61.752 112.984L66.904 112.68C67.048 112.072 67.16 111.432 67.208 110.728H62.536V109.048ZM75.288 113.256V115H73.224V122.344H71.112V107.624H73.224V113.256H75.288ZM76.9348 109.048H83.7028C83.7028 113.592 82.6308 117.384 77.1428 120.184L76.0228 118.552C78.4388 117.352 79.8628 115.976 80.6948 114.36L76.4228 114.776L76.1508 112.984L81.3028 112.68C81.4468 112.072 81.5588 111.432 81.6068 110.728H76.9348V109.048ZM89.6868 113.256V115H87.6228V122.344H85.5108V107.624H87.6228V113.256H89.6868ZM93.7335 112.456C93.7335 113.96 95.1255 114.84 97.1415 114.84C99.1735 114.84 100.566 113.96 100.566 112.456C100.566 110.952 99.1735 110.072 97.1415 110.072C95.1255 110.072 93.7335 110.952 93.7335 112.456ZM98.1975 118.952H103.83V120.664H90.4855V118.952H96.0855V116.456C93.4935 116.136 91.6535 114.648 91.6535 112.456C91.6535 109.992 94.0055 108.392 97.1415 108.392C100.294 108.392 102.646 109.992 102.646 112.456C102.646 114.648 100.806 116.152 98.1975 116.456V118.952ZM110.487 121H108.237L112.334 109.364H114.936L119.038 121H116.788L113.68 111.75H113.589L110.487 121ZM110.561 116.438H116.697V118.131H110.561V116.438ZM122.359 109.364V121H120.251V109.364H122.359ZM128.199 108.568H133.991C133.991 112.392 132.455 115.048 128.423 116.712L127.431 115.208C129.063 114.552 130.167 113.768 130.887 112.824L127.847 113.144L127.575 111.48L131.655 111.272C131.767 110.936 131.831 110.616 131.879 110.248H128.199V108.568ZM132.167 118.504V120.552H138.007V118.504H132.167ZM130.087 122.2V116.84H140.071V122.2H130.087ZM138.071 107.64H140.071V116.264H138.071V112.776H136.807V116.152H134.839V107.896H136.807V111.08H138.071V107.64ZM145.509 110.616V117.288C145.989 117.272 146.469 117.256 146.965 117.224V110.616H145.509ZM148.997 110.616V117.096C149.589 117.064 150.181 117 150.741 116.936L150.869 118.472C147.925 118.984 144.581 119.048 142.069 119.048L141.845 117.336C142.357 117.336 142.901 117.336 143.461 117.336V110.616H142.245V108.936H150.373V110.616H148.997ZM152.165 107.64H154.277V122.392H152.165V114.696H149.973V112.984H152.165V107.64ZM169.188 114.568L168.292 116.344C165.732 115.832 163.844 114.408 162.9 112.536C161.956 114.408 160.084 115.848 157.524 116.344L156.628 114.568C159.94 114.008 161.78 111.672 161.78 109.56V108.504H164.036V109.56C164.036 111.72 165.86 114.008 169.188 114.568ZM156.308 118.872H169.652V120.584H156.308V118.872Z" fill="#FE5858"/>
<path fill-rule="evenodd" clip-rule="evenodd" d="M311.625 139.9C311.802 139.9 311.978 139.935 312.142 140.003C312.305 140.071 312.454 140.17 312.579 140.296L319.329 147.046C319.454 147.171 319.554 147.32 319.622 147.484C319.69 147.648 319.725 147.823 319.725 148.001C319.725 148.178 319.69 148.354 319.622 148.517C319.554 148.681 319.454 148.83 319.329 148.956L312.579 155.706C312.455 155.835 312.306 155.939 312.141 156.01C311.976 156.082 311.798 156.119 311.619 156.121C311.439 156.123 311.261 156.089 311.094 156.021C310.928 155.953 310.777 155.853 310.65 155.725C310.523 155.598 310.422 155.447 310.354 155.281C310.287 155.114 310.253 154.936 310.255 154.756C310.257 154.577 310.295 154.399 310.366 154.234C310.438 154.069 310.541 153.92 310.671 153.796L316.466 148L310.671 142.206C310.482 142.017 310.353 141.776 310.301 141.514C310.249 141.252 310.275 140.981 310.377 140.734C310.479 140.487 310.653 140.276 310.875 140.128C311.097 139.979 311.358 139.9 311.625 139.9Z" fill="#FE5858"/>
<path d="M51.875 74.5H50V75.625C50 75.8313 49.8313 76 49.625 76H48.875C48.6687 76 48.5 75.8313 48.5 75.625V74.5H39.5V75.625C39.5 75.8313 39.3313 76 39.125 76H38.375C38.1687 76 38 75.8313 38 75.625V74.5H36.125C35.0938 74.5 34.25 75.3438 34.25 76.375V89.125C34.25 90.1562 35.0938 91 36.125 91H51.875C52.9062 91 53.75 90.1562 53.75 89.125V76.375C53.75 75.3438 52.9062 74.5 51.875 74.5ZM52.25 88.5625C52.25 89.0781 51.8281 89.5 51.3125 89.5H36.6875C36.1719 89.5 35.75 89.0781 35.75 88.5625V80.125C35.75 79.9187 35.9187 79.75 36.125 79.75H51.875C52.0813 79.75 52.25 79.9187 52.25 80.125V88.5625ZM39.5 73.375C39.5 73.1687 39.3313 73 39.125 73H38.375C38.1687 73 38 73.1687 38 73.375V74.5H39.5V73.375ZM50 73.375C50 73.1687 49.8313 73 49.625 73H48.875C48.6687 73 48.5 73.1687 48.5 73.375V74.5H50V73.375Z" fill="#FE5858"/>
<path d="M43.5714 103C38.8569 103 35 106.78 35 111.4C35 117.7 43.5714 127 43.5714 127C43.5714 127 52.1429 117.7 52.1429 111.4C52.1429 106.78 48.2859 103 43.5714 103ZM43.5714 114.4C41.8574 114.4 40.5101 113.08 40.5101 111.4C40.5101 109.72 41.8573 108.4 43.5714 108.4C45.2856 108.4 46.6327 109.72 46.6327 111.4C46.6327 113.08 45.2855 114.4 43.5714 114.4Z" fill="#FE5858"/>
<path d="M63.616 141.488H70.432C70.432 145.408 67.952 148.064 63.568 149.184L62.768 147.536C66.032 146.72 67.872 145.104 68.176 143.152H63.616V141.488ZM67.264 151.136V153.552H72.848V151.136H67.264ZM65.184 155.2V149.472H74.928V155.2H65.184ZM72.8 140.656H74.928V148.848H72.8V140.656ZM87.2948 144.656H84.2388C83.3268 146.976 81.2628 148.56 78.0148 149.472L77.1988 147.808C80.5588 146.912 82.1748 145.328 82.4468 143.328H77.9988V141.632H84.7508C84.7508 142.096 84.7188 142.544 84.6548 142.976H87.2948V140.64H89.4068V149.12H87.2948V147.712H84.0468V146.016H87.2948V144.656ZM84.5428 153.664C86.3508 153.664 87.4228 153.2 87.4228 152.304C87.4228 151.408 86.3508 150.944 84.5428 150.944C82.7188 150.944 81.6468 151.408 81.6468 152.304C81.6468 153.2 82.7188 153.664 84.5428 153.664ZM84.5428 149.312C87.5348 149.312 89.5028 150.464 89.5028 152.304C89.5028 154.144 87.5348 155.296 84.5428 155.296C81.5348 155.296 79.5668 154.144 79.5668 152.304C79.5668 150.464 81.5348 149.312 84.5428 149.312ZM102.238 140.624H104.238V155.36H102.238V148H101.038V154.704H99.0695V150.432L97.8855 152.016C96.5735 151.312 95.7095 150.128 95.1975 148.656C94.7175 150.352 93.8535 151.728 92.4775 152.56L91.2135 150.96C93.4055 149.68 94.1095 147.072 94.1095 144.24V143.84H91.6935V142.128H98.3655V143.84H96.1575V144.24C96.1575 146.816 96.8935 149.264 99.0695 150.4V140.864H101.038V146.272H102.238V140.624Z" fill="#FE5858"/>
<path d="M50.3636 147.436C52.1636 147.436 53.6364 145.988 53.6364 144.218C53.6364 142.448 52.1636 141 50.3636 141C48.5637 141 47.0909 142.448 47.0909 144.218C47.0909 145.988 48.5637 147.436 50.3636 147.436ZM41.6364 147.436C43.4363 147.436 44.9091 145.988 44.9091 144.218C44.9091 142.448 43.4363 141 41.6364 141C39.8364 141 38.3636 142.448 38.3636 144.218C38.3636 145.988 39.8364 147.436 41.6364 147.436ZM41.6364 149.796C39.0726 149.796 34 151.03 34 153.551V156.447H49.4286V153.551C49.4286 151.03 44.2001 149.796 41.6364 149.796ZM50.3636 150.386C50.0366 150.386 49.8105 150.386 49.4286 150.44C50.6835 151.352 51.1429 151.941 51.1429 153.551V156.447H58V153.551C58 151.03 52.9274 150.386 50.3636 150.386Z" fill="#FE5858"/>
<path d="M113.01 145.18H117.27C117.27 147.63 115.72 149.29 112.98 149.99L112.48 148.96C114.52 148.45 115.67 147.44 115.86 146.22H113.01V145.18ZM115.29 151.21V152.72H118.78V151.21H115.29ZM113.99 153.75V150.17H120.08V153.75H113.99ZM118.75 144.66H120.08V149.78H118.75V144.66ZM126.639 147.93L126.789 148.99C125.289 149.29 123.879 149.38 122.579 149.38H121.799V145.08H123.119V148.28C124.219 148.26 125.399 148.17 126.639 147.93ZM123.979 151.29V152.72H127.389V151.29H123.979ZM122.679 153.75V150.26H128.679V153.75H122.679ZM129.899 146.59V147.67H128.679V149.83H127.359V144.65H128.679V146.59H129.899ZM130.938 145.6H135.358C135.358 148.42 134.408 150.72 131.138 152.3L130.448 151.26C132.798 150.13 133.818 148.69 134.008 146.65H130.938V145.6ZM136.768 144.64H138.098V153.85H136.768V144.64ZM142.288 145.18H146.548C146.548 147.63 144.998 149.29 142.258 149.99L141.758 148.96C143.798 148.45 144.948 147.44 145.138 146.22H142.288V145.18ZM144.568 151.21V152.72H148.058V151.21H144.568ZM143.268 153.75V150.17H149.358V153.75H143.268ZM148.028 144.66H149.358V149.78H148.028V144.66ZM157.087 151.67V149.96H155.887V148.91H157.087V147.99H155.887V146.94H157.087V144.65H158.407V151.67H157.087ZM155.787 145.62V146.65H150.737V145.62H152.667V144.62H153.987V145.62H155.787ZM152.407 148.78C152.407 149.3 152.787 149.58 153.327 149.58C153.857 149.58 154.237 149.3 154.237 148.78C154.237 148.28 153.857 147.99 153.327 147.99C152.787 147.99 152.407 148.28 152.407 148.78ZM155.477 148.78C155.477 149.85 154.577 150.6 153.327 150.6C152.067 150.6 151.167 149.85 151.167 148.78C151.167 147.72 152.067 146.98 153.327 146.98C154.577 146.98 155.477 147.72 155.477 148.78ZM153.647 152.65H158.607V153.7H152.327V151.1H153.647V152.65ZM162.177 150.67C162.857 150.67 163.327 149.94 163.327 148.57C163.327 147.21 162.857 146.48 162.177 146.48C161.487 146.48 161.027 147.21 161.027 148.57C161.027 149.94 161.487 150.67 162.177 150.67ZM162.177 145.29C163.567 145.29 164.597 146.55 164.597 148.57C164.597 150.6 163.567 151.87 162.177 151.87C160.777 151.87 159.757 150.6 159.757 148.57C159.757 146.55 160.777 145.29 162.177 145.29ZM168.257 148.12V149.21H166.917V153.86H165.597V144.65H166.917V148.12H168.257ZM176.956 147.43V146.07H173.306V147.43H176.956ZM178.256 145.04V148.47H172.006V145.04H178.256ZM173.266 151.03V152.65H178.396V153.7H171.946V151.03H173.266ZM170.976 149.2H179.316V150.24H175.926V151.81H174.606V150.24H170.976V149.2ZM186.365 150.05V147.4H184.685V146.33H186.365V144.65H187.685V150.05H186.365ZM185.525 148.72L184.835 149.76C183.865 149.43 183.215 148.8 182.825 147.98C182.415 148.92 181.685 149.66 180.595 150.03L179.905 148.97C181.475 148.47 182.125 147.22 182.125 145.95V145.13H183.465V145.89C183.465 147.13 184.065 148.25 185.525 148.72ZM184.575 152.85C185.775 152.85 186.405 152.6 186.405 152.08C186.405 151.55 185.775 151.3 184.575 151.3C183.365 151.3 182.735 151.55 182.735 152.08C182.735 152.6 183.365 152.85 184.575 152.85ZM184.575 150.28C186.525 150.28 187.725 150.94 187.725 152.08C187.725 153.2 186.525 153.86 184.575 153.86C182.615 153.86 181.415 153.2 181.415 152.08C181.415 150.94 182.615 150.28 184.575 150.28ZM193.145 145.86C191.895 145.86 191.175 146.13 191.175 146.66C191.175 147.2 191.895 147.46 193.145 147.46C194.405 147.46 195.125 147.2 195.125 146.66C195.125 146.13 194.405 145.86 193.145 145.86ZM193.145 148.48C191.125 148.48 189.815 147.79 189.815 146.66C189.815 145.53 191.125 144.84 193.145 144.84C195.175 144.84 196.485 145.53 196.485 146.66C196.485 147.79 195.175 148.48 193.145 148.48ZM197.305 150.02H193.795V150.83H196.305V153.87H194.985V151.86H189.905V150.83H192.475V150.02H188.985V148.98H197.305V150.02ZM203.644 148.67V147.46H201.834V148.67H203.644ZM204.944 145.24V149.71H200.534V145.24H201.834V146.45H203.644V145.24H204.944ZM201.364 151.63V150.58H207.514V153.87H206.194V151.63H201.364ZM208.734 146.89V147.97H207.514V150.17H206.194V144.65H207.514V146.89H208.734ZM212.824 146.62V147.13C212.824 148.63 213.564 150.22 215.104 150.86L214.384 151.9C213.314 151.44 212.584 150.54 212.174 149.43C211.764 150.63 211.024 151.64 209.944 152.13L209.194 151.08C210.734 150.39 211.484 148.7 211.484 147.13V146.62H209.564V145.53H214.724V146.62H212.824ZM215.574 144.65H216.894V153.86H215.574V144.65ZM223.613 145.4V146.34H218.383V145.4H220.343V144.61H221.663V145.4H223.613ZM220.003 148.01C220.003 148.36 220.383 148.55 221.003 148.55C221.623 148.55 221.993 148.36 221.993 148.01C221.993 147.65 221.623 147.46 221.003 147.46C220.383 147.46 220.003 147.65 220.003 148.01ZM223.843 149.64L223.943 150.54C222.033 150.9 219.863 150.94 218.293 150.95L218.153 149.94C218.803 149.94 219.553 149.94 220.343 149.91V149.38C219.363 149.23 218.753 148.73 218.753 148.01C218.753 147.12 219.643 146.58 221.003 146.58C222.353 146.58 223.243 147.12 223.243 148.01C223.243 148.73 222.633 149.23 221.663 149.38V149.85C222.413 149.8 223.143 149.74 223.843 149.64ZM220.753 151.39V152.65H225.873V153.7H219.433V151.39H220.753ZM225.563 147.66H226.723V148.74H225.563V151.84H224.243V144.64H225.563V147.66ZM233.693 146.01C232.483 146.01 231.713 146.37 231.713 147.02C231.713 147.68 232.483 148.03 233.693 148.03C234.893 148.03 235.663 147.68 235.663 147.02C235.663 146.37 234.893 146.01 233.693 146.01ZM233.693 149.08C231.723 149.08 230.363 148.28 230.363 147.02C230.363 145.77 231.723 144.96 233.693 144.96C235.653 144.96 237.023 145.77 237.023 147.02C237.023 148.28 235.653 149.08 233.693 149.08ZM237.883 149.77V150.84H235.953V153.85H234.613V150.84H232.763V153.85H231.433V150.84H229.543V149.77H237.883ZM242.102 146.62V147.13C242.102 148.63 242.842 150.22 244.382 150.86L243.662 151.9C242.592 151.44 241.862 150.54 241.452 149.43C241.042 150.63 240.302 151.64 239.222 152.13L238.472 151.08C240.012 150.39 240.762 148.7 240.762 147.13V146.62H238.842V145.53H244.002V146.62H242.102ZM244.852 144.65H246.172V153.86H244.852V144.65ZM253.301 145.77V146.8H247.781V145.77H249.871V144.76H251.191V145.77H253.301ZM251.561 148.91C251.561 148.42 251.151 148.16 250.551 148.16C249.941 148.16 249.531 148.42 249.531 148.91C249.531 149.39 249.941 149.65 250.551 149.65C251.151 149.65 251.561 149.39 251.561 148.91ZM248.281 148.91C248.281 147.86 249.221 147.16 250.551 147.16C251.871 147.16 252.811 147.86 252.811 148.91C252.811 149.94 251.871 150.65 250.551 150.65C249.221 150.65 248.281 149.94 248.281 148.91ZM247.751 152.28L247.591 151.21C249.271 151.21 251.491 151.22 253.431 150.96L253.521 151.92C251.481 152.3 249.381 152.29 247.751 152.28ZM253.901 144.65H255.221V153.86H253.901V144.65Z" fill="#FF7D7D"/>
<path d="M50.1679 29.549L48.7229 28.1094L42.1678 34.64L43.613 36.0799L50.1679 29.549ZM54.5549 28.1094L43.613 38.9595L39.3291 34.6915L37.8841 36.1312L43.613 41.8906L56 29.549L54.5549 28.1094ZM32 36.1312L37.7807 41.8906L39.2258 40.451L33.4969 34.6915L32 36.1312Z" fill="#FE5858"/>
<path fill-rule="evenodd" clip-rule="evenodd" d="M308 46.25V26C308 25.2044 308.316 24.4413 308.879 23.8787C309.441 23.3161 310.204 23 311 23H323C323.796 23 324.559 23.3161 325.121 23.8787C325.684 24.4413 326 25.2044 326 26V46.25C326 46.3802 325.966 46.5083 325.902 46.6215C325.837 46.7347 325.745 46.8291 325.633 46.8956C325.521 46.962 325.393 46.9982 325.263 47.0004C325.133 47.0027 325.004 46.971 324.89 46.9085L317 42.6035L309.11 46.9085C308.996 46.971 308.867 47.0027 308.737 47.0004C308.607 46.9982 308.479 46.962 308.367 46.8956C308.255 46.8291 308.163 46.7347 308.098 46.6215C308.034 46.5083 308 46.3802 308 46.25ZM317.24 29.15C317.218 29.105 317.184 29.0671 317.142 29.0406C317.099 29.0141 317.05 29 317 29C316.95 29 316.901 29.0141 316.858 29.0406C316.816 29.0671 316.782 29.105 316.76 29.15L315.809 31.0775C315.79 31.1165 315.762 31.1503 315.727 31.1759C315.692 31.2015 315.651 31.2182 315.608 31.2245L313.478 31.5335C313.429 31.5409 313.383 31.5619 313.345 31.594C313.307 31.6261 313.279 31.6681 313.264 31.7153C313.249 31.7625 313.247 31.813 313.259 31.8612C313.271 31.9093 313.296 31.9533 313.331 31.988L314.87 33.4895C314.933 33.551 314.962 33.6395 314.947 33.7265L314.585 35.8475C314.577 35.8965 314.583 35.9468 314.601 35.9927C314.62 36.0386 314.651 36.0784 314.692 36.1075C314.732 36.1367 314.779 36.154 314.829 36.1576C314.878 36.1613 314.928 36.151 314.972 36.128L316.877 35.126C316.915 35.106 316.958 35.0956 317.001 35.0956C317.044 35.0956 317.086 35.106 317.125 35.126L319.029 36.128C319.073 36.1506 319.123 36.1605 319.172 36.1567C319.221 36.1529 319.269 36.1355 319.309 36.1064C319.349 36.0773 319.38 36.0377 319.398 35.992C319.417 35.9463 319.423 35.8963 319.415 35.8475L319.052 33.725C319.044 33.6824 319.047 33.6385 319.06 33.5972C319.073 33.556 319.096 33.5185 319.127 33.488L320.669 31.9865C320.704 31.9518 320.729 31.9078 320.741 31.8597C320.753 31.8115 320.751 31.761 320.736 31.7138C320.721 31.6666 320.693 31.6246 320.655 31.5925C320.617 31.5604 320.571 31.5394 320.522 31.532L318.392 31.223C318.349 31.2167 318.308 31.2 318.273 31.1744C318.238 31.1488 318.21 31.115 318.191 31.076L317.24 29.15Z" fill="#FE5858"/>
</g>
<defs>
<filter id="filter0_d_2009_742" x="0" y="0" width="353" height="188" filterUnits="userSpaceOnUse" color-interpolation-filters="sRGB">
<feFlood flood-opacity="0" result="BackgroundImageFix"/>
<feColorMatrix in="SourceAlpha" type="matrix" values="0 0 0 0 0 0 0 0 0 0 0 0 0 0 0 0 0 0 127 0" result="hardAlpha"/>
<feOffset dy="4"/>
<feGaussianBlur stdDeviation="2"/>
<feComposite in2="hardAlpha" operator="out"/>
<feColorMatrix type="matrix" values="0 0 0 0 0.839216 0 0 0 0 0.286275 0 0 0 0 0.286275 0 0 0 0.15 0"/>
<feBlend mode="normal" in2="BackgroundImageFix" result="effect1_dropShadow_2009_742"/>
<feBlend mode="normal" in="SourceGraphic" in2="effect1_dropShadow_2009_742" result="shape"/>
</filter>
</defs>
</svg>
