<svg width="353" height="188" viewBox="0 0 353 188" fill="none" xmlns="http://www.w3.org/2000/svg">
<g filter="url(#filter0_d_2009_708)">
<rect x="4" width="345" height="180" rx="8" fill="#FFF6F6"/>
</g>
<path d="M40.524 23.264H43.956V47.288H40.524V23.264ZM31.086 24.954C34.7 24.954 37.378 28.23 37.378 33.482C37.378 38.76 34.7 42.062 31.086 42.062C27.472 42.062 24.794 38.76 24.794 33.482C24.794 28.23 27.472 24.954 31.086 24.954ZM31.086 28.048C29.318 28.048 28.096 29.946 28.096 33.482C28.096 37.044 29.318 38.942 31.086 38.942C32.854 38.942 34.076 37.044 34.076 33.482C34.076 29.946 32.854 28.048 31.086 28.048ZM49.518 38.604L48.244 35.822C53.678 35.068 56.356 32.156 56.59 29.322H49.388V26.592H56.642V23.654H60.074V26.592H67.328V29.322H60.126C60.36 32.156 63.038 35.068 68.446 35.822L67.198 38.604C62.96 37.98 59.944 36.056 58.358 33.482C56.772 36.056 53.756 37.98 49.518 38.604ZM47.516 41.698H69.2V44.48H47.516V41.698ZM75.2819 34.626V39.072C78.6619 39.046 81.4179 38.916 84.5379 38.448L84.8499 41.178C81.2099 41.724 77.9859 41.828 73.8779 41.828H71.8499V25.266H83.1079V28.048H75.2819V31.948H82.7699V34.626H75.2819ZM93.1439 32.364V35.198H89.6599V47.262H86.2279V23.29H89.6599V32.364H93.1439ZM110.744 23.29H114.202V36.862H110.744V23.29ZM98.2639 37.928H114.202V46.95H98.2639V37.928ZM110.848 40.606H101.644V44.272H110.848V40.606ZM101.176 24.382C104.894 24.382 107.676 26.774 107.676 30.154C107.676 33.508 104.894 35.9 101.176 35.9C97.4579 35.9 94.6499 33.508 94.6499 30.154C94.6499 26.774 97.4579 24.382 101.176 24.382ZM101.176 27.242C99.3559 27.242 98.0039 28.334 98.0039 30.154C98.0039 31.948 99.3559 33.04 101.176 33.04C102.97 33.04 104.322 31.948 104.322 30.154C104.322 28.334 102.97 27.242 101.176 27.242ZM138.615 25.942V28.62H124.237V25.942H129.723V23.368H133.155V25.942H138.615ZM128.761 34.08C128.761 35.302 129.853 35.978 131.439 35.978C133.051 35.978 134.117 35.302 134.117 34.08C134.117 32.832 133.051 32.156 131.439 32.156C129.853 32.156 128.761 32.832 128.761 34.08ZM133.155 38.396V40.294C135.105 40.19 137.055 40.06 138.927 39.8L139.187 42.27C133.961 43.232 128.423 43.258 124.185 43.258L123.769 40.476C125.563 40.476 127.591 40.476 129.723 40.424V38.396C127.149 37.902 125.485 36.29 125.485 34.08C125.485 31.376 127.929 29.556 131.439 29.556C134.923 29.556 137.367 31.376 137.367 34.08C137.367 36.29 135.703 37.902 133.155 38.396ZM140.175 23.29H143.607V47.236H140.175V23.29ZM161.701 33.716L160.037 36.42C157.359 35.562 155.513 33.872 154.447 31.714C153.355 34.028 151.431 35.9 148.623 36.81L146.933 34.106C150.937 32.832 152.653 29.712 152.653 26.67V24.382H156.137V26.67C156.137 29.66 157.827 32.52 161.701 33.716ZM150.599 41.36V38.604H166.927V47.262H163.469V41.36H150.599ZM163.469 23.29H166.927V37.564H163.469V23.29Z" fill="#FE5858"/>
<path d="M63.864 79.056C63.864 80.192 64.68 80.88 65.8 80.88C66.904 80.88 67.736 80.192 67.736 79.056C67.736 77.904 66.904 77.232 65.8 77.232C64.68 77.232 63.864 77.904 63.864 79.056ZM69.784 79.056C69.784 81.152 68.056 82.656 65.8 82.656C63.528 82.656 61.8 81.152 61.8 79.056C61.8 76.96 63.528 75.44 65.8 75.44C68.056 75.44 69.784 76.96 69.784 79.056ZM63.464 85.616V83.92H73.288V89.392H71.176V85.616H63.464ZM75.176 78.272H73.288V79.744H75.176V81.472H73.288V83.328H71.176V74.64H73.288V76.56H75.176V78.272ZM88.6788 79.072L87.9108 80.72C85.4308 80.368 83.6388 79.344 82.7108 77.872C81.7828 79.328 79.9908 80.368 77.5268 80.72L76.7428 79.072C80.0548 78.672 81.6388 76.992 81.6388 75.328V74.896H83.7988V75.328C83.7988 77.04 85.3508 78.672 88.6788 79.072ZM77.5588 86.16V84.496H87.7988V89.392H85.6868V86.16H77.5588ZM83.7828 81.776H89.4148V83.456H76.0868V81.776H81.6708V79.872H83.7828V81.776ZM102.134 78.192H104.342V74.64H106.454V83.408H104.342V79.904H102.134V78.192ZM103.014 81.36L101.99 83.008C100.39 82.48 99.2863 81.44 98.6463 80.144C98.0063 81.632 96.8383 82.832 95.1263 83.408L94.0543 81.744C96.3903 80.928 97.4623 79.056 97.5263 77.216H94.6303V75.52H102.55V77.216H99.6863C99.7503 78.896 100.774 80.624 103.014 81.36ZM101.478 87.792C103.398 87.792 104.406 87.392 104.406 86.56C104.406 85.728 103.398 85.328 101.478 85.328C99.5423 85.328 98.5343 85.728 98.5343 86.56C98.5343 87.392 99.5423 87.792 101.478 87.792ZM101.478 83.728C104.598 83.728 106.518 84.768 106.518 86.56C106.518 88.352 104.598 89.392 101.478 89.392C98.3423 89.392 96.4223 88.352 96.4223 86.56C96.4223 84.768 98.3423 83.728 101.478 83.728ZM112.789 84.64C113.781 84.64 114.501 83.968 114.501 82.832C114.501 81.728 113.781 81.04 112.789 81.04C111.797 81.04 111.061 81.728 111.061 82.848C111.061 83.968 111.797 84.64 112.789 84.64ZM112.789 79.328C114.917 79.328 116.501 80.784 116.501 82.832C116.501 84.912 114.917 86.368 112.789 86.368C110.645 86.368 109.045 84.912 109.045 82.832C109.045 80.784 110.645 79.328 112.789 79.328ZM113.829 74.896V76.816H117.029V78.496H108.453V76.816H111.717V74.896H113.829ZM122.213 80.4V82.144H120.101V89.376H117.989V74.64H120.101V80.4H122.213ZM134.804 78.624V80.304H124.58V75.168H126.692V78.624H134.804ZM126.564 84.672V87.376H134.884V89.072H124.436V84.672H126.564ZM122.932 81.808H136.276V83.504H122.932V81.808ZM142.259 80.752L141.555 79.12C144.291 78.88 145.731 77.92 146.099 76.928H142.195V75.248H153.091V76.928H149.171C149.539 77.92 150.979 78.88 153.731 79.12L152.995 80.752C150.227 80.512 148.419 79.472 147.635 78.08C146.851 79.472 145.043 80.512 142.259 80.752ZM150.579 86.72C150.579 85.968 149.571 85.648 147.603 85.648C145.635 85.648 144.627 85.968 144.627 86.72C144.627 87.456 145.635 87.776 147.603 87.776C149.571 87.776 150.579 87.456 150.579 86.72ZM154.291 83.008H148.691V84.096C151.219 84.304 152.723 85.216 152.723 86.72C152.723 88.416 150.787 89.392 147.603 89.392C144.419 89.392 142.499 88.416 142.499 86.72C142.499 85.2 144.019 84.288 146.579 84.08V83.008H140.979V81.328H154.291V83.008ZM160.663 88.125C160.318 88.125 160.022 88.0038 159.776 87.7614C159.53 87.5189 159.409 87.2235 159.413 86.875C159.409 86.5341 159.53 86.2424 159.776 86C160.022 85.7576 160.318 85.6364 160.663 85.6364C160.996 85.6364 161.286 85.7576 161.532 86C161.782 86.2424 161.909 86.5341 161.913 86.875C161.909 87.1061 161.848 87.3163 161.731 87.5057C161.617 87.6951 161.466 87.8466 161.276 87.9602C161.091 88.0701 160.886 88.125 160.663 88.125ZM164.983 88.125C164.639 88.125 164.343 88.0038 164.097 87.7614C163.851 87.5189 163.729 87.2235 163.733 86.875C163.729 86.5341 163.851 86.2424 164.097 86C164.343 85.7576 164.639 85.6364 164.983 85.6364C165.317 85.6364 165.606 85.7576 165.853 86C166.103 86.2424 166.229 86.5341 166.233 86.875C166.229 87.1061 166.169 87.3163 166.051 87.5057C165.938 87.6951 165.786 87.8466 165.597 87.9602C165.411 88.0701 165.207 88.125 164.983 88.125ZM169.304 88.125C168.959 88.125 168.664 88.0038 168.418 87.7614C168.171 87.5189 168.05 87.2235 168.054 86.875C168.05 86.5341 168.171 86.2424 168.418 86C168.664 85.7576 168.959 85.6364 169.304 85.6364C169.637 85.6364 169.927 85.7576 170.173 86C170.423 86.2424 170.55 86.5341 170.554 86.875C170.55 87.1061 170.489 87.3163 170.372 87.5057C170.258 87.6951 170.107 87.8466 169.918 87.9602C169.732 88.0701 169.527 88.125 169.304 88.125Z" fill="#FE5858"/>
<path d="M62.536 109.048H69.304C69.304 113.592 68.232 117.384 62.744 120.184L61.624 118.552C64.04 117.352 65.464 115.976 66.296 114.36L62.024 114.776L61.752 112.984L66.904 112.68C67.048 112.072 67.16 111.432 67.208 110.728H62.536V109.048ZM75.288 113.256V115H73.224V122.344H71.112V107.624H73.224V113.256H75.288ZM76.9348 109.048H83.7028C83.7028 113.592 82.6308 117.384 77.1428 120.184L76.0228 118.552C78.4388 117.352 79.8628 115.976 80.6948 114.36L76.4228 114.776L76.1508 112.984L81.3028 112.68C81.4468 112.072 81.5588 111.432 81.6068 110.728H76.9348V109.048ZM89.6868 113.256V115H87.6228V122.344H85.5108V107.624H87.6228V113.256H89.6868ZM93.7335 112.456C93.7335 113.96 95.1255 114.84 97.1415 114.84C99.1735 114.84 100.566 113.96 100.566 112.456C100.566 110.952 99.1735 110.072 97.1415 110.072C95.1255 110.072 93.7335 110.952 93.7335 112.456ZM98.1975 118.952H103.83V120.664H90.4855V118.952H96.0855V116.456C93.4935 116.136 91.6535 114.648 91.6535 112.456C91.6535 109.992 94.0055 108.392 97.1415 108.392C100.294 108.392 102.646 109.992 102.646 112.456C102.646 114.648 100.806 116.152 98.1975 116.456V118.952ZM110.487 121H108.237L112.334 109.364H114.936L119.038 121H116.788L113.68 111.75H113.589L110.487 121ZM110.561 116.438H116.697V118.131H110.561V116.438ZM122.359 109.364V121H120.251V109.364H122.359ZM128.199 108.568H133.991C133.991 112.392 132.455 115.048 128.423 116.712L127.431 115.208C129.063 114.552 130.167 113.768 130.887 112.824L127.847 113.144L127.575 111.48L131.655 111.272C131.767 110.936 131.831 110.616 131.879 110.248H128.199V108.568ZM132.167 118.504V120.552H138.007V118.504H132.167ZM130.087 122.2V116.84H140.071V122.2H130.087ZM138.071 107.64H140.071V116.264H138.071V112.776H136.807V116.152H134.839V107.896H136.807V111.08H138.071V107.64ZM145.509 110.616V117.288C145.989 117.272 146.469 117.256 146.965 117.224V110.616H145.509ZM148.997 110.616V117.096C149.589 117.064 150.181 117 150.741 116.936L150.869 118.472C147.925 118.984 144.581 119.048 142.069 119.048L141.845 117.336C142.357 117.336 142.901 117.336 143.461 117.336V110.616H142.245V108.936H150.373V110.616H148.997ZM152.165 107.64H154.277V122.392H152.165V114.696H149.973V112.984H152.165V107.64ZM169.188 114.568L168.292 116.344C165.732 115.832 163.844 114.408 162.9 112.536C161.956 114.408 160.084 115.848 157.524 116.344L156.628 114.568C159.94 114.008 161.78 111.672 161.78 109.56V108.504H164.036V109.56C164.036 111.72 165.86 114.008 169.188 114.568ZM156.308 118.872H169.652V120.584H156.308V118.872Z" fill="#FE5858"/>
<path fill-rule="evenodd" clip-rule="evenodd" d="M311.625 139.9C311.802 139.9 311.978 139.935 312.142 140.003C312.305 140.071 312.454 140.17 312.579 140.296L319.329 147.046C319.454 147.171 319.554 147.32 319.622 147.484C319.69 147.648 319.725 147.823 319.725 148.001C319.725 148.178 319.69 148.354 319.622 148.517C319.554 148.681 319.454 148.83 319.329 148.956L312.579 155.706C312.455 155.835 312.306 155.939 312.141 156.01C311.976 156.082 311.798 156.119 311.619 156.121C311.439 156.123 311.261 156.089 311.094 156.021C310.928 155.953 310.777 155.853 310.65 155.725C310.523 155.598 310.422 155.447 310.354 155.281C310.287 155.114 310.253 154.936 310.255 154.756C310.257 154.577 310.295 154.399 310.366 154.234C310.438 154.069 310.541 153.92 310.671 153.796L316.466 148L310.671 142.206C310.482 142.017 310.353 141.776 310.301 141.514C310.249 141.252 310.275 140.981 310.377 140.734C310.479 140.487 310.653 140.276 310.875 140.128C311.097 139.979 311.358 139.9 311.625 139.9Z" fill="#FE5858"/>
<path d="M51.875 74.5H50V75.625C50 75.8313 49.8313 76 49.625 76H48.875C48.6687 76 48.5 75.8313 48.5 75.625V74.5H39.5V75.625C39.5 75.8313 39.3313 76 39.125 76H38.375C38.1687 76 38 75.8313 38 75.625V74.5H36.125C35.0938 74.5 34.25 75.3438 34.25 76.375V89.125C34.25 90.1562 35.0938 91 36.125 91H51.875C52.9062 91 53.75 90.1562 53.75 89.125V76.375C53.75 75.3438 52.9062 74.5 51.875 74.5ZM52.25 88.5625C52.25 89.0781 51.8281 89.5 51.3125 89.5H36.6875C36.1719 89.5 35.75 89.0781 35.75 88.5625V80.125C35.75 79.9187 35.9187 79.75 36.125 79.75H51.875C52.0813 79.75 52.25 79.9187 52.25 80.125V88.5625ZM39.5 73.375C39.5 73.1687 39.3313 73 39.125 73H38.375C38.1687 73 38 73.1687 38 73.375V74.5H39.5V73.375ZM50 73.375C50 73.1687 49.8313 73 49.625 73H48.875C48.6687 73 48.5 73.1687 48.5 73.375V74.5H50V73.375Z" fill="#FE5858"/>
<path d="M70.172 152.404V150.352H68.732V149.092H70.172V147.988H68.732V146.728H70.172V143.98H71.756V152.404H70.172ZM68.612 145.144V146.38H62.552V145.144H64.868V143.944H66.452V145.144H68.612ZM64.556 148.936C64.556 149.56 65.012 149.896 65.66 149.896C66.296 149.896 66.752 149.56 66.752 148.936C66.752 148.336 66.296 147.988 65.66 147.988C65.012 147.988 64.556 148.336 64.556 148.936ZM68.24 148.936C68.24 150.22 67.16 151.12 65.66 151.12C64.148 151.12 63.068 150.22 63.068 148.936C63.068 147.664 64.148 146.776 65.66 146.776C67.16 146.776 68.24 147.664 68.24 148.936ZM66.044 153.58H71.996V154.84H64.46V151.72H66.044V153.58ZM81.3791 143.968H82.8791V155.02H81.3791V149.5H80.4791V154.528H79.0031V151.324L78.1151 152.512C77.1311 151.984 76.4951 151.096 76.0991 149.992C75.7391 151.264 75.0911 152.308 74.0591 152.92L73.1111 151.72C74.7551 150.76 75.2831 148.804 75.2831 146.68V146.38H73.4711V145.096H78.4751V146.38H76.8191V146.68C76.8191 148.612 77.3711 150.448 79.0031 151.3V144.148H80.4791V148.204H81.3791V143.968ZM90.66 145.273V154H89.079V146.811H89.0279L86.9867 148.115V146.666L89.1557 145.273H90.66ZM96.4923 148.612V146.032H94.3923V148.612H96.4923ZM100.032 146.836H98.0403V147.784H100.032V146.836ZM98.0403 149.044V149.86H92.8323V144.772H98.0403V145.576H100.032V143.98H101.616V150.46H100.032V149.044H98.0403ZM97.8723 153.82C99.3243 153.82 100.08 153.52 100.08 152.884C100.08 152.248 99.3243 151.948 97.8723 151.948C96.4323 151.948 95.6763 152.248 95.6763 152.884C95.6763 153.52 96.4323 153.82 97.8723 153.82ZM97.8723 150.736C100.224 150.736 101.664 151.528 101.664 152.884C101.664 154.24 100.224 155.032 97.8723 155.032C95.5323 155.032 94.0923 154.24 94.0923 152.884C94.0923 151.528 95.5323 150.736 97.8723 150.736ZM110.747 143.968H112.331V155.056H110.747V143.968ZM106.391 144.748C108.059 144.748 109.295 146.26 109.295 148.684C109.295 151.12 108.059 152.644 106.391 152.644C104.723 152.644 103.487 151.12 103.487 148.684C103.487 146.26 104.723 144.748 106.391 144.748ZM106.391 146.176C105.575 146.176 105.011 147.052 105.011 148.684C105.011 150.328 105.575 151.204 106.391 151.204C107.207 151.204 107.771 150.328 107.771 148.684C107.771 147.052 107.207 146.176 106.391 146.176ZM116.711 149.14H126.695V150.388H116.711V149.14ZM121.679 150.988C124.067 150.988 125.519 151.72 125.519 153.016C125.519 154.312 124.067 155.044 121.679 155.044C119.291 155.044 117.851 154.312 117.851 153.016C117.851 151.72 119.291 150.988 121.679 150.988ZM121.679 152.188C120.203 152.188 119.447 152.452 119.447 153.016C119.447 153.592 120.203 153.844 121.679 153.844C123.155 153.844 123.911 153.592 123.911 153.016C123.911 152.452 123.155 152.188 121.679 152.188ZM121.703 144.22C124.139 144.22 125.711 145.048 125.711 146.38C125.711 147.736 124.139 148.552 121.703 148.552C119.279 148.552 117.707 147.736 117.707 146.38C117.707 145.048 119.279 144.22 121.703 144.22ZM121.703 145.432C120.203 145.432 119.339 145.756 119.339 146.38C119.339 147.028 120.203 147.34 121.703 147.34C123.215 147.34 124.079 147.028 124.079 146.38C124.079 145.756 123.215 145.432 121.703 145.432ZM133.762 148.036L133.918 149.296C132.562 149.584 131.302 149.656 128.854 149.656H127.93V144.628H132.85V145.888H129.502V148.384C131.47 148.372 132.562 148.288 133.762 148.036ZM134.638 153.628V152.656H130.558V153.628H134.638ZM134.638 151.444V150.436H136.21V154.888H128.998V150.436H130.558V151.444H134.638ZM137.674 146.356V147.652H136.21V149.896H134.626V143.968H136.21V146.356H137.674ZM143.062 146.668C143.062 147.34 143.578 147.724 144.334 147.724C145.09 147.724 145.63 147.34 145.63 146.668C145.63 145.996 145.09 145.612 144.334 145.612C143.578 145.612 143.062 145.996 143.062 146.668ZM147.646 149.404L147.742 150.52C145.51 150.94 143.026 150.976 141.202 150.976L141.01 149.716C141.766 149.716 142.642 149.716 143.554 149.692V148.84C142.378 148.588 141.586 147.76 141.586 146.668C141.586 145.348 142.738 144.424 144.334 144.424C145.942 144.424 147.094 145.348 147.094 146.668C147.094 147.748 146.314 148.576 145.138 148.84V149.632C145.99 149.584 146.854 149.524 147.646 149.404ZM144.034 151.696V153.58H150.178V154.84H142.45V151.696H144.034ZM149.806 147.448H151.198V148.756H149.806V152.416H148.222V143.98H149.806V147.448ZM155.937 150.844V152.524H157.869V150.844H155.937ZM159.429 152.524H161.853V153.82H151.833V152.524H154.377V150.844H152.997V147.124H159.165V145.948H152.985V144.688H160.725V148.36H154.569V149.572H160.977V150.844H159.429V152.524ZM169.748 148.096V150.676H168.272V144.124H169.748V146.812H170.564V143.98H172.064V150.784H170.564V148.096H169.748ZM167.96 145.048V146.272H162.584V145.048H164.492V144.052H166.052V145.048H167.96ZM165.296 147.748C164.708 147.748 164.312 148.036 164.312 148.54C164.312 149.056 164.708 149.344 165.296 149.344C165.872 149.344 166.268 149.056 166.268 148.54C166.268 148.036 165.872 147.748 165.296 147.748ZM165.296 150.472C163.892 150.472 162.908 149.692 162.908 148.54C162.908 147.4 163.892 146.62 165.296 146.62C166.688 146.62 167.672 147.4 167.672 148.54C167.672 149.692 166.688 150.472 165.296 150.472ZM170.864 151.144V151.36C170.864 152.392 171.488 153.364 172.916 153.748L172.184 154.9C171.128 154.576 170.444 153.952 170.06 153.16C169.688 153.952 169.064 154.636 168.08 154.996C167.072 154.648 166.436 153.988 166.076 153.196C165.68 153.964 165.008 154.576 163.988 154.9L163.256 153.748C164.696 153.316 165.308 152.32 165.308 151.36V151.144H166.844V151.36C166.844 152.164 167.204 152.992 168.056 153.532C168.92 152.956 169.292 152.092 169.292 151.36V151.144H170.864ZM176.467 151.204C177.283 151.204 177.823 150.328 177.823 148.684C177.823 147.052 177.283 146.176 176.467 146.176C175.663 146.176 175.123 147.052 175.123 148.684C175.123 150.328 175.663 151.204 176.467 151.204ZM181.135 143.968H182.719V155.056H181.135V149.236H179.299C179.131 151.348 178.003 152.644 176.467 152.644C174.823 152.644 173.611 151.12 173.611 148.684C173.611 146.26 174.823 144.748 176.467 144.748C177.955 144.748 179.071 145.96 179.287 147.952H181.135V143.968ZM188.022 150.352V152.464H190.458V150.352C190.074 150.424 189.666 150.46 189.234 150.46C188.802 150.46 188.406 150.424 188.022 150.352ZM189.234 145.768C187.698 145.768 186.678 146.392 186.678 147.496C186.678 148.588 187.698 149.224 189.234 149.224C190.77 149.224 191.802 148.588 191.802 147.496C191.802 146.392 190.77 145.768 189.234 145.768ZM192.03 152.464H194.25V153.748H184.242V152.464H186.45V149.764C185.61 149.248 185.106 148.456 185.118 147.496C185.118 145.684 186.858 144.52 189.234 144.52C191.622 144.52 193.362 145.684 193.362 147.496C193.362 148.456 192.858 149.248 192.03 149.764V152.464ZM199.942 145.273L199.801 151.435H198.429L198.293 145.273H199.942ZM199.115 154.094C198.857 154.094 198.635 154.003 198.45 153.821C198.269 153.639 198.178 153.418 198.178 153.156C198.178 152.901 198.269 152.682 198.45 152.5C198.635 152.318 198.857 152.227 199.115 152.227C199.368 152.227 199.587 152.318 199.772 152.5C199.959 152.682 200.053 152.901 200.053 153.156C200.053 153.33 200.009 153.487 199.921 153.629C199.835 153.771 199.722 153.885 199.58 153.97C199.441 154.053 199.286 154.094 199.115 154.094Z" fill="#FE5858"/>
<path d="M50.3636 148.436C52.1636 148.436 53.6364 146.988 53.6364 145.218C53.6364 143.448 52.1636 142 50.3636 142C48.5637 142 47.0909 143.448 47.0909 145.218C47.0909 146.988 48.5637 148.436 50.3636 148.436ZM41.6364 148.436C43.4363 148.436 44.9091 146.988 44.9091 145.218C44.9091 143.448 43.4363 142 41.6364 142C39.8364 142 38.3636 143.448 38.3636 145.218C38.3636 146.988 39.8364 148.436 41.6364 148.436ZM41.6364 150.796C39.0726 150.796 34 152.03 34 154.551V157.447H49.4286V154.551C49.4286 152.03 44.2001 150.796 41.6364 150.796ZM50.3636 151.386C50.0366 151.386 49.8105 151.386 49.4286 151.44C50.6835 152.352 51.1429 152.941 51.1429 154.551V157.447H58V154.551C58 152.03 52.9274 151.386 50.3636 151.386Z" fill="#FE5858"/>
<path d="M43.5714 103C38.8569 103 35 106.78 35 111.4C35 117.7 43.5714 127 43.5714 127C43.5714 127 52.1429 117.7 52.1429 111.4C52.1429 106.78 48.2859 103 43.5714 103ZM43.5714 114.4C41.8574 114.4 40.5101 113.08 40.5101 111.4C40.5101 109.72 41.8573 108.4 43.5714 108.4C45.2856 108.4 46.6327 109.72 46.6327 111.4C46.6327 113.08 45.2855 114.4 43.5714 114.4Z" fill="#FE5858"/>
<path fill-rule="evenodd" clip-rule="evenodd" d="M308 46.25V26C308 25.2044 308.316 24.4413 308.879 23.8787C309.441 23.3161 310.204 23 311 23H323C323.796 23 324.559 23.3161 325.121 23.8787C325.684 24.4413 326 25.2044 326 26V46.25C326 46.3802 325.966 46.5083 325.902 46.6215C325.837 46.7347 325.745 46.8291 325.633 46.8956C325.521 46.962 325.393 46.9982 325.263 47.0004C325.133 47.0027 325.004 46.971 324.89 46.9085L317 42.6035L309.11 46.9085C308.996 46.971 308.867 47.0027 308.737 47.0004C308.607 46.9982 308.479 46.962 308.367 46.8956C308.255 46.8291 308.163 46.7347 308.098 46.6215C308.034 46.5083 308 46.3802 308 46.25ZM317.24 29.15C317.218 29.105 317.184 29.0671 317.142 29.0406C317.099 29.0141 317.05 29 317 29C316.95 29 316.901 29.0141 316.858 29.0406C316.816 29.0671 316.782 29.105 316.76 29.15L315.809 31.0775C315.79 31.1165 315.762 31.1503 315.727 31.1759C315.692 31.2015 315.651 31.2182 315.608 31.2245L313.478 31.5335C313.429 31.5409 313.383 31.5619 313.345 31.594C313.307 31.6261 313.279 31.6681 313.264 31.7153C313.249 31.7625 313.247 31.813 313.259 31.8612C313.271 31.9093 313.296 31.9533 313.331 31.988L314.87 33.4895C314.933 33.551 314.962 33.6395 314.947 33.7265L314.585 35.8475C314.577 35.8965 314.583 35.9468 314.601 35.9927C314.62 36.0386 314.651 36.0784 314.692 36.1075C314.732 36.1367 314.779 36.154 314.829 36.1576C314.878 36.1613 314.928 36.151 314.972 36.128L316.877 35.126C316.915 35.106 316.958 35.0956 317.001 35.0956C317.044 35.0956 317.086 35.106 317.125 35.126L319.029 36.128C319.073 36.1506 319.123 36.1605 319.172 36.1567C319.221 36.1529 319.269 36.1355 319.309 36.1064C319.349 36.0773 319.38 36.0377 319.398 35.992C319.417 35.9463 319.423 35.8963 319.415 35.8475L319.052 33.725C319.044 33.6824 319.047 33.6385 319.06 33.5972C319.073 33.556 319.096 33.5185 319.127 33.488L320.669 31.9865C320.704 31.9518 320.729 31.9078 320.741 31.8597C320.753 31.8115 320.751 31.761 320.736 31.7138C320.721 31.6666 320.693 31.6246 320.655 31.5925C320.617 31.5604 320.571 31.5394 320.522 31.532L318.392 31.223C318.349 31.2167 318.308 31.2 318.273 31.1744C318.238 31.1488 318.21 31.115 318.191 31.076L317.24 29.15Z" fill="#FE5858"/>
<defs>
<filter id="filter0_d_2009_708" x="0" y="0" width="353" height="188" filterUnits="userSpaceOnUse" color-interpolation-filters="sRGB">
<feFlood flood-opacity="0" result="BackgroundImageFix"/>
<feColorMatrix in="SourceAlpha" type="matrix" values="0 0 0 0 0 0 0 0 0 0 0 0 0 0 0 0 0 0 127 0" result="hardAlpha"/>
<feOffset dy="4"/>
<feGaussianBlur stdDeviation="2"/>
<feComposite in2="hardAlpha" operator="out"/>
<feColorMatrix type="matrix" values="0 0 0 0 0.839216 0 0 0 0 0.286275 0 0 0 0 0.286275 0 0 0 0.15 0"/>
<feBlend mode="normal" in2="BackgroundImageFix" result="effect1_dropShadow_2009_708"/>
<feBlend mode="normal" in="SourceGraphic" in2="effect1_dropShadow_2009_708" result="shape"/>
</filter>
</defs>
</svg>
