<svg width="390" height="513" viewBox="0 0 390 513" fill="none" xmlns="http://www.w3.org/2000/svg">
<rect width="390" height="513" fill="white"/>
<path fill-rule="evenodd" clip-rule="evenodd" d="M194.678 214C148.015 214 109.934 177.183 107.799 130.961H281.557C279.421 177.183 241.341 214 194.678 214Z" fill="#FE5858"/>
<path d="M123.16 88.3115C103.255 101.606 106.462 122.656 110.553 131.519H279.08C285.715 97.7504 267.69 81.775 257.848 78.0084C252.54 54.6096 231.529 51.8618 221.688 53.4127C199.129 30.0137 176.239 43.6631 167.613 53.4127C138.42 50.7538 125.813 75.5706 123.16 88.3115Z" fill="white"/>
<path fill-rule="evenodd" clip-rule="evenodd" d="M189.859 43.4366C180.923 45.0213 173.516 50.4989 169.475 55.0662L168.641 56.0093L167.388 55.8952C153.634 54.6425 143.905 59.8267 137.231 66.811C130.479 73.8773 126.846 82.8164 125.595 88.8207L125.387 89.8195L124.54 90.3855C115.217 96.6125 111.4 104.552 110.32 111.939C109.345 118.6 110.595 124.868 112.201 129.027H277.007C282.313 97.8865 265.526 83.6153 256.96 80.3371L255.717 79.8612L255.422 78.5608C252.944 67.6404 246.889 61.7095 240.396 58.604C233.786 55.4425 226.597 55.1624 222.074 55.8752L220.797 56.0765L219.898 55.1445C209.156 44.0026 198.613 41.8841 189.859 43.4366ZM222.588 50.7772C211.051 39.2885 199.216 36.7141 188.992 38.5274C179.294 40.2472 171.328 45.8582 166.601 50.8324C151.8 49.8426 141.024 55.6324 133.637 63.3633C126.486 70.8473 122.52 80.1226 120.945 86.808C110.958 93.7977 106.631 102.77 105.396 111.216C104.141 119.793 106.076 127.759 108.295 132.566L108.963 134.012H281.126L281.521 132.001C288.145 98.2851 271.01 81.1456 259.968 76.1926C256.956 64.4924 250.072 57.7075 242.54 54.1048C235.453 50.7152 227.893 50.1816 222.588 50.7772Z" fill="#FE5858"/>
<path d="M122.907 88.3115C103.002 101.606 106.209 122.656 110.301 131.519H278.827C285.462 97.7504 267.437 81.775 257.595 78.0084C252.287 54.6096 231.277 51.8618 221.435 53.4127C198.876 30.0137 175.986 43.6631 167.361 53.4127C138.167 50.7538 125.561 75.5706 122.907 88.3115Z" fill="white"/>
<path fill-rule="evenodd" clip-rule="evenodd" d="M189.859 43.4368C180.924 45.0215 173.516 50.4991 169.475 55.0664L168.641 56.0096L167.388 55.8955C153.634 54.6428 143.905 59.8269 137.231 66.8112C130.479 73.8775 126.846 82.8167 125.595 88.8209L125.387 89.8198L124.54 90.3858C115.217 96.6127 111.4 104.552 110.32 111.939C109.345 118.6 110.595 124.868 112.201 129.027H277.008C282.313 97.8867 265.526 83.6155 256.96 80.3373L255.717 79.8614L255.422 78.5611C252.945 67.6406 246.889 61.7097 240.396 58.6042C233.786 55.4427 226.598 55.1626 222.074 55.8754L220.797 56.0768L219.898 55.1448C209.157 44.0029 198.613 41.8843 189.859 43.4368ZM222.588 50.7775C211.051 39.2887 199.216 36.7144 188.992 38.5276C179.294 40.2475 171.328 45.8584 166.602 50.8327C151.8 49.8428 141.024 55.6327 133.637 63.3636C126.486 70.8476 122.52 80.1228 120.945 86.8082C110.958 93.798 106.632 102.77 105.396 111.216C104.142 119.793 106.076 127.759 108.295 132.566L108.963 134.012H170.806C171.316 137.063 171.856 139.144 172.742 141.02C173.601 142.839 174.739 144.355 176.164 146.253L176.241 146.355L180.218 143.359C178.685 141.316 177.857 140.195 177.241 138.888C176.703 137.749 176.286 136.376 175.857 134.012H211.785C211.356 136.376 210.939 137.749 210.402 138.888C209.785 140.195 208.958 141.316 207.425 143.359L211.402 146.355L211.479 146.253C212.903 144.355 214.041 142.839 214.9 141.02C215.786 139.144 216.326 137.063 216.836 134.012H281.126L281.521 132.001C288.145 98.2853 271.01 81.1458 259.969 76.1928C256.956 64.4926 250.073 57.7077 242.54 54.1051C235.453 50.7154 227.893 50.1818 222.588 50.7775Z" fill="#FE5858"/>
<path d="M212.067 131.23C212.067 141.326 203.898 149.51 193.821 149.51C183.744 149.51 175.575 141.326 175.575 131.23C175.575 121.134 183.744 112.949 193.821 112.949C203.898 112.949 212.067 121.134 212.067 131.23Z" fill="#FE5858"/>
<path fill-rule="evenodd" clip-rule="evenodd" d="M193.821 144.525C201.15 144.525 207.091 138.572 207.091 131.23C207.091 123.887 201.15 117.935 193.821 117.935C186.492 117.935 180.551 123.887 180.551 131.23C180.551 138.572 186.492 144.525 193.821 144.525ZM193.821 149.51C203.898 149.51 212.067 141.326 212.067 131.23C212.067 121.134 203.898 112.949 193.821 112.949C183.744 112.949 175.575 121.134 175.575 131.23C175.575 141.326 183.744 149.51 193.821 149.51Z" fill="white"/>
<path d="M248.739 95.3337C250.326 94.4159 252.355 94.9606 253.271 96.5503V96.5503C254.187 98.14 253.643 100.173 252.057 101.091L200.343 131.004C198.756 131.922 196.727 131.377 195.811 129.787V129.787C194.895 128.197 195.439 126.165 197.025 125.247L248.739 95.3337Z" fill="#FE5858"/>
<path d="M159.87 114.385C158.284 113.467 157.74 111.435 158.656 109.845V109.845C159.572 108.255 161.601 107.711 163.188 108.628L186.172 121.923C187.758 122.841 188.302 124.874 187.386 126.463V126.463C186.47 128.053 184.441 128.598 182.854 127.68L159.87 114.385Z" fill="#FE5858"/>
<rect x="30" y="425" width="329" height="50.3058" rx="8" fill="#FFF6F6"/>
<path d="M49.5682 450.75V456H48.2273V444.364H49.5682V448.636H49.6818C49.8864 448.186 50.1932 447.828 50.6023 447.562C51.0152 447.294 51.5644 447.159 52.25 447.159C52.8447 447.159 53.3655 447.278 53.8125 447.517C54.2595 447.752 54.6061 448.114 54.8523 448.602C55.1023 449.087 55.2273 449.705 55.2273 450.455V456H53.8864V450.545C53.8864 449.852 53.7064 449.316 53.3466 448.938C52.9905 448.555 52.4962 448.364 51.8636 448.364C51.4242 448.364 51.0303 448.456 50.6818 448.642C50.3371 448.828 50.0644 449.098 49.8636 449.455C49.6667 449.811 49.5682 450.242 49.5682 450.75ZM61.1559 447.273V448.409H56.6331V447.273H61.1559ZM57.9513 445.182H59.2922V453.5C59.2922 453.879 59.3471 454.163 59.457 454.352C59.5706 454.538 59.7146 454.663 59.8888 454.727C60.0668 454.788 60.2543 454.818 60.4513 454.818C60.599 454.818 60.7202 454.811 60.8149 454.795C60.9096 454.777 60.9854 454.761 61.0422 454.75L61.3149 455.955C61.224 455.989 61.0971 456.023 60.9343 456.057C60.7714 456.095 60.5649 456.114 60.3149 456.114C59.9362 456.114 59.5649 456.032 59.2013 455.869C58.8415 455.706 58.5422 455.458 58.3036 455.125C58.0687 454.792 57.9513 454.371 57.9513 453.864V445.182ZM66.6484 447.273V448.409H62.1256V447.273H66.6484ZM63.4438 445.182H64.7847V453.5C64.7847 453.879 64.8396 454.163 64.9495 454.352C65.0631 454.538 65.2071 454.663 65.3813 454.727C65.5593 454.788 65.7468 454.818 65.9438 454.818C66.0915 454.818 66.2127 454.811 66.3074 454.795C66.4021 454.777 66.4779 454.761 66.5347 454.75L66.8074 455.955C66.7165 455.989 66.5896 456.023 66.4268 456.057C66.2639 456.095 66.0574 456.114 65.8074 456.114C65.4287 456.114 65.0574 456.032 64.6938 455.869C64.334 455.706 64.0347 455.458 63.7961 455.125C63.5612 454.792 63.4438 454.371 63.4438 453.864V445.182ZM68.3454 459.273V447.273H69.6409V448.659H69.7999C69.8984 448.508 70.0348 448.314 70.209 448.08C70.3871 447.841 70.6409 447.629 70.9704 447.443C71.3037 447.254 71.7545 447.159 72.3227 447.159C73.0575 447.159 73.7052 447.343 74.2659 447.71C74.8265 448.078 75.264 448.598 75.5784 449.273C75.8927 449.947 76.0499 450.742 76.0499 451.659C76.0499 452.583 75.8927 453.384 75.5784 454.062C75.264 454.737 74.8284 455.259 74.2715 455.631C73.7147 455.998 73.0727 456.182 72.3454 456.182C71.7848 456.182 71.3359 456.089 70.9988 455.903C70.6617 455.714 70.4022 455.5 70.2204 455.261C70.0386 455.019 69.8984 454.818 69.7999 454.659H69.6863V459.273H68.3454ZM69.6636 451.636C69.6636 452.295 69.7602 452.877 69.9534 453.381C70.1465 453.881 70.4287 454.273 70.7999 454.557C71.1712 454.837 71.6257 454.977 72.1636 454.977C72.7242 454.977 73.192 454.83 73.567 454.534C73.9458 454.235 74.2299 453.833 74.4193 453.33C74.6124 452.822 74.709 452.258 74.709 451.636C74.709 451.023 74.6143 450.47 74.4249 449.977C74.2393 449.481 73.9571 449.089 73.5784 448.801C73.2034 448.509 72.7318 448.364 72.1636 448.364C71.6181 448.364 71.1598 448.502 70.7886 448.778C70.4174 449.051 70.1371 449.434 69.9477 449.926C69.7583 450.415 69.6636 450.985 69.6636 451.636ZM83.9572 449.227L82.7527 449.568C82.6769 449.367 82.5652 449.172 82.4174 448.983C82.2735 448.79 82.0765 448.631 81.8265 448.506C81.5765 448.381 81.2565 448.318 80.8663 448.318C80.3322 448.318 79.8871 448.441 79.5311 448.688C79.1788 448.93 79.0027 449.239 79.0027 449.614C79.0027 449.947 79.1239 450.21 79.3663 450.403C79.6087 450.597 79.9875 450.758 80.5027 450.886L81.7981 451.205C82.5784 451.394 83.1599 451.684 83.5424 452.074C83.925 452.46 84.1163 452.958 84.1163 453.568C84.1163 454.068 83.9724 454.515 83.6845 454.909C83.4004 455.303 83.0027 455.614 82.4913 455.841C81.9799 456.068 81.3852 456.182 80.7072 456.182C79.8171 456.182 79.0803 455.989 78.497 455.602C77.9137 455.216 77.5443 454.652 77.389 453.909L78.6618 453.591C78.783 454.061 79.0121 454.413 79.3493 454.648C79.6902 454.883 80.1352 455 80.6845 455C81.3095 455 81.8057 454.867 82.1731 454.602C82.5443 454.333 82.7299 454.011 82.7299 453.636C82.7299 453.333 82.6239 453.08 82.4118 452.875C82.1996 452.667 81.8739 452.511 81.4345 452.409L79.9799 452.068C79.1807 451.879 78.5936 451.585 78.2186 451.188C77.8474 450.786 77.6618 450.284 77.6618 449.682C77.6618 449.189 77.8 448.754 78.0765 448.375C78.3568 447.996 78.7375 447.699 79.2186 447.483C79.7034 447.267 80.2527 447.159 80.8663 447.159C81.7299 447.159 82.408 447.348 82.9004 447.727C83.3966 448.106 83.7489 448.606 83.9572 449.227ZM86.792 456.091C86.5117 456.091 86.2712 455.991 86.0705 455.79C85.8697 455.589 85.7693 455.348 85.7693 455.068C85.7693 454.788 85.8697 454.547 86.0705 454.347C86.2712 454.146 86.5117 454.045 86.792 454.045C87.0724 454.045 87.3129 454.146 87.5136 454.347C87.7144 454.547 87.8148 454.788 87.8148 455.068C87.8148 455.254 87.7674 455.424 87.6727 455.58C87.5818 455.735 87.4587 455.86 87.3034 455.955C87.1519 456.045 86.9814 456.091 86.792 456.091ZM86.792 449.614C86.5117 449.614 86.2712 449.513 86.0705 449.312C85.8697 449.112 85.7693 448.871 85.7693 448.591C85.7693 448.311 85.8697 448.07 86.0705 447.869C86.2712 447.669 86.5117 447.568 86.792 447.568C87.0724 447.568 87.3129 447.669 87.5136 447.869C87.7144 448.07 87.8148 448.311 87.8148 448.591C87.8148 448.777 87.7674 448.947 87.6727 449.102C87.5818 449.258 87.4587 449.383 87.3034 449.477C87.1519 449.568 86.9814 449.614 86.792 449.614ZM94.0147 443.818L90.2647 457.75H89.0374L92.7874 443.818H94.0147ZM99.3978 443.818L95.6478 457.75H94.4205L98.1705 443.818H99.3978ZM106.622 459.273V454.659H106.508C106.41 454.818 106.27 455.019 106.088 455.261C105.906 455.5 105.646 455.714 105.309 455.903C104.972 456.089 104.523 456.182 103.963 456.182C103.235 456.182 102.593 455.998 102.037 455.631C101.48 455.259 101.044 454.737 100.73 454.062C100.415 453.384 100.258 452.583 100.258 451.659C100.258 450.742 100.415 449.947 100.73 449.273C101.044 448.598 101.482 448.078 102.042 447.71C102.603 447.343 103.251 447.159 103.985 447.159C104.554 447.159 105.002 447.254 105.332 447.443C105.665 447.629 105.919 447.841 106.093 448.08C106.271 448.314 106.41 448.508 106.508 448.659H106.667V447.273H107.963V459.273H106.622ZM104.145 454.977C104.682 454.977 105.137 454.837 105.508 454.557C105.879 454.273 106.162 453.881 106.355 453.381C106.548 452.877 106.645 452.295 106.645 451.636C106.645 450.985 106.55 450.415 106.36 449.926C106.171 449.434 105.891 449.051 105.52 448.778C105.148 448.502 104.69 448.364 104.145 448.364C103.576 448.364 103.103 448.509 102.724 448.801C102.349 449.089 102.067 449.481 101.877 449.977C101.692 450.47 101.599 451.023 101.599 451.636C101.599 452.258 101.694 452.822 101.883 453.33C102.076 453.833 102.36 454.235 102.735 454.534C103.114 454.83 103.584 454.977 104.145 454.977ZM110.097 456V447.273H111.393V448.591H111.484C111.643 448.159 111.931 447.809 112.347 447.54C112.764 447.271 113.234 447.136 113.756 447.136C113.855 447.136 113.978 447.138 114.126 447.142C114.273 447.146 114.385 447.152 114.461 447.159V448.523C114.415 448.511 114.311 448.494 114.148 448.472C113.989 448.445 113.821 448.432 113.643 448.432C113.218 448.432 112.84 448.521 112.506 448.699C112.177 448.873 111.915 449.116 111.722 449.426C111.533 449.733 111.438 450.083 111.438 450.477V456H110.097ZM115.708 456.091C115.427 456.091 115.187 455.991 114.986 455.79C114.785 455.589 114.685 455.348 114.685 455.068C114.685 454.788 114.785 454.547 114.986 454.347C115.187 454.146 115.427 454.045 115.708 454.045C115.988 454.045 116.229 454.146 116.429 454.347C116.63 454.547 116.73 454.788 116.73 455.068C116.73 455.254 116.683 455.424 116.588 455.58C116.497 455.735 116.374 455.86 116.219 455.955C116.068 456.045 115.897 456.091 115.708 456.091ZM120.067 452.818L120.044 451.159H120.317L124.135 447.273H125.794L121.726 451.386H121.612L120.067 452.818ZM118.817 456V444.364H120.158V456H118.817ZM124.362 456L120.953 451.682L121.908 450.75L126.067 456H124.362ZM129.768 456.205C129.215 456.205 128.713 456.1 128.262 455.892C127.812 455.68 127.454 455.375 127.188 454.977C126.923 454.576 126.791 454.091 126.791 453.523C126.791 453.023 126.889 452.617 127.086 452.307C127.283 451.992 127.546 451.746 127.876 451.568C128.205 451.39 128.569 451.258 128.967 451.17C129.368 451.08 129.772 451.008 130.177 450.955C130.707 450.886 131.137 450.835 131.467 450.801C131.8 450.763 132.043 450.701 132.194 450.614C132.349 450.527 132.427 450.375 132.427 450.159V450.114C132.427 449.553 132.274 449.117 131.967 448.807C131.664 448.496 131.204 448.341 130.586 448.341C129.946 448.341 129.444 448.481 129.08 448.761C128.717 449.042 128.461 449.341 128.313 449.659L127.041 449.205C127.268 448.674 127.571 448.261 127.95 447.966C128.332 447.667 128.749 447.458 129.2 447.341C129.654 447.22 130.101 447.159 130.541 447.159C130.821 447.159 131.143 447.193 131.507 447.261C131.874 447.326 132.228 447.46 132.569 447.665C132.914 447.869 133.2 448.178 133.427 448.591C133.654 449.004 133.768 449.557 133.768 450.25V456H132.427V454.818H132.359C132.268 455.008 132.116 455.21 131.904 455.426C131.692 455.642 131.41 455.826 131.058 455.977C130.705 456.129 130.276 456.205 129.768 456.205ZM129.973 455C130.503 455 130.95 454.896 131.313 454.688C131.681 454.479 131.957 454.21 132.143 453.881C132.332 453.551 132.427 453.205 132.427 452.841V451.614C132.37 451.682 132.245 451.744 132.052 451.801C131.863 451.854 131.643 451.902 131.393 451.943C131.147 451.981 130.906 452.015 130.671 452.045C130.44 452.072 130.253 452.095 130.109 452.114C129.76 452.159 129.435 452.233 129.132 452.335C128.832 452.434 128.59 452.583 128.404 452.784C128.223 452.981 128.132 453.25 128.132 453.591C128.132 454.057 128.304 454.409 128.649 454.648C128.997 454.883 129.438 455 129.973 455ZM137.145 452.818L137.123 451.159H137.395L141.214 447.273H142.873L138.804 451.386H138.691L137.145 452.818ZM135.895 456V444.364H137.236V456H135.895ZM141.441 456L138.032 451.682L138.986 450.75L143.145 456H141.441ZM146.847 456.205C146.294 456.205 145.792 456.1 145.341 455.892C144.89 455.68 144.532 455.375 144.267 454.977C144.002 454.576 143.869 454.091 143.869 453.523C143.869 453.023 143.968 452.617 144.165 452.307C144.362 451.992 144.625 451.746 144.955 451.568C145.284 451.39 145.648 451.258 146.046 451.17C146.447 451.08 146.85 451.008 147.256 450.955C147.786 450.886 148.216 450.835 148.546 450.801C148.879 450.763 149.121 450.701 149.273 450.614C149.428 450.527 149.506 450.375 149.506 450.159V450.114C149.506 449.553 149.352 449.117 149.046 448.807C148.743 448.496 148.282 448.341 147.665 448.341C147.025 448.341 146.523 448.481 146.159 448.761C145.796 449.042 145.54 449.341 145.392 449.659L144.119 449.205C144.347 448.674 144.65 448.261 145.029 447.966C145.411 447.667 145.828 447.458 146.279 447.341C146.733 447.22 147.18 447.159 147.619 447.159C147.9 447.159 148.222 447.193 148.585 447.261C148.953 447.326 149.307 447.46 149.648 447.665C149.993 447.869 150.279 448.178 150.506 448.591C150.733 449.004 150.847 449.557 150.847 450.25V456H149.506V454.818H149.438C149.347 455.008 149.195 455.21 148.983 455.426C148.771 455.642 148.489 455.826 148.136 455.977C147.784 456.129 147.354 456.205 146.847 456.205ZM147.051 455C147.582 455 148.029 454.896 148.392 454.688C148.76 454.479 149.036 454.21 149.222 453.881C149.411 453.551 149.506 453.205 149.506 452.841V451.614C149.449 451.682 149.324 451.744 149.131 451.801C148.941 451.854 148.722 451.902 148.472 451.943C148.225 451.981 147.985 452.015 147.75 452.045C147.519 452.072 147.332 452.095 147.188 452.114C146.839 452.159 146.513 452.233 146.21 452.335C145.911 452.434 145.669 452.583 145.483 452.784C145.301 452.981 145.21 453.25 145.21 453.591C145.21 454.057 145.383 454.409 145.727 454.648C146.076 454.883 146.517 455 147.051 455ZM156.52 456.182C155.732 456.182 155.04 455.994 154.446 455.619C153.855 455.244 153.393 454.72 153.059 454.045C152.73 453.371 152.565 452.583 152.565 451.682C152.565 450.773 152.73 449.979 153.059 449.301C153.393 448.623 153.855 448.097 154.446 447.722C155.04 447.347 155.732 447.159 156.52 447.159C157.307 447.159 157.997 447.347 158.588 447.722C159.182 448.097 159.645 448.623 159.974 449.301C160.307 449.979 160.474 450.773 160.474 451.682C160.474 452.583 160.307 453.371 159.974 454.045C159.645 454.72 159.182 455.244 158.588 455.619C157.997 455.994 157.307 456.182 156.52 456.182ZM156.52 454.977C157.118 454.977 157.611 454.824 157.997 454.517C158.383 454.21 158.669 453.807 158.855 453.307C159.04 452.807 159.133 452.265 159.133 451.682C159.133 451.098 159.04 450.555 158.855 450.051C158.669 449.547 158.383 449.14 157.997 448.83C157.611 448.519 157.118 448.364 156.52 448.364C155.921 448.364 155.429 448.519 155.042 448.83C154.656 449.14 154.37 449.547 154.184 450.051C153.999 450.555 153.906 451.098 153.906 451.682C153.906 452.265 153.999 452.807 154.184 453.307C154.37 453.807 154.656 454.21 155.042 454.517C155.429 454.824 155.921 454.977 156.52 454.977ZM162.201 459.273V447.273H163.496V448.659H163.656C163.754 448.508 163.89 448.314 164.065 448.08C164.243 447.841 164.496 447.629 164.826 447.443C165.159 447.254 165.61 447.159 166.178 447.159C166.913 447.159 167.561 447.343 168.121 447.71C168.682 448.078 169.12 448.598 169.434 449.273C169.748 449.947 169.906 450.742 169.906 451.659C169.906 452.583 169.748 453.384 169.434 454.062C169.12 454.737 168.684 455.259 168.127 455.631C167.57 455.998 166.928 456.182 166.201 456.182C165.64 456.182 165.192 456.089 164.854 455.903C164.517 455.714 164.258 455.5 164.076 455.261C163.894 455.019 163.754 454.818 163.656 454.659H163.542V459.273H162.201ZM163.519 451.636C163.519 452.295 163.616 452.877 163.809 453.381C164.002 453.881 164.284 454.273 164.656 454.557C165.027 454.837 165.481 454.977 166.019 454.977C166.58 454.977 167.048 454.83 167.423 454.534C167.801 454.235 168.085 453.833 168.275 453.33C168.468 452.822 168.565 452.258 168.565 451.636C168.565 451.023 168.47 450.47 168.281 449.977C168.095 449.481 167.813 449.089 167.434 448.801C167.059 448.509 166.587 448.364 166.019 448.364C165.474 448.364 165.015 448.502 164.644 448.778C164.273 449.051 163.993 449.434 163.803 449.926C163.614 450.415 163.519 450.985 163.519 451.636ZM174.199 456.205C173.646 456.205 173.144 456.1 172.694 455.892C172.243 455.68 171.885 455.375 171.62 454.977C171.355 454.576 171.222 454.091 171.222 453.523C171.222 453.023 171.32 452.617 171.517 452.307C171.714 451.992 171.978 451.746 172.307 451.568C172.637 451.39 173 451.258 173.398 451.17C173.8 451.08 174.203 451.008 174.608 450.955C175.139 450.886 175.569 450.835 175.898 450.801C176.231 450.763 176.474 450.701 176.625 450.614C176.781 450.527 176.858 450.375 176.858 450.159V450.114C176.858 449.553 176.705 449.117 176.398 448.807C176.095 448.496 175.635 448.341 175.017 448.341C174.377 448.341 173.875 448.481 173.512 448.761C173.148 449.042 172.892 449.341 172.745 449.659L171.472 449.205C171.699 448.674 172.002 448.261 172.381 447.966C172.764 447.667 173.18 447.458 173.631 447.341C174.086 447.22 174.533 447.159 174.972 447.159C175.252 447.159 175.574 447.193 175.938 447.261C176.305 447.326 176.659 447.46 177 447.665C177.345 447.869 177.631 448.178 177.858 448.591C178.086 449.004 178.199 449.557 178.199 450.25V456H176.858V454.818H176.79C176.699 455.008 176.548 455.21 176.336 455.426C176.123 455.642 175.841 455.826 175.489 455.977C175.137 456.129 174.707 456.205 174.199 456.205ZM174.404 455C174.934 455 175.381 454.896 175.745 454.688C176.112 454.479 176.389 454.21 176.574 453.881C176.764 453.551 176.858 453.205 176.858 452.841V451.614C176.801 451.682 176.676 451.744 176.483 451.801C176.294 451.854 176.074 451.902 175.824 451.943C175.578 451.981 175.337 452.015 175.103 452.045C174.872 452.072 174.684 452.095 174.54 452.114C174.192 452.159 173.866 452.233 173.563 452.335C173.264 452.434 173.021 452.583 172.836 452.784C172.654 452.981 172.563 453.25 172.563 453.591C172.563 454.057 172.735 454.409 173.08 454.648C173.428 454.883 173.87 455 174.404 455ZM180.878 459.273C180.651 459.273 180.448 459.254 180.27 459.216C180.092 459.182 179.969 459.148 179.901 459.114L180.241 457.932C180.567 458.015 180.855 458.045 181.105 458.023C181.355 458 181.577 457.888 181.77 457.688C181.967 457.491 182.147 457.17 182.31 456.727L182.56 456.045L179.332 447.273H180.787L183.196 454.227H183.287L185.696 447.273H187.151L183.446 457.273C183.279 457.723 183.073 458.097 182.827 458.392C182.58 458.691 182.294 458.913 181.969 459.057C181.647 459.201 181.283 459.273 180.878 459.273ZM189.031 456.091C188.75 456.091 188.51 455.991 188.309 455.79C188.108 455.589 188.008 455.348 188.008 455.068C188.008 454.788 188.108 454.547 188.309 454.347C188.51 454.146 188.75 454.045 189.031 454.045C189.311 454.045 189.552 454.146 189.752 454.347C189.953 454.547 190.054 454.788 190.054 455.068C190.054 455.254 190.006 455.424 189.911 455.58C189.821 455.735 189.697 455.86 189.542 455.955C189.391 456.045 189.22 456.091 189.031 456.091ZM195.685 456.182C194.867 456.182 194.163 455.989 193.572 455.602C192.981 455.216 192.526 454.684 192.208 454.006C191.89 453.328 191.731 452.553 191.731 451.682C191.731 450.795 191.894 450.013 192.219 449.335C192.549 448.653 193.007 448.121 193.594 447.739C194.185 447.352 194.875 447.159 195.663 447.159C196.276 447.159 196.829 447.273 197.322 447.5C197.814 447.727 198.217 448.045 198.532 448.455C198.846 448.864 199.041 449.341 199.117 449.886H197.776C197.674 449.489 197.447 449.136 197.094 448.83C196.746 448.519 196.276 448.364 195.685 448.364C195.163 448.364 194.704 448.5 194.31 448.773C193.92 449.042 193.615 449.422 193.395 449.915C193.18 450.403 193.072 450.977 193.072 451.636C193.072 452.311 193.178 452.898 193.39 453.398C193.606 453.898 193.909 454.286 194.299 454.562C194.693 454.839 195.155 454.977 195.685 454.977C196.034 454.977 196.35 454.917 196.634 454.795C196.918 454.674 197.159 454.5 197.356 454.273C197.553 454.045 197.693 453.773 197.776 453.455H199.117C199.041 453.97 198.854 454.434 198.555 454.847C198.259 455.256 197.867 455.581 197.378 455.824C196.894 456.062 196.329 456.182 195.685 456.182ZM204.303 456.182C203.515 456.182 202.824 455.994 202.229 455.619C201.638 455.244 201.176 454.72 200.842 454.045C200.513 453.371 200.348 452.583 200.348 451.682C200.348 450.773 200.513 449.979 200.842 449.301C201.176 448.623 201.638 448.097 202.229 447.722C202.824 447.347 203.515 447.159 204.303 447.159C205.091 447.159 205.78 447.347 206.371 447.722C206.966 448.097 207.428 448.623 207.757 449.301C208.091 449.979 208.257 450.773 208.257 451.682C208.257 452.583 208.091 453.371 207.757 454.045C207.428 454.72 206.966 455.244 206.371 455.619C205.78 455.994 205.091 456.182 204.303 456.182ZM204.303 454.977C204.901 454.977 205.394 454.824 205.78 454.517C206.166 454.21 206.452 453.807 206.638 453.307C206.824 452.807 206.916 452.265 206.916 451.682C206.916 451.098 206.824 450.555 206.638 450.051C206.452 449.547 206.166 449.14 205.78 448.83C205.394 448.519 204.901 448.364 204.303 448.364C203.704 448.364 203.212 448.519 202.825 448.83C202.439 449.14 202.153 449.547 201.967 450.051C201.782 450.555 201.689 451.098 201.689 451.682C201.689 452.265 201.782 452.807 201.967 453.307C202.153 453.807 202.439 454.21 202.825 454.517C203.212 454.824 203.704 454.977 204.303 454.977ZM209.984 456V447.273H211.28V448.636H211.393C211.575 448.17 211.869 447.809 212.274 447.551C212.679 447.29 213.166 447.159 213.734 447.159C214.31 447.159 214.789 447.29 215.172 447.551C215.558 447.809 215.859 448.17 216.075 448.636H216.166C216.389 448.186 216.725 447.828 217.172 447.562C217.619 447.294 218.155 447.159 218.78 447.159C219.56 447.159 220.198 447.403 220.694 447.892C221.191 448.377 221.439 449.133 221.439 450.159V456H220.098V450.159C220.098 449.515 219.922 449.055 219.569 448.778C219.217 448.502 218.802 448.364 218.325 448.364C217.711 448.364 217.236 448.549 216.899 448.92C216.562 449.288 216.393 449.754 216.393 450.318V456H215.03V450.023C215.03 449.527 214.869 449.127 214.547 448.824C214.225 448.517 213.81 448.364 213.302 448.364C212.954 448.364 212.628 448.456 212.325 448.642C212.026 448.828 211.783 449.085 211.598 449.415C211.416 449.741 211.325 450.117 211.325 450.545V456H209.984ZM227.684 443.818L223.934 457.75H222.707L226.457 443.818H227.684ZM229.135 456V444.364H236.113V445.614H230.544V449.545H235.59V450.795H230.544V456H229.135ZM238.683 444.364L242.138 454.159H242.274L245.729 444.364H247.206L242.933 456H241.479L237.206 444.364H238.683ZM252.358 456.159C251.88 456.152 251.403 456.061 250.926 455.886C250.448 455.712 250.013 455.419 249.619 455.006C249.225 454.589 248.909 454.027 248.67 453.318C248.431 452.606 248.312 451.712 248.312 450.636C248.312 449.606 248.409 448.693 248.602 447.898C248.795 447.098 249.075 446.426 249.443 445.881C249.81 445.331 250.253 444.915 250.772 444.631C251.295 444.347 251.884 444.205 252.539 444.205C253.191 444.205 253.77 444.335 254.278 444.597C254.789 444.854 255.206 445.214 255.528 445.676C255.85 446.138 256.058 446.67 256.153 447.273H254.767C254.638 446.75 254.388 446.316 254.017 445.972C253.645 445.627 253.153 445.455 252.539 445.455C251.638 445.455 250.928 445.847 250.409 446.631C249.894 447.415 249.634 448.515 249.63 449.932H249.721C249.933 449.61 250.185 449.335 250.477 449.108C250.772 448.877 251.098 448.699 251.454 448.574C251.81 448.449 252.187 448.386 252.585 448.386C253.251 448.386 253.861 448.553 254.414 448.886C254.967 449.216 255.411 449.672 255.744 450.256C256.077 450.835 256.244 451.5 256.244 452.25C256.244 452.97 256.083 453.629 255.761 454.227C255.439 454.822 254.986 455.295 254.403 455.648C253.823 455.996 253.142 456.167 252.358 456.159ZM252.358 454.909C252.835 454.909 253.263 454.79 253.642 454.551C254.024 454.312 254.325 453.992 254.545 453.591C254.769 453.189 254.88 452.742 254.88 452.25C254.88 451.769 254.772 451.331 254.556 450.938C254.344 450.54 254.051 450.223 253.676 449.989C253.305 449.754 252.88 449.636 252.403 449.636C252.043 449.636 251.708 449.708 251.397 449.852C251.087 449.992 250.814 450.186 250.579 450.432C250.348 450.678 250.166 450.96 250.034 451.278C249.901 451.593 249.835 451.924 249.835 452.273C249.835 452.735 249.943 453.167 250.159 453.568C250.378 453.97 250.678 454.294 251.056 454.54C251.439 454.786 251.873 454.909 252.358 454.909ZM258.363 456V444.364H259.704V448.659H259.817C259.916 448.508 260.052 448.314 260.226 448.08C260.405 447.841 260.658 447.629 260.988 447.443C261.321 447.254 261.772 447.159 262.34 447.159C263.075 447.159 263.723 447.343 264.283 447.71C264.844 448.078 265.281 448.598 265.596 449.273C265.91 449.947 266.067 450.742 266.067 451.659C266.067 452.583 265.91 453.384 265.596 454.062C265.281 454.737 264.846 455.259 264.289 455.631C263.732 455.998 263.09 456.182 262.363 456.182C261.802 456.182 261.353 456.089 261.016 455.903C260.679 455.714 260.42 455.5 260.238 455.261C260.056 455.019 259.916 454.818 259.817 454.659H259.658V456H258.363ZM259.681 451.636C259.681 452.295 259.778 452.877 259.971 453.381C260.164 453.881 260.446 454.273 260.817 454.557C261.189 454.837 261.643 454.977 262.181 454.977C262.742 454.977 263.209 454.83 263.584 454.534C263.963 454.235 264.247 453.833 264.437 453.33C264.63 452.822 264.726 452.258 264.726 451.636C264.726 451.023 264.632 450.47 264.442 449.977C264.257 449.481 263.975 449.089 263.596 448.801C263.221 448.509 262.749 448.364 262.181 448.364C261.636 448.364 261.177 448.502 260.806 448.778C260.435 449.051 260.155 449.434 259.965 449.926C259.776 450.415 259.681 450.985 259.681 451.636ZM267.98 456V444.364H269.389V450.136H269.526L274.753 444.364H276.594L271.708 449.614L276.594 456H274.889L270.844 450.591L269.389 452.227V456H267.98ZM277.916 456V447.273H279.211V448.591H279.302C279.461 448.159 279.749 447.809 280.166 447.54C280.583 447.271 281.052 447.136 281.575 447.136C281.674 447.136 281.797 447.138 281.944 447.142C282.092 447.146 282.204 447.152 282.28 447.159V448.523C282.234 448.511 282.13 448.494 281.967 448.472C281.808 448.445 281.64 448.432 281.461 448.432C281.037 448.432 280.658 448.521 280.325 448.699C279.996 448.873 279.734 449.116 279.541 449.426C279.352 449.733 279.257 450.083 279.257 450.477V456H277.916ZM286.806 459.455C286.159 459.455 285.602 459.371 285.136 459.205C284.67 459.042 284.282 458.826 283.971 458.557C283.664 458.292 283.42 458.008 283.238 457.705L284.306 456.955C284.427 457.114 284.581 457.295 284.766 457.5C284.952 457.708 285.206 457.888 285.528 458.04C285.854 458.195 286.28 458.273 286.806 458.273C287.511 458.273 288.092 458.102 288.551 457.761C289.009 457.42 289.238 456.886 289.238 456.159V454.386H289.124C289.026 454.545 288.886 454.742 288.704 454.977C288.526 455.208 288.268 455.415 287.931 455.597C287.598 455.775 287.147 455.864 286.579 455.864C285.874 455.864 285.242 455.697 284.681 455.364C284.124 455.03 283.683 454.545 283.357 453.909C283.035 453.273 282.874 452.5 282.874 451.591C282.874 450.697 283.032 449.919 283.346 449.256C283.66 448.589 284.098 448.074 284.659 447.71C285.219 447.343 285.867 447.159 286.602 447.159C287.17 447.159 287.621 447.254 287.954 447.443C288.291 447.629 288.549 447.841 288.727 448.08C288.909 448.314 289.049 448.508 289.147 448.659H289.284V447.273H290.579V456.25C290.579 457 290.409 457.61 290.068 458.08C289.73 458.553 289.276 458.9 288.704 459.119C288.136 459.343 287.503 459.455 286.806 459.455ZM286.761 454.659C287.299 454.659 287.753 454.536 288.124 454.29C288.496 454.044 288.778 453.689 288.971 453.227C289.164 452.765 289.261 452.212 289.261 451.568C289.261 450.939 289.166 450.384 288.977 449.903C288.787 449.422 288.507 449.045 288.136 448.773C287.765 448.5 287.306 448.364 286.761 448.364C286.193 448.364 285.719 448.508 285.34 448.795C284.965 449.083 284.683 449.47 284.494 449.955C284.308 450.439 284.215 450.977 284.215 451.568C284.215 452.174 284.31 452.71 284.499 453.176C284.693 453.638 284.977 454.002 285.352 454.267C285.73 454.528 286.2 454.659 286.761 454.659Z" fill="#9A7B7B"/>
<rect x="303" y="438" width="41" height="24" rx="8" fill="#FE5858"/>
<path d="M314.62 452.716V451.456H322.3V455.044H320.716V452.716H314.62ZM316.36 446.428V447.292H320.668V446.428H316.36ZM319.288 449.44H323.512V450.7H313.516V449.44H317.704V448.528H314.788V444.268H316.36V445.24H320.668V444.268H322.24V448.528H319.288V449.44ZM328.383 444.832V446.44C328.383 448.432 329.163 450.436 330.939 451.312L329.979 452.56C328.827 451.972 328.047 450.904 327.591 449.584C327.111 450.988 326.283 452.152 325.035 452.764L324.087 451.48C325.947 450.604 326.787 448.492 326.787 446.44V444.832H328.383ZM334.575 448.228V449.548H332.967V455.032H331.383V443.98H332.967V448.228H334.575Z" fill="white"/>
<path d="M78.858 402.612V400.596H75.6V402.612H78.858ZM81.198 396.78V404.484H73.26V396.78H75.6V398.778H78.858V396.78H81.198ZM83.466 410.478V409.056H77.346V410.478H83.466ZM83.466 407.22V405.78H85.824V412.368H75.006V405.78H77.346V407.22H83.466ZM88.02 399.462V401.406H85.824V405.078H83.448V395.97H85.824V399.462H88.02ZM91.7806 400.938C91.7806 402.216 92.6986 402.99 93.9586 402.99C95.2006 402.99 96.1366 402.216 96.1366 400.938C96.1366 399.642 95.2006 398.886 93.9586 398.886C92.6986 398.886 91.7806 399.642 91.7806 400.938ZM98.4406 400.938C98.4406 403.296 96.4966 404.988 93.9586 404.988C91.4026 404.988 89.4586 403.296 89.4586 400.938C89.4586 398.58 91.4026 396.87 93.9586 396.87C96.4966 396.87 98.4406 398.58 98.4406 400.938ZM91.3306 408.318V406.41H102.383V412.566H100.007V408.318H91.3306ZM104.507 400.056H102.383V401.712H104.507V403.656H102.383V405.744H100.007V395.97H102.383V398.13H104.507V400.056ZM122.783 402.504L120.443 402.27C120.821 400.794 120.875 399.678 120.875 398.58H111.767V396.708H123.251V398.076C123.251 399.39 123.251 400.794 122.783 402.504ZM117.455 410.766C119.705 410.766 120.983 410.316 120.983 409.434C120.983 408.534 119.705 408.084 117.455 408.084C115.223 408.084 113.945 408.534 113.945 409.434C113.945 410.316 115.223 410.766 117.455 410.766ZM117.455 406.302C121.037 406.302 123.341 407.49 123.341 409.434C123.341 411.36 121.037 412.548 117.455 412.548C113.891 412.548 111.587 411.36 111.587 409.434C111.587 407.49 113.891 406.302 117.455 406.302ZM117.995 403.386H125.015V405.258H110.093V403.386H115.619V400.488H117.995V403.386ZM134.086 398.418C131.908 398.418 130.522 399.066 130.522 400.236C130.522 401.424 131.908 402.054 134.086 402.054C136.246 402.054 137.632 401.424 137.632 400.236C137.632 399.066 136.246 398.418 134.086 398.418ZM134.086 403.944C130.54 403.944 128.092 402.504 128.092 400.236C128.092 397.986 130.54 396.528 134.086 396.528C137.614 396.528 140.08 397.986 140.08 400.236C140.08 402.504 137.614 403.944 134.086 403.944ZM141.628 405.186V407.112H138.154V412.53H135.742V407.112H132.412V412.53H130.018V407.112H126.616V405.186H141.628ZM161.11 395.97V406.032H158.716V395.97H161.11ZM157.348 402.99L157.618 404.88C155.152 405.294 152.938 405.366 149.644 405.366H148.186V400.236H153.46V398.832H148.168V396.942H155.8V402H150.526V403.458C153.262 403.44 155.188 403.35 157.348 402.99ZM155.53 410.73C157.708 410.73 158.842 410.334 158.842 409.452C158.842 408.588 157.708 408.192 155.53 408.192C153.37 408.192 152.236 408.588 152.236 409.452C152.236 410.334 153.37 410.73 155.53 410.73ZM155.53 406.338C159.058 406.338 161.218 407.49 161.218 409.452C161.218 411.414 159.058 412.566 155.53 412.566C152.02 412.566 149.86 411.414 149.86 409.452C149.86 407.49 152.02 406.338 155.53 406.338ZM165.123 402.306L175.005 401.982C175.041 401.064 175.041 400.2 175.041 399.354V399.318H165.591V397.428H177.381V399.354C177.381 401.766 177.381 404.052 176.607 407.652L174.267 407.418C174.591 406.068 174.771 404.862 174.879 403.746L165.411 404.232L165.123 402.306ZM163.917 408.642H178.893V410.586H163.917V408.642Z" fill="#FE5858"/>
<path d="M55.5002 395.75C55.5 394.87 55.8093 394.019 56.3739 393.344C56.9384 392.669 57.7223 392.214 58.5883 392.059C59.4543 391.903 60.3474 392.058 61.1113 392.494C61.8751 392.931 62.4611 393.622 62.7667 394.447C63.0723 395.272 63.078 396.179 62.7829 397.007C62.4879 397.836 61.9107 398.535 61.1525 398.981C60.3942 399.428 59.5032 399.593 58.6352 399.449C57.7673 399.305 56.9777 398.86 56.4047 398.192L46.3277 402.872C46.5593 403.606 46.5593 404.394 46.3277 405.128L56.4047 409.808C57.0104 409.104 57.8561 408.649 58.7779 408.533C59.6997 408.416 60.632 408.646 61.3939 409.178C62.1559 409.709 62.6934 410.505 62.9022 411.41C63.1109 412.316 62.9762 413.266 62.524 414.078C62.0719 414.89 61.3345 415.505 60.4548 415.804C59.5751 416.103 58.6157 416.064 57.7626 415.696C56.9095 415.328 56.2233 414.657 55.8372 413.812C55.4511 412.966 55.3925 412.008 55.6727 411.122L45.5957 406.442C45.0968 407.024 44.4319 407.438 43.6903 407.63C42.9488 407.822 42.1662 407.783 41.4478 407.517C40.7294 407.251 40.1097 406.771 39.672 406.143C39.2344 405.514 38.9998 404.766 38.9998 404C38.9998 403.234 39.2344 402.487 39.672 401.858C40.1097 401.229 40.7294 400.749 41.4478 400.484C42.1662 400.218 42.9488 400.178 43.6903 400.37C44.4319 400.562 45.0968 400.977 45.5957 401.558L55.6727 396.878C55.5579 396.513 55.4998 396.133 55.5002 395.75Z" fill="#FE5858"/>
<path d="M119.742 276.17V273.542H115.17V276.17H119.742ZM121.182 269.996V277.34H113.712V269.996H115.17V272.39H119.742V269.996H121.182ZM124.116 283.928V281.894H116.862V283.928H124.116ZM124.116 280.724V278.816H125.574V285.116H115.404V278.816H116.862V280.724H124.116ZM127.968 272.894V274.136H125.574V278.06H124.098V269.186H125.574V272.894H127.968ZM130.99 273.974C130.99 275.486 132.142 276.548 133.762 276.548C135.364 276.548 136.534 275.486 136.534 273.974C136.534 272.444 135.364 271.4 133.762 271.4C132.142 271.4 130.99 272.444 130.99 273.974ZM137.974 273.974C137.974 276.224 136.192 277.79 133.762 277.79C131.314 277.79 129.55 276.224 129.55 273.974C129.55 271.706 131.314 270.158 133.762 270.158C136.192 270.158 137.974 271.706 137.974 273.974ZM131.278 280.742V279.536H141.772V285.332H140.296V280.742H131.278ZM144.13 272.876H141.772V275.108H144.13V276.314H141.772V278.78H140.296V269.204H141.772V271.652H144.13V272.876ZM157.179 269.186H158.655V285.368H157.179V269.186ZM150.141 270.428C152.535 270.428 154.245 272.624 154.245 276.062C154.245 279.5 152.535 281.696 150.141 281.696C147.747 281.696 146.037 279.5 146.037 276.062C146.037 272.624 147.747 270.428 150.141 270.428ZM150.141 271.76C148.557 271.76 147.441 273.452 147.441 276.062C147.441 278.69 148.557 280.382 150.141 280.382C151.707 280.382 152.823 278.69 152.823 276.062C152.823 273.452 151.707 271.76 150.141 271.76ZM172.687 276.926V271.814H168.151V276.926H172.687ZM174.127 270.626V278.096H166.711V270.626H174.127ZM170.005 279.896V283.766H179.293V284.972H168.529V279.896H170.005ZM178.573 274.1H180.967V275.342H178.573V280.994H177.097V269.168H178.573V274.1ZM195.114 273.434V274.622H184.188V269.726H194.952V270.914H185.664V273.434H195.114ZM185.484 282.326V283.982H195.456V285.134H184.044V281.228H193.512V279.68H183.99V278.528H194.97V282.326H185.484ZM182.244 275.918H196.86V277.124H182.244V275.918ZM202.762 280.382C204.292 280.382 205.372 278.69 205.372 276.062C205.372 273.452 204.292 271.76 202.762 271.76C201.214 271.76 200.134 273.452 200.134 276.062C200.134 278.69 201.214 280.382 202.762 280.382ZM210.268 269.186H211.744V285.368H210.268V276.548H206.758C206.614 279.716 205.012 281.696 202.762 281.696C200.404 281.696 198.73 279.5 198.73 276.062C198.73 272.624 200.404 270.428 202.762 270.428C204.94 270.428 206.524 272.318 206.758 275.342H210.268V269.186ZM223.515 272.246H226.449V269.186H227.943V278.636H226.449V276.098H223.515V274.91H226.449V273.434H223.515V272.246ZM224.163 277.178L223.425 278.33C221.607 277.664 220.239 276.368 219.537 274.73C218.853 276.566 217.395 278.006 215.487 278.69L214.713 277.52C217.143 276.674 218.763 274.622 218.763 272.3V271.472H215.181V270.266H223.785V271.472H220.257V272.282C220.257 274.388 221.841 276.35 224.163 277.178ZM226.197 279.14V279.968C226.197 281.642 227.367 283.334 229.437 284.054L228.699 285.134C227.133 284.558 225.999 283.442 225.459 282.074C224.955 283.388 223.983 284.63 222.471 285.278C220.923 284.666 219.951 283.478 219.465 282.128C218.889 283.424 217.791 284.558 216.279 285.134L215.523 284.054C217.575 283.298 218.781 281.552 218.781 279.968V279.14H220.203V279.968C220.203 281.426 220.941 282.956 222.453 283.838C223.983 282.866 224.739 281.228 224.739 279.968V279.14H226.197ZM235.159 280.382C236.689 280.382 237.769 278.69 237.769 276.062C237.769 273.452 236.689 271.76 235.159 271.76C233.611 271.76 232.531 273.452 232.531 276.062C232.531 278.69 233.611 280.382 235.159 280.382ZM242.665 269.186H244.141V285.368H242.665V276.548H239.155C239.011 279.716 237.409 281.696 235.159 281.696C232.801 281.696 231.127 279.5 231.127 276.062C231.127 272.624 232.801 270.428 235.159 270.428C237.337 270.428 238.921 272.318 239.155 275.342H242.665V269.186ZM252.096 278.24V282.038H256.596V278.24C255.912 278.402 255.138 278.492 254.328 278.492C253.536 278.492 252.762 278.402 252.096 278.24ZM254.328 271.364C251.736 271.364 249.882 272.552 249.882 274.352C249.882 276.152 251.736 277.34 254.328 277.34C256.92 277.34 258.792 276.152 258.792 274.352C258.792 272.552 256.92 271.364 254.328 271.364ZM258.072 282.038H261.69V283.262H247.02V282.038H250.62V277.682C249.27 276.98 248.46 275.81 248.46 274.352C248.46 271.832 250.908 270.212 254.328 270.212C257.766 270.212 260.196 271.832 260.196 274.352C260.196 275.81 259.404 276.962 258.072 277.664V282.038ZM270.381 270.909L270.215 280.235H268.444L268.278 270.909H270.381ZM269.333 284.121C268.979 284.121 268.676 283.998 268.425 283.751C268.174 283.499 268.05 283.197 268.054 282.843C268.05 282.494 268.174 282.195 268.425 281.948C268.676 281.697 268.979 281.571 269.333 281.571C269.678 281.571 269.976 281.697 270.228 281.948C270.479 282.195 270.607 282.494 270.611 282.843C270.607 283.077 270.545 283.293 270.426 283.489C270.311 283.68 270.157 283.834 269.965 283.949C269.774 284.064 269.563 284.121 269.333 284.121ZM275.312 270.909L275.146 280.235H273.375L273.209 270.909H275.312ZM274.264 284.121C273.91 284.121 273.607 283.998 273.356 283.751C273.105 283.499 272.981 283.197 272.985 282.843C272.981 282.494 273.105 282.195 273.356 281.948C273.607 281.697 273.91 281.571 274.264 281.571C274.609 281.571 274.907 281.697 275.159 281.948C275.41 282.195 275.538 282.494 275.542 282.843C275.538 283.077 275.476 283.293 275.357 283.489C275.242 283.68 275.088 283.834 274.896 283.949C274.705 284.064 274.494 284.121 274.264 284.121ZM75.0813 310.508C76.5573 310.508 77.6193 309.464 77.6193 308.024C77.6193 306.566 76.5573 305.522 75.0813 305.522C73.6233 305.522 72.5613 306.566 72.5613 308.024C72.5613 309.464 73.6233 310.508 75.0813 310.508ZM75.0813 304.298C77.3853 304.298 79.0233 305.846 79.0233 308.024C79.0233 310.22 77.3853 311.732 75.0813 311.732C72.8133 311.732 71.1753 310.22 71.1753 308.024C71.1753 305.846 72.8133 304.298 75.0813 304.298ZM75.8013 299.384V301.778H79.7793V302.966H70.2573V301.778H74.3253V299.384H75.8013ZM85.4313 305.828V307.07H82.7853V315.332H81.3093V299.204H82.7853V305.828H85.4313ZM95.8879 306.26L96.0499 307.448C93.8359 307.898 91.9279 308.006 88.5439 308.006H87.2839V300.59H94.4299V301.778H88.7599V306.8C91.9459 306.8 93.7819 306.674 95.8879 306.26ZM90.5059 309.698V313.766H99.7939V314.972H89.0299V309.698H90.5059ZM99.0739 303.974H101.468V305.198H99.0739V310.868H97.5979V299.186H99.0739V303.974ZM107.983 300.374C110.503 300.374 112.303 301.904 112.303 304.172C112.303 306.422 110.503 307.97 107.983 307.97C105.481 307.97 103.663 306.422 103.663 304.172C103.663 301.904 105.481 300.374 107.983 300.374ZM107.983 301.634C106.309 301.634 105.103 302.66 105.103 304.172C105.103 305.666 106.309 306.71 107.983 306.71C109.657 306.71 110.863 305.666 110.863 304.172C110.863 302.66 109.657 301.634 107.983 301.634ZM114.427 299.186H115.903V315.368H114.427V299.186ZM103.033 311.822L102.853 310.58C105.787 310.58 109.837 310.562 113.365 310.022L113.491 311.12C109.855 311.804 105.949 311.822 103.033 311.822ZM136.595 299.186V309.122H135.119V299.186H136.595ZM133.157 306.422L133.319 307.61C130.673 308.042 128.477 308.132 125.489 308.132H124.193V303.524H130.025V301.4H124.139V300.194H131.483V304.658H125.633V306.926C128.495 306.926 130.601 306.836 133.157 306.422ZM131.249 314.144C133.733 314.144 135.209 313.496 135.209 312.38C135.209 311.282 133.733 310.634 131.249 310.634C128.801 310.634 127.325 311.282 127.325 312.38C127.325 313.496 128.801 314.144 131.249 314.144ZM131.249 309.464C134.615 309.464 136.685 310.526 136.685 312.38C136.685 314.252 134.615 315.314 131.249 315.314C127.901 315.314 125.849 314.252 125.849 312.38C125.849 310.526 127.901 309.464 131.249 309.464ZM140.877 305.738L150.885 305.306C150.921 304.46 150.921 303.632 150.921 302.804V302.03H141.291V300.824H152.361V302.804C152.361 305.198 152.361 307.376 151.659 310.688L150.219 310.544C150.561 308.996 150.741 307.664 150.831 306.422L141.093 306.962L140.877 305.738ZM139.563 311.876H154.161V313.082H139.563V311.876ZM167.048 302.012V300.698H157.58V299.654H168.506V303.02H159.074V304.406H168.794V305.468H157.616V302.012H167.048ZM158.984 312.56V314.054H169.064V315.116H157.526V311.534H167.102V310.184H157.49V309.122H168.56V312.56H158.984ZM155.744 306.692H170.378V307.808H155.744V306.692ZM183.636 314.198C186.246 314.198 187.686 313.694 187.686 312.722C187.686 311.768 186.246 311.246 183.636 311.246C181.044 311.246 179.586 311.768 179.586 312.722C179.586 313.694 181.044 314.198 183.636 314.198ZM183.636 310.148C187.146 310.148 189.162 311.048 189.162 312.722C189.162 314.414 187.146 315.314 183.636 315.314C180.126 315.314 178.11 314.414 178.11 312.722C178.11 311.048 180.126 310.148 183.636 310.148ZM184.374 307.736H190.944V308.924H176.328V307.736H182.898V306.152H178.254V299.654H189.144V300.806H179.73V302.3H188.712V303.416H179.73V305H189.234V306.152H184.374V307.736ZM196.541 310.364C197.783 310.364 198.683 309.338 198.683 307.898C198.683 306.494 197.783 305.468 196.541 305.468C195.281 305.468 194.399 306.494 194.399 307.898C194.399 309.338 195.281 310.364 196.541 310.364ZM196.541 304.226C198.539 304.226 199.997 305.738 199.997 307.898C199.997 310.094 198.539 311.588 196.541 311.588C194.543 311.588 193.085 310.094 193.085 307.898C193.085 305.738 194.543 304.226 196.541 304.226ZM197.261 299.654V301.94H200.537V303.146H192.527V301.94H195.803V299.654H197.261ZM204.803 299.168H206.225V315.314H204.803V307.196H202.733V314.54H201.347V299.546H202.733V305.99H204.803V299.168ZM224.433 301.382V301.202H214.893V300.014H225.891V301.382C225.891 302.678 225.891 303.992 225.441 305.648L224.001 305.486C224.433 303.83 224.433 302.642 224.433 301.382ZM220.383 314.162C222.921 314.162 224.541 313.478 224.541 312.362C224.541 311.21 222.921 310.526 220.383 310.526C217.863 310.526 216.243 311.21 216.243 312.362C216.243 313.478 217.863 314.162 220.383 314.162ZM220.383 309.392C223.821 309.392 226.017 310.49 226.017 312.362C226.017 314.198 223.821 315.314 220.383 315.314C216.945 315.314 214.767 314.198 214.767 312.362C214.767 310.49 216.945 309.392 220.383 309.392ZM220.617 306.71H227.709V307.916H213.183V306.71H219.141V303.614H220.617V306.71ZM236.618 301.022C234.17 301.022 232.496 301.922 232.496 303.344C232.496 304.766 234.17 305.684 236.618 305.684C239.084 305.684 240.758 304.766 240.758 303.344C240.758 301.922 239.084 301.022 236.618 301.022ZM236.618 306.872C233.27 306.872 230.984 305.504 230.984 303.344C230.984 301.184 233.27 299.834 236.618 299.834C239.984 299.834 242.27 301.184 242.27 303.344C242.27 305.504 239.984 306.872 236.618 306.872ZM243.962 308.384V309.59H240.146V315.332H238.652V309.59H234.602V315.332H233.108V309.59H229.346V308.384H243.962ZM249.54 310.364C250.782 310.364 251.682 309.338 251.682 307.898C251.682 306.494 250.782 305.468 249.54 305.468C248.28 305.468 247.398 306.494 247.398 307.898C247.398 309.338 248.28 310.364 249.54 310.364ZM249.54 304.226C251.538 304.226 252.996 305.738 252.996 307.898C252.996 310.094 251.538 311.588 249.54 311.588C247.542 311.588 246.084 310.094 246.084 307.898C246.084 305.738 247.542 304.226 249.54 304.226ZM250.26 299.654V301.94H253.536V303.146H245.526V301.94H248.802V299.654H250.26ZM257.802 299.168H259.224V315.314H257.802V307.196H255.732V314.54H254.346V299.546H255.732V305.99H257.802V299.168ZM264.929 304.424V307.394H273.173V304.424H264.929ZM269.789 312.056H276.377V313.262H261.743V312.056H268.295V308.582H263.471V300.338H264.929V303.218H273.173V300.338H274.613V308.582H269.789V312.056ZM282.243 310.382C283.791 310.382 284.889 308.69 284.889 306.062C284.889 303.452 283.791 301.76 282.243 301.76C280.677 301.76 279.579 303.452 279.579 306.062C279.579 308.69 280.677 310.382 282.243 310.382ZM282.243 300.428C284.619 300.428 286.293 302.624 286.293 306.062C286.293 309.5 284.619 311.696 282.243 311.696C279.867 311.696 278.175 309.5 278.175 306.062C278.175 302.624 279.867 300.428 282.243 300.428ZM293.025 305.63V306.872H290.361V315.332H288.885V299.204H290.361V305.63H293.025ZM299.198 308.24V312.038H303.698V308.24C303.014 308.402 302.24 308.492 301.43 308.492C300.638 308.492 299.864 308.402 299.198 308.24ZM301.43 301.364C298.838 301.364 296.984 302.552 296.984 304.352C296.984 306.152 298.838 307.34 301.43 307.34C304.022 307.34 305.894 306.152 305.894 304.352C305.894 302.552 304.022 301.364 301.43 301.364ZM305.174 312.038H308.792V313.262H294.122V312.038H297.722V307.682C296.372 306.98 295.562 305.81 295.562 304.352C295.562 301.832 298.01 300.212 301.43 300.212C304.868 300.212 307.298 301.832 307.298 304.352C307.298 305.81 306.506 306.962 305.174 307.664V312.038ZM313.079 300.909L312.913 310.235H311.142L310.976 300.909H313.079ZM312.031 314.121C311.677 314.121 311.375 313.998 311.123 313.751C310.872 313.499 310.748 313.197 310.753 312.843C310.748 312.494 310.872 312.195 311.123 311.948C311.375 311.697 311.677 311.571 312.031 311.571C312.376 311.571 312.674 311.697 312.926 311.948C313.177 312.195 313.305 312.494 313.309 312.843C313.305 313.077 313.243 313.293 313.124 313.489C313.009 313.68 312.856 313.834 312.664 313.949C312.472 314.064 312.261 314.121 312.031 314.121ZM318.01 300.909L317.844 310.235H316.073L315.907 300.909H318.01ZM316.962 314.121C316.608 314.121 316.306 313.998 316.054 313.751C315.803 313.499 315.679 313.197 315.684 312.843C315.679 312.494 315.803 312.195 316.054 311.948C316.306 311.697 316.608 311.571 316.962 311.571C317.307 311.571 317.605 311.697 317.857 311.948C318.108 312.195 318.236 312.494 318.24 312.843C318.236 313.077 318.174 313.293 318.055 313.489C317.94 313.68 317.787 313.834 317.595 313.949C317.403 314.064 317.192 314.121 316.962 314.121Z" fill="#D64949"/>
</svg>
