<svg width="337" height="69" viewBox="0 0 337 69" fill="none" xmlns="http://www.w3.org/2000/svg">
<g filter="url(#filter0_d_2009_810)">
<rect x="4" width="329" height="60.31" rx="8" fill="#FE5858"/>
<path d="M150.215 26.256V29.352H159.671V26.256H150.215ZM156.527 35.928H164.975V38.496H144.959V35.928H153.359V31.872H147.071V20.328H150.215V23.76H159.671V20.328H162.791V31.872H156.527V35.928ZM177.021 22.104C174.069 22.104 172.293 22.824 172.293 24.168C172.293 25.536 174.069 26.208 177.021 26.208C179.997 26.208 181.773 25.536 181.773 24.168C181.773 22.824 179.997 22.104 177.021 22.104ZM177.021 28.728C172.221 28.728 169.029 26.976 169.029 24.168C169.029 21.36 172.221 19.608 177.021 19.608C181.845 19.608 185.037 21.36 185.037 24.168C185.037 26.976 181.845 28.728 177.021 28.728ZM172.629 34.248V38.16H184.773V40.68H169.461V34.248H172.629ZM167.037 30.24H187.005V32.76H167.037V30.24ZM201.054 33.96C202.542 33.96 203.622 32.952 203.622 31.248C203.622 29.592 202.542 28.56 201.054 28.56C199.566 28.56 198.462 29.592 198.462 31.272C198.462 32.952 199.566 33.96 201.054 33.96ZM201.054 25.992C204.246 25.992 206.622 28.176 206.622 31.248C206.622 34.368 204.246 36.552 201.054 36.552C197.838 36.552 195.438 34.368 195.438 31.248C195.438 28.176 197.838 25.992 201.054 25.992ZM202.614 19.344V22.224H207.414V24.744H194.55V22.224H199.446V19.344H202.614ZM215.19 27.6V30.216H212.022V41.064H208.854V18.96H212.022V27.6H215.19ZM217.972 21.24H228.58C228.58 28.008 226.3 33.528 218.452 37.32L216.796 34.824C222.436 32.112 224.884 28.656 225.34 23.76H217.972V21.24ZM231.964 18.936H235.156V41.04H231.964V18.936Z" fill="white"/>
<path d="M129.75 27.1667C129.724 26.2993 129.476 25.4531 129.03 24.709C128.583 23.9648 127.953 23.3477 127.2 22.9167C127.02 21.6827 126.4 20.5551 125.456 19.7407C124.511 18.9263 123.305 18.4796 122.058 18.4825C121.579 18.4817 121.103 18.5436 120.641 18.6667C119.666 17.7357 118.37 17.2163 117.021 17.2163C115.673 17.2163 114.377 17.7357 113.402 18.6667C112.94 18.5436 112.463 18.4817 111.985 18.4825C110.733 18.4727 109.52 18.9163 108.569 19.7314C107.619 20.5464 106.996 21.6778 106.814 22.9167C106.059 23.346 105.426 23.9623 104.977 24.7065C104.528 25.4508 104.278 26.2979 104.25 27.1667C103.874 27.1667 103.514 27.3159 103.248 27.5816C102.983 27.8473 102.833 28.2076 102.833 28.5833C102.834 31.07 103.488 33.5129 104.732 35.6665C105.975 37.82 107.763 39.6083 109.917 40.8517V42.75C109.917 43.1257 110.066 43.4861 110.332 43.7517C110.597 44.0174 110.958 44.1667 111.333 44.1667H122.667C123.043 44.1667 123.403 44.0174 123.669 43.7517C123.934 43.4861 124.083 43.1257 124.083 42.75V40.8517C126.237 39.6083 128.025 37.82 129.269 35.6665C130.512 33.5129 131.167 31.07 131.167 28.5833C131.167 28.2076 131.018 27.8473 130.752 27.5816C130.486 27.3159 130.126 27.1667 129.75 27.1667ZM107.083 27.1667C107.119 26.7191 107.288 26.2925 107.569 25.9416C107.849 25.5907 108.227 25.3316 108.656 25.1975L109.832 24.8292L109.605 23.625C109.609 23.3199 109.673 23.0185 109.793 22.738C109.913 22.4576 110.087 22.2035 110.306 21.9904C110.524 21.7773 110.782 21.6093 111.066 21.496C111.349 21.3826 111.652 21.3263 111.957 21.33C112.366 21.3277 112.77 21.4249 113.133 21.6133L114.28 22.2508L114.988 21.16C115.21 20.8298 115.509 20.5593 115.86 20.3722C116.211 20.1851 116.603 20.0872 117 20.0872C117.398 20.0872 117.789 20.1851 118.14 20.3722C118.491 20.5593 118.79 20.8298 119.012 21.16L119.72 22.2508L120.868 21.6133C121.231 21.4249 121.634 21.3277 122.043 21.33C122.656 21.3223 123.248 21.5555 123.69 21.9795C124.132 22.4034 124.391 22.9841 124.409 23.5967L124.183 24.8008L125.344 25.1975C125.773 25.3316 126.152 25.5907 126.432 25.9416C126.712 26.2925 126.881 26.7191 126.917 27.1667H107.083Z" fill="white"/>
</g>
<defs>
<filter id="filter0_d_2009_810" x="0" y="0" width="337" height="68.31" filterUnits="userSpaceOnUse" color-interpolation-filters="sRGB">
<feFlood flood-opacity="0" result="BackgroundImageFix"/>
<feColorMatrix in="SourceAlpha" type="matrix" values="0 0 0 0 0 0 0 0 0 0 0 0 0 0 0 0 0 0 127 0" result="hardAlpha"/>
<feOffset dy="4"/>
<feGaussianBlur stdDeviation="2"/>
<feComposite in2="hardAlpha" operator="out"/>
<feColorMatrix type="matrix" values="0 0 0 0 0.839216 0 0 0 0 0.286275 0 0 0 0 0.286275 0 0 0 0.25 0"/>
<feBlend mode="normal" in2="BackgroundImageFix" result="effect1_dropShadow_2009_810"/>
<feBlend mode="normal" in="SourceGraphic" in2="effect1_dropShadow_2009_810" result="shape"/>
</filter>
</defs>
</svg>
