<svg width="3588" height="3151" viewBox="0 0 3588 3151" fill="none" xmlns="http://www.w3.org/2000/svg">
<path d="M780.742 881.859C431.158 1114.89 487.48 1483.85 559.339 1639.21H3519.15C3635.68 1047.3 3319.11 767.288 3146.26 701.267C3053.03 291.134 2684.03 242.97 2511.18 270.154C2114.98 -139.983 1712.96 99.2635 1561.48 270.154C1048.75 223.548 827.352 658.538 780.742 881.859Z" fill="white"/>
<path fill-rule="evenodd" clip-rule="evenodd" d="M1952.18 95.2924C1795.24 123.069 1665.14 219.08 1594.18 299.135L1579.52 315.667L1557.52 313.667C1315.96 291.71 1145.09 382.578 1027.88 504.998C909.295 628.857 845.482 785.542 823.517 890.784L819.862 908.292L804.979 918.213C641.243 1027.36 574.21 1166.52 555.233 1296C538.12 1412.76 560.066 1522.62 588.278 1595.51H3482.75C3575.94 1049.69 3281.1 799.544 3130.66 742.083L3108.82 733.743L3103.64 710.95C3060.14 519.537 2953.79 415.58 2839.75 361.147C2723.66 305.731 2597.41 300.822 2517.97 313.316L2495.53 316.845L2479.75 300.509C2291.09 105.214 2105.92 68.0801 1952.18 95.2924ZM2526.99 223.959C2324.36 22.5849 2116.51 -22.5389 1936.94 9.24366C1766.62 39.3892 1626.71 137.738 1543.71 224.926C1283.75 207.576 1094.49 309.061 964.749 444.568C839.155 575.747 769.512 738.324 741.843 855.506C566.444 978.022 490.459 1135.28 468.761 1283.33C446.726 1433.67 480.705 1573.3 519.675 1657.55L531.402 1682.9H3555.08L3562.02 1647.65C3678.36 1056.68 3377.42 756.255 3183.5 669.439C3130.59 464.358 3009.69 345.432 2877.4 282.285C2752.93 222.871 2620.16 213.518 2526.99 223.959Z" fill="#FE5858"/>
<path fill-rule="evenodd" clip-rule="evenodd" d="M561.78 1851.21C556.593 1810.79 588.363 1776.12 628.056 1776.12H3454.22C3483.08 1776.12 3507.61 1794.42 3516.98 1819.81H3518.09L3517.82 1822.23C3520.75 1831.25 3521.79 1841.09 3520.49 1851.27C3429.34 2561.45 2838.76 3115.28 2112.09 3149.34C2093.46 3150.61 2072.38 3151.12 2049.4 3150.98C2046.65 3150.99 2043.89 3151 2041.13 3151C1980.76 3151 1921.19 3147.41 1862.63 3140.42C1611.79 3117.11 1241.14 3054.12 887.338 2942.45C554.101 2837.27 220.458 2684.28 22.7572 2468.37C-11.0752 2431.42 -5.66767 2376.09 28.9366 2344.26C64.0358 2311.98 114.346 2314.37 148.288 2334.19C167.409 2345.36 194.285 2358.74 227.963 2372.37C286.693 2396.15 359.233 2417.97 433.155 2429.34C546.309 2446.74 642.539 2437.26 705.552 2396.16C712.55 2391.6 716.966 2384.6 718.281 2373.71C719.694 2362 717.079 2347.1 709.837 2332.8C634.817 2184.75 583.763 2022.5 561.78 1851.21Z" fill="#FE5858"/>
<path d="M776.303 881.859C426.719 1114.89 483.041 1483.85 554.9 1639.21H3514.71C3631.24 1047.3 3314.67 767.288 3141.82 701.267C3048.6 291.134 2679.59 242.97 2506.74 270.154C2110.55 -139.983 1708.52 99.2635 1557.04 270.154C1044.31 223.548 822.913 658.538 776.303 881.859Z" fill="white"/>
<path fill-rule="evenodd" clip-rule="evenodd" d="M1952.18 95.2952C1795.25 123.072 1665.14 219.083 1594.18 299.138L1579.52 315.67L1557.52 313.67C1315.97 291.713 1145.09 382.581 1027.88 505.001C909.298 628.859 845.485 785.545 823.519 890.787L819.865 908.295L804.982 918.216C641.246 1027.36 574.213 1166.53 555.236 1296C538.123 1412.76 560.069 1522.63 588.281 1595.52H3482.76C3575.94 1049.69 3281.11 799.547 3130.66 742.086L3108.83 733.745L3103.65 710.953C3060.14 519.539 2953.79 415.583 2839.75 361.149C2723.66 305.734 2597.41 300.825 2517.97 313.319L2495.53 316.848L2479.75 300.512C2291.09 105.217 2105.93 68.083 1952.18 95.2952ZM2527 223.962C2324.37 22.5877 2116.52 -22.5361 1936.95 9.24646C1766.63 39.392 1626.72 137.741 1543.71 224.929C1283.75 207.579 1094.49 309.064 964.752 444.571C839.158 575.75 769.515 738.327 741.846 855.508C566.447 978.025 490.462 1135.29 468.764 1283.33C446.729 1433.67 480.708 1573.3 519.678 1657.55L531.405 1682.9H1617.56C1626.5 1736.38 1636 1772.85 1651.56 1805.74C1666.64 1837.62 1686.62 1864.19 1711.65 1897.45L1713 1899.25L1782.85 1846.72C1755.92 1810.92 1741.39 1791.27 1730.56 1768.37C1721.12 1748.41 1713.79 1724.32 1706.27 1682.9H2337.26C2329.73 1724.32 2322.41 1748.41 2312.96 1768.37C2302.13 1791.27 2287.6 1810.92 2260.68 1846.72L2330.53 1899.25L2331.88 1897.45C2356.9 1864.19 2376.88 1837.62 2391.96 1805.74C2407.52 1772.85 2417.02 1736.38 2425.97 1682.9H3555.08L3562.02 1647.65C3678.37 1056.68 3377.42 756.258 3183.5 669.442C3130.59 464.361 3009.7 345.435 2877.41 282.288C2752.93 222.874 2620.16 213.521 2527 223.962Z" fill="#FE5858"/>
<path d="M2342.21 1634.13C2342.21 1811.09 2198.74 1954.55 2021.76 1954.55C1844.78 1954.55 1701.31 1811.09 1701.31 1634.13C1701.31 1457.17 1844.78 1313.71 2021.76 1313.71C2198.74 1313.71 2342.21 1457.17 2342.21 1634.13Z" fill="#FE5858"/>
<path fill-rule="evenodd" clip-rule="evenodd" d="M2021.76 1867.16C2150.48 1867.16 2254.82 1762.83 2254.82 1634.13C2254.82 1505.43 2150.48 1401.1 2021.76 1401.1C1893.05 1401.1 1788.71 1505.43 1788.71 1634.13C1788.71 1762.83 1893.05 1867.16 2021.76 1867.16ZM2021.76 1954.55C2198.74 1954.55 2342.21 1811.09 2342.21 1634.13C2342.21 1457.17 2198.74 1313.71 2021.76 1313.71C1844.78 1313.71 1701.31 1457.17 1701.31 1634.13C1701.31 1811.09 1844.78 1954.55 2021.76 1954.55Z" fill="white"/>
<path d="M2986.28 1004.95C3014.15 988.859 3049.78 998.406 3065.87 1026.27C3081.96 1054.13 3072.41 1089.76 3044.55 1105.85L2136.3 1630.17C2108.43 1646.26 2072.8 1636.71 2056.71 1608.85C2040.62 1580.98 2050.17 1545.35 2078.04 1529.27L2986.28 1004.95Z" fill="#FE5858"/>
<path d="M1425.49 1338.88C1397.62 1322.79 1388.07 1287.16 1404.16 1259.3C1420.25 1231.44 1455.89 1221.89 1483.75 1237.98L1887.42 1471.01C1915.29 1487.09 1924.83 1522.72 1908.74 1550.59C1892.66 1578.45 1857.02 1588 1829.15 1571.91L1425.49 1338.88Z" fill="#FE5858"/>
</svg>
