<svg width="221" height="219" viewBox="0 0 221 219" fill="none" xmlns="http://www.w3.org/2000/svg">
<path fill-rule="evenodd" clip-rule="evenodd" d="M111.342 219C53.4059 219 6.12661 173.188 3.47473 115.673H219.209C216.557 173.188 169.277 219 111.342 219Z" fill="#FE5858"/>
<path d="M22.5464 62.6035C-2.16675 79.1464 1.81481 105.339 6.89474 116.368H216.133C224.37 74.3485 201.991 54.47 189.772 49.7832C183.182 20.6677 157.096 17.2485 144.876 19.1783C116.868 -9.93747 88.4479 7.04674 77.7389 19.1783C41.4929 15.8697 25.8414 46.7499 22.5464 62.6035Z" fill="white"/>
<path fill-rule="evenodd" clip-rule="evenodd" d="M105.359 6.76484C94.2645 8.7367 85.0673 15.5526 80.0505 21.2357L79.0145 22.4093L77.4591 22.2674C60.3829 20.7086 48.3032 27.1594 40.0174 35.85C31.6342 44.6427 27.1231 55.7659 25.5703 63.2371L25.312 64.48L24.2599 65.1843C12.6849 72.9326 7.94609 82.8118 6.60456 92.0033C5.39477 100.292 6.94621 108.092 8.94055 113.266H213.56C220.147 74.5178 199.305 56.7599 188.669 52.6808L187.126 52.0886L186.759 50.4706C183.684 36.8821 176.166 29.5022 168.104 25.6379C159.897 21.704 150.972 21.3555 145.356 22.2424L143.77 22.4929L142.654 21.3332C129.318 7.4692 116.228 4.83303 105.359 6.76484ZM145.994 15.899C131.67 1.60331 116.976 -1.60005 104.282 0.65621C92.2414 2.79626 82.3508 9.77808 76.4827 15.9676C58.1056 14.7359 44.7261 21.9404 35.5545 31.5601C26.6758 40.8725 21.7525 52.4139 19.7965 60.7326C7.39704 69.4302 2.02548 80.5942 0.491564 91.1038C-1.06616 101.776 1.33593 111.689 4.09084 117.67L4.91982 119.47H218.673L219.163 116.967C227.388 75.0138 206.113 53.6868 192.405 47.5237C188.664 32.965 180.118 24.5223 170.766 20.0395C161.966 15.8217 152.58 15.1577 145.994 15.899Z" fill="#FE5858"/>
<path d="M22.2326 62.6035C-2.48053 79.1464 1.50103 105.339 6.58096 116.368H215.819C224.057 74.3485 201.677 54.47 189.458 49.7832C182.868 20.6677 156.782 17.2485 144.563 19.1783C116.554 -9.93747 88.1341 7.04674 77.4251 19.1783C41.1791 15.8697 25.5276 46.7499 22.2326 62.6035Z" fill="white"/>
<path fill-rule="evenodd" clip-rule="evenodd" d="M105.359 6.76502C94.2647 8.73688 85.0674 15.5528 80.0507 21.2359L79.0147 22.4095L77.4593 22.2675C60.3831 20.7088 48.3034 27.1595 40.0176 35.8502C31.6344 44.6429 27.1233 55.7661 25.5705 63.2373L25.3122 64.4802L24.26 65.1845C12.685 72.9327 7.94627 82.812 6.60474 92.0035C5.39495 100.292 6.94639 108.092 8.94073 113.266H213.56C220.147 74.518 199.305 56.7601 188.67 52.6809L187.126 52.0888L186.76 50.4708C183.684 36.8823 176.166 29.5023 168.104 25.6381C159.897 21.7041 150.972 21.3557 145.356 22.2426L143.77 22.4931L142.654 21.3334C129.318 7.46938 116.228 4.83322 105.359 6.76502ZM145.994 15.8991C131.67 1.60349 116.976 -1.59986 104.282 0.656393C92.2415 2.79644 82.351 9.77826 76.4828 15.9678C58.1058 14.7361 44.7262 21.9406 35.5546 31.5602C26.676 40.8727 21.7527 52.414 19.7967 60.7328C7.39722 69.4303 2.02567 80.5943 0.491747 91.1039C-1.06598 101.777 1.33612 111.689 4.09103 117.67L4.92001 119.47H81.7034C82.3359 123.266 83.007 125.855 84.1071 128.19C85.1733 130.453 86.586 132.339 88.3548 134.701L88.4502 134.828L93.3881 131.1C91.4848 128.558 90.4578 127.163 89.6921 125.537C89.0244 124.12 88.5067 122.41 87.9745 119.47H132.581C132.049 122.41 131.531 124.12 130.864 125.537C130.098 127.163 129.071 128.558 127.168 131.1L132.105 134.828L132.201 134.701C133.97 132.339 135.382 130.453 136.449 128.19C137.549 125.855 138.22 123.266 138.852 119.47H218.673L219.164 116.967C227.388 75.014 206.114 53.687 192.405 47.5239C188.665 32.9651 180.118 24.5225 170.766 20.0397C161.967 15.8219 152.58 15.1579 145.994 15.8991Z" fill="#FE5858"/>
<path d="M132.932 116.007C132.932 128.57 122.789 138.754 110.278 138.754C97.7666 138.754 87.6241 128.57 87.6241 116.007C87.6241 103.445 97.7666 93.2609 110.278 93.2609C122.789 93.2609 132.932 103.445 132.932 116.007Z" fill="#FE5858"/>
<path fill-rule="evenodd" clip-rule="evenodd" d="M110.278 132.55C119.377 132.55 126.753 125.144 126.753 116.007C126.753 106.871 119.377 99.4645 110.278 99.4645C101.179 99.4645 93.8024 106.871 93.8024 116.007C93.8024 125.144 101.179 132.55 110.278 132.55ZM110.278 138.754C122.789 138.754 132.932 128.57 132.932 116.007C132.932 103.445 122.789 93.2609 110.278 93.2609C97.7666 93.2609 87.6241 103.445 87.6241 116.007C87.6241 128.57 97.7666 138.754 110.278 138.754Z" fill="white"/>
<path d="M178.463 71.3415C180.433 70.1994 182.952 70.8772 184.089 72.8553C185.227 74.8334 184.552 77.3627 182.582 78.5048L118.375 115.726C116.405 116.868 113.886 116.191 112.748 114.213C111.611 112.234 112.286 109.705 114.256 108.563L178.463 71.3415Z" fill="#FE5858"/>
<path d="M68.1256 95.0477C66.1556 93.9056 65.4806 91.3762 66.618 89.3982C67.7554 87.4201 70.2744 86.7423 72.2444 87.8844L100.781 104.427C102.751 105.569 103.426 108.099 102.288 110.077C101.151 112.055 98.6319 112.733 96.6619 111.591L68.1256 95.0477Z" fill="#FE5858"/>
</svg>
