<svg width="97" height="96" viewBox="0 0 97 96" fill="none" xmlns="http://www.w3.org/2000/svg">
<path fill-rule="evenodd" clip-rule="evenodd" d="M48.8694 96C23.4406 96 2.68903 75.9178 1.52509 50.7059H96.2137C95.0498 75.9178 74.2982 96 48.8694 96Z" fill="#FE5858"/>
<path d="M9.89593 27.4426C-0.951022 34.6943 0.796543 46.1762 3.02619 51.0106H94.8636C98.4793 32.5912 88.6567 23.8773 83.2935 21.8228C80.401 9.05983 68.9514 7.56101 63.5882 8.40696C51.295 -4.35613 38.821 3.08901 34.1207 8.40696C18.2118 6.95663 11.3422 20.4931 9.89593 27.4426Z" fill="#FE5858"/>
<path fill-rule="evenodd" clip-rule="evenodd" d="M46.2434 2.96541C41.374 3.82978 37.3372 6.81757 35.1353 9.30881L34.6806 9.82327L33.9979 9.76103C26.5029 9.07775 21.201 11.9055 17.5642 15.7151C13.8847 19.5694 11.9047 24.4453 11.2232 27.7204L11.1098 28.2652L10.648 28.5739C5.56756 31.9704 3.48765 36.3011 2.89883 40.3302C2.36784 43.9637 3.04879 47.3826 3.92413 49.6509H93.7344C96.6257 32.6654 87.4775 24.8811 82.8097 23.0929L82.1321 22.8334L81.9713 22.1241C80.6214 16.1675 77.3216 12.9325 73.7832 11.2385C70.181 9.51406 66.2638 9.36131 63.7989 9.7501L63.1026 9.85992L62.613 9.35155C56.7593 3.27417 51.0139 2.11859 46.2434 2.96541ZM64.079 6.9694C57.7917 0.702821 51.3425 -0.701391 45.7708 0.287654C40.486 1.22576 36.1449 4.28628 33.5693 6.9995C25.5034 6.45958 19.6309 9.6177 15.6054 13.8346C11.7084 17.9167 9.54749 22.9759 8.68897 26.6225C3.24666 30.4351 0.889014 35.3289 0.215754 39.9359C-0.467953 44.6143 0.58636 48.9596 1.79553 51.5814L2.15938 52.3703H95.9786L96.1939 51.2732C99.8039 32.8828 90.4661 23.5339 84.449 20.8323C82.8075 14.4504 79.0563 10.7495 74.9515 8.78445C71.0893 6.93554 66.9697 6.64448 64.079 6.9694Z" fill="#FE5858"/>
<path d="M9.75824 27.4426C-1.08872 34.6943 0.658847 46.1762 2.8885 51.0106H94.7259C98.3416 32.5912 88.5191 23.8773 83.1558 21.8228C80.2633 9.05983 68.8138 7.56101 63.4505 8.40696C51.1573 -4.35613 38.6833 3.08901 33.983 8.40696C18.0741 6.95663 11.2045 20.4931 9.75824 27.4426Z" fill="#FE5858"/>
<path fill-rule="evenodd" clip-rule="evenodd" d="M46.2435 2.96547C41.3741 3.82985 37.3373 6.81763 35.1354 9.30887L34.6806 9.82333L33.9979 9.76109C26.503 9.07781 21.201 11.9055 17.5642 15.7151C13.8848 19.5695 11.9048 24.4454 11.2232 27.7204L11.1098 28.2653L10.6481 28.574C5.56762 31.9705 3.48771 36.3011 2.89889 40.3303C2.3679 43.9637 3.04885 47.3826 3.92419 49.651H93.7344C96.6258 32.6654 87.4776 24.8811 82.8097 23.093L82.1321 22.8334L81.9714 22.1242C80.6214 16.1676 77.3216 12.9325 73.7833 11.2386C70.1811 9.51412 66.2638 9.36137 63.7989 9.75016L63.1027 9.85998L62.613 9.35161C56.7594 3.27423 51.014 2.11865 46.2435 2.96547ZM64.079 6.96946C57.7918 0.702882 51.3425 -0.701329 45.7708 0.287715C40.4861 1.22582 36.145 4.28634 33.5694 6.99956C25.5034 6.45964 19.631 9.61776 15.6054 13.8346C11.7085 17.9168 9.54755 22.976 8.68903 26.6226C3.24672 30.4352 0.889075 35.329 0.215815 39.936C-0.467892 44.6144 0.586421 48.9596 1.79559 51.5814L2.15944 52.3703H35.8607C36.1384 54.0346 36.4329 55.1693 36.9158 56.1929C37.3838 57.1849 38.0038 58.0117 38.7801 59.0468L38.822 59.1027L40.9893 57.4683C40.1539 56.3542 39.7032 55.7425 39.3671 55.03C39.074 54.4087 38.8468 53.6593 38.6132 52.3703H58.1917C57.9581 53.6593 57.7309 54.4087 57.4378 55.03C57.1018 55.7425 56.651 56.3542 55.8156 57.4683L57.9829 59.1027L58.0248 59.0468C58.8011 58.0117 59.4212 57.1849 59.8891 56.1929C60.372 55.1693 60.6666 54.0346 60.9442 52.3703H95.9786L96.194 51.2733C99.8039 32.8828 90.4661 23.534 84.4491 20.8324C82.8075 14.4505 79.0563 10.7496 74.9515 8.78451C71.0894 6.9356 66.9697 6.64454 64.079 6.96946Z" fill="#FE5858"/>
<path d="M58.3456 50.8525C58.3456 56.3594 53.8939 60.8236 48.4025 60.8236C42.9111 60.8236 38.4595 56.3594 38.4595 50.8525C38.4595 45.3457 42.9111 40.8815 48.4025 40.8815C53.8939 40.8815 58.3456 45.3457 58.3456 50.8525Z" fill="#FE5858"/>
<path fill-rule="evenodd" clip-rule="evenodd" d="M48.4025 58.1042C52.3963 58.1042 55.6338 54.8575 55.6338 50.8525C55.6338 46.8475 52.3963 43.6009 48.4025 43.6009C44.4088 43.6009 41.1712 46.8475 41.1712 50.8525C41.1712 54.8575 44.4088 58.1042 48.4025 58.1042ZM48.4025 60.8236C53.8939 60.8236 58.3456 56.3594 58.3456 50.8525C58.3456 45.3457 53.8939 40.8815 48.4025 40.8815C42.9111 40.8815 38.4595 45.3457 38.4595 50.8525C38.4595 56.3594 42.9111 60.8236 48.4025 60.8236Z" fill="#FE5858"/>
<path d="M78.3298 31.273C79.1944 30.7724 80.3001 31.0694 80.7993 31.9366C81.2985 32.8037 81.0023 33.9124 80.1376 34.4131L51.9564 50.7293C51.0917 51.23 49.9861 50.9329 49.4868 50.0658C48.9876 49.1987 49.2839 48.0899 50.1486 47.5893L78.3298 31.273Z" fill="#FE5858"/>
<path d="M29.9013 41.6647C29.0366 41.1641 28.7403 40.0553 29.2395 39.1882C29.7388 38.3211 30.8444 38.024 31.7091 38.5246L44.2341 45.7763C45.0987 46.2769 45.395 47.3857 44.8958 48.2528C44.3966 49.1199 43.2909 49.417 42.4262 48.9164L29.9013 41.6647Z" fill="#FE5858"/>
<path d="M48.5 17C29.9945 17 15 31.9945 15 50.5C15 69.0055 29.9945 84 48.5 84C67.0055 84 82 69.0055 82 50.5C82 31.9945 67.0055 17 48.5 17ZM63.0757 53.0769H51.0769V65.0757C51.0769 66.493 49.9173 67.6526 48.5 67.6526C47.7913 67.6526 47.1471 67.3627 46.68 66.8957C46.213 66.4286 45.9231 65.7844 45.9231 65.0757V53.0769H33.9243C33.2156 53.0769 32.5714 52.787 32.1043 52.32C31.6373 51.8529 31.3474 51.2087 31.3474 50.5C31.3474 49.0827 32.507 47.9231 33.9243 47.9231H45.9231V35.9243C45.9231 34.507 47.0827 33.3474 48.5 33.3474C49.9173 33.3474 51.0769 34.507 51.0769 35.9243V47.9231H63.0757C64.493 47.9231 65.6526 49.0827 65.6526 50.5C65.6526 51.9173 64.493 53.0769 63.0757 53.0769Z" fill="white"/>
</svg>
