<svg width="172" height="41" viewBox="0 0 172 41" fill="none" xmlns="http://www.w3.org/2000/svg">
<path d="M3.62554 12.0752C-0.348459 14.7375 0.291797 18.9529 1.10868 20.7279H34.7552C36.0799 13.9654 32.4812 10.7662 30.5163 10.0119C29.4565 5.32617 25.2617 4.7759 23.2968 5.08648C18.7929 0.400678 14.2228 3.13406 12.5008 5.08648C6.67224 4.55401 4.1554 9.52375 3.62554 12.0752Z" fill="white"/>
<path fill-rule="evenodd" clip-rule="evenodd" d="M16.9422 3.08871C15.1582 3.40606 13.6793 4.50298 12.8725 5.41761L12.7059 5.60648L12.4558 5.58363C9.70988 5.33278 7.7674 6.37094 6.435 7.76958C5.08694 9.18466 4.36153 10.9748 4.11184 12.1772L4.0703 12.3772L3.90111 12.4905C2.03979 13.7375 1.27777 15.3275 1.06205 16.8067C0.867506 18.1407 1.11699 19.3959 1.43769 20.2287H34.3415C35.4008 13.9927 32.0492 11.1348 30.339 10.4783L30.0908 10.383L30.0319 10.1226C29.5373 7.93568 28.3283 6.74798 27.032 6.12608C25.7122 5.49296 24.2771 5.43688 23.374 5.57962L23.1189 5.61994L22.9395 5.4333C20.7949 3.20207 18.69 2.77781 16.9422 3.08871ZM23.4766 4.55873C21.1732 2.25803 18.8104 1.74249 16.769 2.10561C14.8329 2.45002 13.2424 3.57365 12.2988 4.56977C9.34368 4.37155 7.19218 5.53101 5.71734 7.07917C4.28961 8.57789 3.49792 10.4353 3.18338 11.7741C1.18948 13.1739 0.325708 14.9706 0.079046 16.6619C-0.171444 18.3796 0.214825 19.9749 0.657828 20.9374L0.791133 21.2271H35.1637L35.2426 20.8243C36.5652 14.0725 33.1441 10.6402 30.9396 9.64831C30.3382 7.30527 28.9639 5.94655 27.46 5.2251C26.045 4.54629 24.5357 4.43944 23.4766 4.55873Z" fill="#FE5858"/>
<path fill-rule="evenodd" clip-rule="evenodd" d="M35.0138 23.1499C35.0728 22.6882 34.7116 22.2921 34.2604 22.2921H2.13314C1.80501 22.2921 1.52618 22.5012 1.41971 22.7912H1.4071L1.41016 22.8189C1.37682 22.9219 1.36496 23.0343 1.37981 23.1506C2.41594 31.2645 9.1296 37.5919 17.3902 37.981C17.6019 37.9955 17.8416 38.0013 18.1028 37.9997C18.1341 37.9999 18.1655 38 18.1968 38C18.8831 38 19.5603 37.959 20.226 37.8791C23.0775 37.6128 27.291 36.8932 31.3129 35.6174C35.1011 34.4157 38.8939 32.6678 41.1413 30.2009C41.5259 29.7788 41.4644 29.1466 41.0711 28.7831C40.6721 28.4143 40.1001 28.4415 39.7143 28.668C39.4969 28.7956 39.1914 28.9484 38.8086 29.1042C38.1409 29.3759 37.3163 29.6251 36.476 29.755C35.1897 29.9539 34.0957 29.8455 33.3794 29.376C33.2999 29.3239 33.2497 29.2439 33.2347 29.1195C33.2187 28.9858 33.2484 28.8154 33.3307 28.6521C34.1835 26.9607 34.7639 25.1069 35.0138 23.1499Z" fill="#FE5858"/>
<path d="M3.57509 12.0752C-0.398909 14.7375 0.241347 18.9529 1.05822 20.7279H34.7047C36.0294 13.9654 32.4307 10.7662 30.4658 10.0119C29.4061 5.32617 25.2113 4.7759 23.2464 5.08648C18.7425 0.400678 14.1724 3.13406 12.4503 5.08648C6.62179 4.55401 4.10495 9.52375 3.57509 12.0752Z" fill="white"/>
<path fill-rule="evenodd" clip-rule="evenodd" d="M16.9422 3.08871C15.1582 3.40606 13.6792 4.50298 12.8725 5.41761L12.7059 5.60649L12.4558 5.58363C9.70988 5.33278 7.7674 6.37094 6.435 7.76958C5.08694 9.18466 4.36153 10.9748 4.11183 12.1772L4.07029 12.3772L3.90111 12.4905C2.03979 13.7375 1.27777 15.3275 1.06205 16.8067C0.867506 18.1407 1.11699 19.3959 1.43769 20.2287H34.3415C35.4008 13.9927 32.0492 11.1348 30.339 10.4783L30.0908 10.383L30.0319 10.1226C29.5373 7.93568 28.3283 6.74798 27.032 6.12608C25.7122 5.49296 24.2771 5.43688 23.374 5.57962L23.1189 5.61994L22.9395 5.4333C20.7949 3.20207 18.69 2.77781 16.9422 3.08871ZM23.4766 4.55873C21.1732 2.25803 18.8104 1.74249 16.769 2.10561C14.8329 2.45002 13.2424 3.57365 12.2988 4.56977C9.34368 4.37155 7.19218 5.53101 5.71734 7.07917C4.28961 8.57789 3.49792 10.4353 3.18338 11.7741C1.18948 13.1739 0.325708 14.9706 0.079046 16.6619C-0.171444 18.3796 0.214825 19.9749 0.657828 20.9374L0.791133 21.2271H13.1383C13.24 21.8381 13.3479 22.2547 13.5248 22.6305C13.6963 22.9947 13.9234 23.2982 14.2079 23.6783L14.2232 23.6988L15.0173 23.0987C14.7112 22.6897 14.546 22.4651 14.4229 22.2035C14.3155 21.9754 14.2323 21.7003 14.1467 21.2271H21.3197C21.2341 21.7003 21.1509 21.9754 21.0435 22.2035C20.9204 22.4651 20.7552 22.6897 20.4492 23.0987L21.2432 23.6988L21.2585 23.6783C21.543 23.2982 21.7701 22.9947 21.9416 22.6305C22.1185 22.2547 22.2264 21.8381 22.3281 21.2271H35.1637L35.2426 20.8243C36.5652 14.0725 33.1441 10.6402 30.9396 9.64831C30.3382 7.30527 28.9639 5.94655 27.46 5.2251C26.045 4.54629 24.5357 4.43944 23.4766 4.55873Z" fill="#FE5858"/>
<path d="M21.376 20.6698C21.376 22.6916 19.7451 24.3306 17.7332 24.3306C15.7213 24.3306 14.0904 22.6916 14.0904 20.6698C14.0904 18.6481 15.7213 17.0091 17.7332 17.0091C19.7451 17.0091 21.376 18.6481 21.376 20.6698Z" fill="#FE5858"/>
<path fill-rule="evenodd" clip-rule="evenodd" d="M17.7332 23.3322C19.1964 23.3322 20.3825 22.1402 20.3825 20.6698C20.3825 19.1995 19.1964 18.0075 17.7332 18.0075C16.27 18.0075 15.0839 19.1995 15.0839 20.6698C15.0839 22.1402 16.27 23.3322 17.7332 23.3322ZM17.7332 24.3306C19.7451 24.3306 21.376 22.6916 21.376 20.6698C21.376 18.6481 19.7451 17.0091 17.7332 17.0091C15.7213 17.0091 14.0904 18.6481 14.0904 20.6698C14.0904 22.6916 15.7213 24.3306 17.7332 24.3306Z" fill="white"/>
<path d="M28.6977 13.4814C29.0145 13.2976 29.4195 13.4067 29.6024 13.725C29.7853 14.0434 29.6768 14.4505 29.36 14.6343L19.0352 20.6246C18.7185 20.8084 18.3134 20.6993 18.1305 20.3809C17.9476 20.0626 18.0561 19.6555 18.3729 19.4717L28.6977 13.4814Z" fill="#FE5858"/>
<path d="M10.9549 17.2966C10.6381 17.1128 10.5296 16.7057 10.7125 16.3874C10.8954 16.069 11.3004 15.96 11.6172 16.1438L16.206 18.8061C16.5228 18.9899 16.6313 19.397 16.4485 19.7153C16.2656 20.0337 15.8605 20.1428 15.5437 19.959L10.9549 17.2966Z" fill="#FE5858"/>
<path d="M64.853 4.576H69.341V35.992H64.853V4.576ZM52.511 6.786C57.237 6.786 60.739 11.07 60.739 17.938C60.739 24.84 57.237 29.158 52.511 29.158C47.785 29.158 44.283 24.84 44.283 17.938C44.283 11.07 47.785 6.786 52.511 6.786ZM52.511 10.832C50.199 10.832 48.601 13.314 48.601 17.938C48.601 22.596 50.199 25.078 52.511 25.078C54.823 25.078 56.421 22.596 56.421 17.938C56.421 13.314 54.823 10.832 52.511 10.832ZM76.2744 24.636L74.6084 20.998C81.7144 20.012 85.2164 16.204 85.5224 12.498H76.1044V8.928H85.5904V5.086H90.0784V8.928H99.5644V12.498H90.1464C90.4524 16.204 93.9544 20.012 101.026 20.998L99.3944 24.636C93.8524 23.82 89.9084 21.304 87.8344 17.938C85.7604 21.304 81.8164 23.82 76.2744 24.636ZM73.6564 28.682H102.012V32.32H73.6564V28.682ZM117.039 19.434V25.248C121.459 25.214 125.063 25.044 129.143 24.432L129.551 28.002C124.791 28.716 120.575 28.852 115.203 28.852H112.551V7.194H127.273V10.832H117.039V15.932H126.831V19.434H117.039ZM140.397 16.476V20.182H135.841V35.958H131.353V4.61H135.841V16.476H140.397ZM163.073 4.61H167.595V22.358H163.073V4.61ZM146.753 23.752H167.595V35.55H146.753V23.752ZM163.209 27.254H151.173V32.048H163.209V27.254ZM150.561 6.038C155.423 6.038 159.061 9.166 159.061 13.586C159.061 17.972 155.423 21.1 150.561 21.1C145.699 21.1 142.027 17.972 142.027 13.586C142.027 9.166 145.699 6.038 150.561 6.038ZM150.561 9.778C148.181 9.778 146.413 11.206 146.413 13.586C146.413 15.932 148.181 17.36 150.561 17.36C152.907 17.36 154.675 15.932 154.675 13.586C154.675 11.206 152.907 9.778 150.561 9.778Z" fill="#FE5858"/>
</svg>
